<svg width="216" height="41" viewBox="0 0 216 41" fill="none" xmlns="http://www.w3.org/2000/svg">
<g clip-path="url(#clip0_3001_33728)">
<path d="M209.552 11.9506C207.56 10.1446 206.424 7.58126 206.424 4.89145V1.67969H8.98189V4.89145C8.98189 7.58126 7.84512 10.1446 5.85338 11.9506C0.694706 16.6274 0.694706 24.732 5.85338 29.4088C5.85338 29.4088 8.98189 31.5494 8.98189 36.4679V39.6797H206.422V36.4679C206.422 31.7431 209.551 29.4088 209.551 29.4088C214.709 24.732 214.711 16.6274 209.552 11.9506Z" stroke="#424D1C" stroke-width="3" stroke-miterlimit="10"/>
<path d="M29.227 32.9762H34.7377L40.8894 14.0539C41.4335 12.3784 42.511 11.3455 44.0882 11.3455C45.3763 11.3455 46.4769 12.2631 46.4769 14.1338V29.9711C46.4769 31.4329 46.1356 30.5045 43.8115 31.0287V32.9778H63.4947V25.5164H61.2458C60.0453 30.0541 59.0339 30.503 56.9725 30.503H54.6853C50.8993 30.503 50.7117 30.2401 50.7117 29.078V22.9294C50.7117 21.7673 50.8608 21.3169 51.7616 21.3169H54.6484C56.1102 21.3169 56.785 21.6536 57.3476 23.6042H59.4105V16.7055H57.3476C56.785 18.6546 56.1102 19.0297 54.6484 19.0297H51.7616C50.8608 19.0297 50.7117 18.6177 50.7117 17.4556V12.2063C50.7117 11.0442 50.8993 10.7813 53.7476 10.7813H55.9227C57.8349 10.7813 59.5965 11.1564 60.3835 14.3813H62.557V8.38337H35.414V10.3325C37.9273 10.8566 38.6759 11.4561 38.2639 12.8073L33.7278 27.2042C33.3911 28.291 33.1283 28.703 32.6026 28.703C32.0016 28.703 31.8156 28.291 31.4774 27.2411L26.7906 12.8073C26.3418 11.4577 27.1657 10.8582 29.6405 10.3325V8.38337H19.9688V10.3325C21.6934 10.8566 21.881 11.4561 22.3298 12.8073L29.2285 32.9778L29.227 32.9762ZM178.434 22.3668L180.982 14.1569C181.32 13.0701 181.62 12.6566 182.183 12.6566C182.821 12.6566 182.97 13.0686 183.308 14.1185L185.969 22.3668H178.434ZM170.935 32.9762H179.334V31.0271C176.823 30.5014 176.072 29.9019 176.484 28.5523L177.685 24.7663H186.757L187.995 28.5523C188.445 29.9019 187.658 30.5014 185.183 31.0271V32.9762H194.669V31.0271C192.944 30.5014 192.757 29.9019 192.308 28.5523L185.409 8.38184H180.011L173.488 28.5523C173.038 29.9019 172.665 30.5014 170.938 31.0271V32.9762H170.935ZM158.749 32.9762H163.06C165.721 32.9762 168.61 30.9518 170.184 25.8162H167.484C166.247 28.6661 164.824 30.3523 161.749 30.3523C157.25 30.3523 153.613 26.4157 153.613 19.5554C153.613 14.0816 156.687 10.7829 161.299 10.7829C164.673 10.7829 165.873 12.3953 166.697 15.8063H169.097V8.38337H159.762C155.038 8.38337 149.114 12.6951 149.114 21.0556C149.114 29.4162 155.262 32.9778 158.749 32.9778V32.9762ZM138.4 32.9762H148.336V31.0271C145.861 30.503 145.486 30.0157 145.486 28.5538V12.8073C145.486 11.3455 145.861 10.8582 148.336 10.334V8.38491H138.4V10.334C140.913 10.8582 141.25 11.3455 141.25 12.8073V28.5538C141.25 30.0157 140.913 30.503 138.4 31.0271V32.9762ZM112.116 32.9762H121.076V31.0271C118.265 30.1279 117.702 28.7029 117.702 25.7409V14.7933C117.702 14.0432 117.778 13.6312 118.19 13.6312C118.526 13.6312 118.677 13.8941 119.052 14.6442L128.199 32.9778H133.298V12.8073C133.298 11.3455 133.636 10.8582 135.961 10.334V8.38491H127.037V10.334C129.85 11.2332 130.375 12.6582 130.375 15.6203V25.8546C130.375 26.6047 130.299 27.0167 129.887 27.0167C129.549 27.0167 129.4 26.7538 129.025 26.0053L120.44 8.38491H112.116V10.334C114.442 10.8582 114.779 11.3455 114.779 12.8073V28.5538C114.779 30.0157 114.442 30.503 112.116 31.0271V32.9762ZM100.083 30.5767C95.5842 30.5767 91.8735 26.4157 91.8735 19.5554C91.8735 14.0816 94.7972 10.7829 98.66 10.7829C103.158 10.7829 106.907 14.907 106.907 21.7673C106.907 27.2411 103.983 30.5783 100.083 30.5783V30.5767ZM97.0091 32.9762H101.508C105.52 32.9762 111.406 28.6276 111.406 20.304C111.406 11.9803 105.221 8.38184 101.734 8.38184H97.2351C93.2616 8.38184 87.3758 12.6935 87.3758 21.0541C87.3758 29.4146 93.5244 32.9762 97.0107 32.9762H97.0091ZM73.7306 19.2556C72.6807 19.2556 72.3056 18.8437 72.3056 17.4941V12.1325C72.3056 10.9704 72.6438 10.7075 74.0303 10.7075H75.8672C79.2043 10.7075 80.8537 12.2063 80.8537 14.6811C80.8537 17.7923 78.7171 19.2556 75.2677 19.2556H73.7306ZM65.4069 32.9762H75.529V31.1393C73.2048 30.1279 72.0412 29.0396 72.0412 25.3658C72.0412 22.6666 72.8283 21.4661 74.2916 21.4661H74.4791C75.9779 21.4661 77.0277 22.4406 78.4158 25.1029L82.54 32.9762H88.0891V31.2147C87.0023 30.7274 86.5519 30.5398 86.0646 29.7528L80.1036 20.3055C83.6652 18.2426 85.1654 16.7808 85.1654 13.7818C85.1654 10.7829 82.8043 8.38337 79.6178 8.38337H65.4084V10.3325C67.7326 10.8566 68.0708 11.3439 68.0708 12.8058V28.5523C68.0708 30.0141 67.7326 30.5014 65.4084 31.0256V32.9747L65.4069 32.9762Z" fill="#424D1C"/>
</g>
<defs>
<clipPath id="clip0_3001_33728">
<rect width="215" height="40" fill="white" transform="translate(0.5 0.679688)"/>
</clipPath>
</defs>
</svg>
