<svg width="20" height="21" viewBox="0 0 20 21" fill="none" xmlns="http://www.w3.org/2000/svg">
<path fill-rule="evenodd" clip-rule="evenodd" d="M15.3456 4.34606C16.0114 4.34606 16.5441 4.88506 16.5441 5.54454C16.5441 6.21036 16.0051 6.74302 15.3456 6.74302C14.6798 6.74302 14.1471 6.20402 14.1471 5.54454C14.1471 4.88506 14.6798 4.34606 15.3456 4.34606ZM10.0063 7.55468C8.16741 7.55468 6.67089 9.04485 6.67089 10.8901C6.67089 12.7354 8.16107 14.2256 10.0063 14.2256C11.8516 14.2256 13.3418 12.7354 13.3418 10.8901C13.3418 9.04485 11.8453 7.55468 10.0063 7.55468ZM10.0063 5.74745C12.8408 5.74745 15.1427 8.04929 15.1427 10.8838C15.1427 13.7183 12.8408 16.0201 10.0063 16.0201C7.17185 16.0201 4.87001 13.7183 4.87001 10.8838C4.86367 8.04929 7.1655 5.74745 10.0063 5.74745ZM10.4375 2.68468H9.5688C7.29233 2.68468 6.95625 2.69736 5.96068 2.74175C4.98415 2.78614 4.45783 2.95101 4.10273 3.09051C3.63348 3.26806 3.30374 3.49 2.95498 3.83877C2.60621 4.18753 2.38428 4.51727 2.20672 4.98652C2.06722 5.34162 1.90235 5.86794 1.85796 6.84447C1.81357 7.84003 1.80089 8.17612 1.80089 10.4526V11.3213C1.80089 13.5978 1.81357 13.9339 1.85796 14.9294C1.90235 15.906 2.06722 16.4323 2.20038 16.7874C2.38427 17.2566 2.59987 17.5864 2.94864 17.9352C3.2974 18.2839 3.63348 18.4995 4.09639 18.6834C4.45149 18.8229 4.97781 18.9814 5.95435 19.0258C7.00698 19.0766 7.32403 19.0829 10 19.0829H10.2219C12.6886 19.0829 13.0184 19.0702 14.0393 19.0258C15.0159 18.9814 15.5422 18.8166 15.8973 18.6834C16.3665 18.4995 16.6963 18.2839 17.045 17.9352C17.3938 17.5864 17.6094 17.2503 17.7933 16.7874C17.9328 16.4323 18.0913 15.906 18.1357 14.9294C18.1864 13.8768 18.1928 13.5598 18.1928 10.8838V10.6618C18.1928 8.19514 18.1801 7.8654 18.1357 6.84447C18.0913 5.86794 17.9264 5.34162 17.7933 4.98652C17.6094 4.51727 17.3938 4.18753 17.045 3.83877C16.6963 3.49 16.3602 3.2744 15.8973 3.09051C15.5549 2.95101 15.0222 2.78614 14.0457 2.74175C13.0501 2.69736 12.714 2.68468 10.4375 2.68468ZM11.0336 0.883789C12.8345 0.89013 13.215 0.902813 14.1281 0.940859C15.1934 0.991589 15.9226 1.15646 16.5568 1.40376C17.2162 1.65741 17.7743 1.99983 18.3259 2.55785C18.884 3.11588 19.2264 3.6739 19.48 4.32704C19.7273 4.96115 19.8985 5.69038 19.9429 6.7557C19.9937 7.82101 20 8.16343 20 10.8838C20 13.6041 19.9873 13.9402 19.9429 15.0119C19.8922 16.0772 19.7273 16.8064 19.48 17.4405C19.2264 18.1 18.884 18.658 18.3259 19.2097C17.7679 19.7677 17.2099 20.1102 16.5568 20.3638C15.9226 20.6111 15.1934 20.7823 14.1281 20.8267C13.0628 20.8774 12.7204 20.8838 10 20.8838C7.27964 20.8838 6.94357 20.8711 5.87191 20.8267C4.8066 20.776 4.07736 20.6111 3.44325 20.3638C2.78377 20.1102 2.22575 19.7677 1.67407 19.2097C1.11604 18.6517 0.773623 18.0937 0.519977 17.4405C0.272672 16.8064 0.10146 16.0772 0.0570722 15.0119C0.0190253 14.0988 0.00634115 13.7183 0 11.9174V9.86286C0.00634115 8.06198 0.0190253 7.68151 0.0570722 6.76838C0.107801 5.70307 0.272672 4.97383 0.519977 4.33972C0.773623 3.68024 1.11604 3.12222 1.67407 2.57054C2.23209 2.00617 2.79011 1.66375 3.44959 1.4101C4.0837 1.1628 4.81294 0.991589 5.87825 0.947201C6.79138 0.902812 7.17185 0.89013 8.97273 0.89013H11.0336V0.883789Z" fill="#424D1C"/>
</svg>
