<svg width="144" height="31" viewBox="0 0 144 31" fill="none" xmlns="http://www.w3.org/2000/svg">
<path d="M37.1847 5.00571C30.1528 5.00571 25.3711 9.57644 25.3711 15.1141C25.3711 20.6517 30.2465 25.1345 37.1847 25.1345C44.1228 25.1345 48.9982 20.5638 48.9982 15.1141C49.092 9.57644 44.2166 5.00571 37.1847 5.00571ZM37.1847 21.4428C32.5905 21.4428 29.5902 18.5421 29.5902 15.1141C29.5902 11.686 32.5905 8.78535 37.1847 8.78535C41.7788 8.78535 44.7791 11.686 44.7791 15.1141C44.7791 18.5421 41.8726 21.4428 37.1847 21.4428Z" fill="#FCF7EB"/>
<path d="M18.9 13.5326H5.49256V5.53381H1.36719V24.6078H5.49256V17.3122H18.9V24.6078H22.9316V5.53381H18.9V13.5326Z" fill="#FCF7EB"/>
<path d="M142.287 5.53314H136.756L130.567 12.2134L124.286 5.53314H118.848L127.848 15.0262L118.848 24.6071H124.286L130.567 17.9268L136.756 24.6071H142.287L133.286 15.0262L142.287 5.53314Z" fill="#FCF7EB"/>
<path d="M98.4102 21.0037C98.4102 22.9374 100.098 24.6075 102.254 24.6075H117.256V20.8279H102.536V17.0482H113.13V13.2686H102.536V9.31315H117.256V5.53351H98.5039V21.0037H98.4102Z" fill="#FCF7EB"/>
<path d="M91.0992 20.7399L81.1608 7.11562C80.4108 6.14874 79.2857 5.53345 77.973 5.53345H73.7539V24.5196H77.8793V9.31309L88.9428 24.5196H95.1309V5.53345H91.0055V20.7399H91.0992Z" fill="#FCF7EB"/>
<path d="M66.9116 16.6088C69.068 15.2024 70.2869 13.8839 70.2869 10.9833C70.2869 7.73104 67.7554 5.53357 63.3487 5.53357H51.5352V24.5197H55.6605V9.31321H63.5363C65.7865 9.31321 66.1615 10.8075 66.1615 11.3349C66.1615 12.3897 65.6927 13.1808 64.2863 13.9718C62.8799 14.7629 58.7546 16.9604 58.7546 16.9604L66.5365 24.5197H72.2558L65.1301 17.6636L66.9116 16.6088Z" fill="#FCF7EB"/>
</svg>
