<svg width="107" height="33" viewBox="0 0 107 33" fill="none" xmlns="http://www.w3.org/2000/svg">
<g clip-path="url(#clip0_884_16216)">
<path d="M53.9756 28.9335C51.6537 28.9272 51.0077 28.0878 51.0104 27.0811C51.0882 26.1975 51.5728 25.3996 52.3129 24.9328C52.7499 25.0032 53.1946 25.0351 53.6394 25.0363L54.2877 25.0381C56.6021 25.0444 57.9272 25.6705 57.9243 26.7156C57.9201 28.2526 56.0864 28.9316 53.9756 28.9258M54.0244 10.9586C55.5321 10.9626 56.3741 11.8026 56.3704 13.1936C56.3666 14.5845 55.5126 15.3814 54.0124 15.3774C52.5122 15.3733 51.6926 14.6026 51.6965 13.1809C51.7003 11.7592 52.5242 10.9545 54.0244 10.9586ZM55.3238 21.0447L54.1327 21.0415C52.7758 21.0378 52.364 19.9915 53.2189 18.8872L53.9727 18.8893C58.2998 18.901 60.7929 16.9251 60.803 13.2363C60.804 12.8598 60.7748 12.4908 60.708 12.1218L62.2685 12.126L62.2739 10.1279C62.2769 9.00592 62.1143 7.822 60.9609 7.81887C60.0261 7.81633 57.7792 7.94856 56.7242 7.80737C55.8125 7.62814 54.8931 7.51037 53.966 7.45406C49.6389 7.44232 47.1758 9.48752 47.1657 13.207C47.0244 15.2585 48.1047 17.1904 49.9115 18.1098C49.1027 18.8991 48.6475 19.9891 48.6444 21.1342C48.6198 21.8642 48.8213 22.5871 49.2192 23.1953C47.2708 24.4734 46.3167 26.0386 46.3124 27.637C46.3061 29.9425 48.0716 32.1913 53.3561 32.2056C59.7639 32.223 62.6066 29.2029 62.6153 25.9752C62.6241 22.7475 60.0355 21.0345 55.256 21.0215" fill="#FCF7EB"/>
<path d="M106.29 3.27712C106.203 4.81387 104.919 5.98618 103.411 5.89755C102.017 5.81692 100.904 4.67653 100.84 3.26232C100.761 1.72512 101.926 0.421841 103.426 0.341378C104.934 0.260936 106.212 1.44789 106.291 2.97741C106.291 3.07731 106.291 3.16953 106.29 3.26943" fill="#FCF7EB"/>
<path d="M65.551 5.94083C67.0133 5.99091 68.2377 4.82612 68.287 3.33537C68.2872 3.28158 68.2873 3.22778 68.2875 3.17399C68.3746 1.63724 67.2172 0.327655 65.7172 0.23905C64.2097 0.150424 62.925 1.33042 62.8379 2.85949C62.8376 2.95939 62.8374 3.05161 62.8371 3.15151C62.7878 4.64226 63.9379 5.88266 65.4002 5.93273C65.453 5.93288 65.5058 5.93302 65.551 5.93314" fill="#FCF7EB"/>
<path d="M63.1589 9.22349L63.1197 23.648C63.103 24.2474 63.569 24.7559 64.157 24.7728C64.1645 24.7729 64.1796 24.7729 64.1871 24.7729L66.803 24.78C67.391 24.7816 67.8673 24.2911 67.8765 23.6917L67.9181 8.35264C67.9223 6.81566 63.1483 7.5712 63.1438 9.22345" fill="#FCF7EB"/>
<path d="M41.5896 20.2697C40.6758 20.8897 39.6119 21.248 38.5186 21.2988C37.7045 21.2966 37.0119 20.9182 37.0148 19.8807C37.0182 18.6281 37.9694 18.1158 41.6191 17.7414L41.5896 20.2697ZM40.7426 7.37975C38.5941 7.37392 34.5815 8.13152 33.4038 8.76617C32.226 9.40083 33.943 12.856 33.943 12.856C35.8218 12.2156 37.7679 11.8213 39.7434 11.6883C40.9721 11.6916 41.6115 12.2159 41.6079 13.5377L41.6052 14.5445C34.4883 14.7019 32.4343 16.0028 32.4229 20.1833C32.2653 22.6959 34.129 24.8604 36.5937 25.0285C36.7746 25.0444 36.963 25.0449 37.144 25.03C38.9835 24.9889 40.7644 24.3559 42.2299 23.2301L42.7762 24.7148L45.279 24.7216C45.867 24.7232 46.3508 24.2327 46.3524 23.6333C46.3524 23.6333 46.3524 23.6333 46.3525 23.6256L46.3804 13.3432C46.3924 8.92438 44.233 7.38922 40.7426 7.37975Z" fill="#FCF7EB"/>
<path d="M95.794 14.5839L90.517 14.5696C90.6959 12.5566 91.6865 11.4143 93.3224 11.4187C94.9583 11.4232 95.8446 12.6014 95.7714 14.5839M93.642 7.52331C89.1717 7.51118 85.7196 10.0763 85.7025 16.3625C85.6855 22.6487 88.6941 25.1699 93.6243 25.1833C95.6521 25.1888 97.6584 24.8253 99.5526 24.1004L99.1819 21.7939C99.1822 21.671 99.1599 21.5479 99.1226 21.4249C98.9657 20.9019 98.4917 20.5394 97.9565 20.538L97.9188 20.5378C97.7605 20.5451 97.6021 20.5831 97.4511 20.6442C96.3497 20.9332 95.2109 21.0992 94.0725 21.1268C91.8863 21.1209 90.5242 20.2488 90.4927 17.9893L100.353 18.0161C101.323 10.7565 98.331 7.55141 93.6646 7.53874" fill="#FCF7EB"/>
<path d="M31.6008 23.5471L31.6295 12.9497C31.6405 8.91509 29.7676 7.34997 27.3478 7.3434C25.3425 7.33796 23.4563 7.92458 20.9044 9.30863C20.1842 8.0156 18.8143 7.25108 17.3592 7.31629C15.761 7.31196 13.9499 7.96795 11.6999 9.28365L11.7053 7.27789L10.0694 7.27345C8.68235 7.26969 6.92378 8.03341 6.92043 9.27068L6.8818 23.5031C6.87261 24.1102 7.34619 24.611 7.94171 24.6203C7.94171 24.6203 7.94925 24.6203 7.95679 24.6203L10.6104 24.6275C11.1833 24.6214 11.652 24.1462 11.6611 23.5622L11.6895 13.103C12.7616 12.5219 13.9235 12.1485 15.1301 11.9981C16.2232 12.001 16.8998 12.7022 16.895 14.4697L16.8703 23.5686C16.8687 24.1527 17.3348 24.6304 17.9077 24.6473L20.5914 24.6546C21.1719 24.6485 21.6406 24.1656 21.6422 23.5739L21.6667 14.5518C21.6832 14.037 21.6695 13.5221 21.6106 13.0147C22.6902 12.4336 23.8747 12.0833 25.0887 11.979C26.2119 11.982 26.8583 12.6831 26.8535 14.4506L26.8287 23.611C26.8422 24.1951 27.2932 24.6574 27.8661 24.6744L30.5498 24.6816C31.1228 24.6755 31.5839 24.208 31.6006 23.624" fill="#FCF7EB"/>
<path d="M80.2244 7.4869C78.5207 7.48228 76.6041 8.13798 74.1882 9.45324L74.191 8.40809L74.1936 7.44748L72.3542 7.44249C71.0425 7.43893 69.4116 8.36438 69.4087 9.44027L69.3701 23.6727C69.3609 24.2798 69.8345 24.7806 70.43 24.7899C70.43 24.7899 70.4375 24.7899 70.4451 24.7899L73.0836 24.7971C73.6716 24.7987 74.1478 24.3081 74.1495 23.7087L74.1778 13.2726C75.3931 12.6919 76.6983 12.3188 78.033 12.1688C79.292 12.1722 80.0741 12.8736 80.0693 14.6412L80.0447 23.694C80.028 24.2933 80.494 24.8018 81.082 24.8188C81.097 24.8188 81.1121 24.8189 81.1272 24.8189L83.7582 24.826C84.3462 24.8276 84.83 24.3371 84.8316 23.7377L84.8605 13.0941C84.872 8.85207 82.6141 7.49339 80.2395 7.48694" fill="#FCF7EB"/>
<path d="M3.01231 5.77108C4.47466 5.82116 5.69908 4.65637 5.74836 3.16563C5.7485 3.11183 5.74865 3.05804 5.74879 3.00424C5.79807 1.5135 4.64805 0.265416 3.17816 0.215317C3.12539 0.215173 3.07262 0.21503 3.02739 0.214908C1.56503 0.164829 0.348136 1.33732 0.298858 2.82807C0.298712 2.88186 0.298566 2.93566 0.29842 2.98945C0.249143 4.4802 1.39918 5.7206 2.86154 5.77067C2.91431 5.77082 2.96708 5.77096 3.01231 5.77108Z" fill="#FCF7EB"/>
<path d="M0.620346 9.05376L0.586372 21.5724L0.578155 24.6003L4.27959 24.6103C4.86759 24.6119 5.34386 24.1214 5.35302 23.522L5.39465 8.18295C5.39882 6.64597 0.62483 7.40151 0.620325 9.06144" fill="#FCF7EB"/>
</g>
<defs>
<clipPath id="clip0_884_16216">
<rect width="106" height="32" fill="white" transform="translate(0.304688 0.0615234) rotate(0.155494)"/>
</clipPath>
</defs>
</svg>
