<?xml version="1.0" standalone="no"?>
<!DOCTYPE svg PUBLIC "-//W3C//DTD SVG 1.1//EN" "http://www.w3.org/Graphics/SVG/1.1/DTD/svg11.dtd" >
<svg xmlns="http://www.w3.org/2000/svg" xmlns:xlink="http://www.w3.org/1999/xlink" version="1.1">
<metadata>
Created by FontForge 20201107 at Mon Aug  4 15:36:28 2025
 By 
Copyright (c) 2023 by Studio Feixen. All rights reserved.
</metadata>
<defs>
<font id="EaseSemiDisplay-Semibold" horiz-adv-x="1257" >
  <font-face 
    font-family="Ease SemiDisplay SmDisplay SmBd"
    font-weight="600"
    font-stretch="normal"
    units-per-em="2048"
    panose-1="0 0 5 0 0 0 0 0 0 0"
    ascent="1638"
    descent="-410"
    x-height="1044"
    cap-height="1444"
    bbox="-314 -475 2022.76 1953"
    underline-thickness="102"
    underline-position="-255"
    unicode-range="U+0020-1F6AB"
  />
<missing-glyph horiz-adv-x="1418" 
d="M171 1428q0 16 15 16h1046q15 0 15 -16v-1413q0 -15 -15 -15h-1046q-15 0 -15 15v1413zM354 398q0 -20 14 -31.5t31.5 -8.5t27.5 21l176 300q20 37 -1 74l-175 297q-15 27 -44 19t-29 -39v-632zM510 1201l155 -264q17 -29 45 -29t45 29l154 264q17 30 3 54.5t-48 24.5
h-309q-34 0 -48 -24.5t3 -54.5zM517 244q-18 -30 -3.5 -54.5t48.5 -24.5h296q34 0 48 24.5t-3 54.5l-149 252q-16 28 -43.5 28t-44.5 -28zM817 679l174 -298q10 -18 27.5 -21t31.5 8.5t14 31.5v628q0 20 -13.5 32t-31 9t-28.5 -21l-174 -295q-20 -36 0 -74z" />
    <glyph glyph-name=".notdef" horiz-adv-x="1418" 
d="M171 1428q0 16 15 16h1046q15 0 15 -16v-1413q0 -15 -15 -15h-1046q-15 0 -15 15v1413zM354 398q0 -20 14 -31.5t31.5 -8.5t27.5 21l176 300q20 37 -1 74l-175 297q-15 27 -44 19t-29 -39v-632zM510 1201l155 -264q17 -29 45 -29t45 29l154 264q17 30 3 54.5t-48 24.5
h-309q-34 0 -48 -24.5t3 -54.5zM517 244q-18 -30 -3.5 -54.5t48.5 -24.5h296q34 0 48 24.5t-3 54.5l-149 252q-16 28 -43.5 28t-44.5 -28zM817 679l174 -298q10 -18 27.5 -21t31.5 8.5t14 31.5v628q0 20 -13.5 32t-31 9t-28.5 -21l-174 -295q-20 -36 0 -74z" />
    <glyph glyph-name=".null" horiz-adv-x="0" 
 />
    <glyph glyph-name="nonmarkingreturn" horiz-adv-x="682" 
 />
    <glyph glyph-name="space" unicode=" " horiz-adv-x="491" 
 />
    <glyph glyph-name="exclam" unicode="!" horiz-adv-x="602" 
d="M412 457q0 -16 -16 -16h-191q-16 0 -16 16l-37 973q0 15 15 15h269q16 0 15 -15zM160 15v257q0 16 15 16h252q15 0 15 -16v-257q0 -15 -15 -15h-252q-15 0 -15 15z" />
    <glyph glyph-name="quotedbl" unicode="&#x22;" horiz-adv-x="897" 
d="M495 1428q-2 16 14 16h252q15 0 15 -16l-28 -525q-2 -14 -17 -14h-192q-16 0 -16 14zM122 1428q-2 16 14 16h252q15 0 15 -16l-28 -525q-2 -14 -17 -14h-192q-15 0 -15 14z" />
    <glyph glyph-name="numbersign" unicode="#" horiz-adv-x="1499" 
d="M597 1431q4 13 17 13h196q18 0 13 -18l-78 -262q-9 -32 4.5 -52t42.5 -20h153q50 0 62 46l85 293q3 13 17 13h197q18 0 13 -18l-74 -250q-10 -34 9.5 -59t54.5 -25h132q18 0 13 -18l-54 -181q-3 -13 -18 -13h-175q-50 0 -62 -47l-62 -208q-8 -33 7.5 -53.5t49.5 -20.5
h143q18 0 13 -17l-55 -183q-3 -12 -17 -12h-171q-54 0 -69 -51l-81 -275q-3 -13 -17 -13h-197q-18 0 -13 17l74 247q10 33 -3 54t-42 21h-154q-49 0 -63 -47l-84 -279q-3 -13 -17 -13h-196q-18 0 -13 17l72 240q10 34 -8.5 58t-52.5 24h-131q-18 0 -13 17l54 182q3 13 18 13
h172q48 0 62 47l63 208q9 32 -7 53t-50 21h-140q-18 0 -13 17l54 181q3 14 17 14h170q24 0 42.5 13t25.5 37zM586 620q-8 -30 5.5 -49.5t42.5 -19.5h157q44 0 56 43l63 217q8 30 -6 49.5t-45 19.5h-152q-46 0 -58 -43z" />
    <glyph glyph-name="dollar" unicode="$" horiz-adv-x="1334" 
d="M537 1666q0 15 15 15h225q16 0 16 -15v-141q0 -31 18.5 -49.5t66.5 -35.5q126 -41 217 -127.5t129 -200.5q6 -13 -11 -19l-217 -74q-13 -5 -18 10q-14 41 -38 77t-62 69t-95 52.5t-127 19.5q-116 0 -188.5 -52t-72.5 -135q0 -58 40 -98t112 -58l343 -82
q164 -39 264.5 -140t100.5 -259q0 -163 -100 -273.5t-268 -152.5q-94 -25 -94 -81v-162q0 -15 -16 -15h-225q-15 0 -15 15v157q0 35 -19 55t-68 35q-143 41 -237 139.5t-141 238.5q-5 14 9 19l225 68q17 4 21 -9q36 -115 126.5 -186.5t221.5 -71.5q127 0 211.5 58t84.5 149
q0 131 -170 173l-338 80q-174 41 -263 146.5t-89 249.5q0 140 92 244t244 147q90 27 90 82v138z" />
    <glyph glyph-name="percent" unicode="%" horiz-adv-x="1836" 
d="M1361 1444q18 0 11 -19l-637 -1410q-5 -11 -18 -11h-238q-8 0 -11.5 5.5t0.5 13.5l637 1410q4 11 18 11h238zM60 1061q0 200 88.5 307t253.5 107t254.5 -107.5t89.5 -306.5t-89.5 -307t-254.5 -108t-253.5 107.5t-88.5 307.5zM276 1061q0 -115 32 -174.5t94 -59.5
q127 0 127 234q0 230 -127 230q-126 0 -126 -230zM1091 386q0 200 88.5 307t253.5 107q166 0 255 -107.5t89 -306.5q0 -200 -89 -307.5t-255 -107.5q-164 0 -253 108t-89 307zM1308 386q0 -233 125 -233q62 0 95 59.5t33 173.5q0 113 -33 171.5t-95 58.5q-61 0 -93 -58.5
t-32 -171.5z" />
    <glyph glyph-name="ampersand" unicode="&#x26;" horiz-adv-x="1495" 
d="M221 1428q0 16 16 16h902q15 0 15 -16v-198q0 -16 -15 -16h-449q-45 0 -61.5 -34.5t11.5 -71.5l393 -526q22 -26 39 -26q19 0 33 34t14 85q0 14 17 14h223q15 0 15 -15q0 -166 -82 -320q-26 -52 -26 -60q0 -24 21 -50l183 -232q5 -8 2.5 -13t-11.5 -5l-285 -1
q-13 0 -22 10l-47 60q-26 34 -80 16q-13 -4 -49.5 -24t-73.5 -38t-103.5 -33t-140.5 -15q-159 0 -288.5 59t-206 170.5t-76.5 254.5q0 79 26 152.5t70 128.5t92.5 95.5t101.5 66.5q27 19 29.5 48.5t-24.5 65.5l-157 209q-6 9 -6 18v191zM376 472q0 -107 82.5 -189t215.5 -82
q125 0 198 65q23 15 27 39t-15 51l-260 344q-22 28 -53 28q-24 0 -56 -18.5t-63.5 -50t-53.5 -81.5t-22 -106z" />
    <glyph glyph-name="quotesingle" unicode="'" horiz-adv-x="524" 
d="M122 1428q-2 16 14 16h252q15 0 15 -16l-28 -525q-2 -14 -17 -14h-192q-15 0 -15 14z" />
    <glyph glyph-name="parenleft" unicode="(" horiz-adv-x="692" 
d="M97 662q0 -462 277 -840q6 -9 18 -9h232q9 0 12 5.5t-2 12.5q-134 210 -198.5 402.5t-64.5 428.5q0 234 64.5 425.5t198.5 403.5q5 7 2 12.5t-12 5.5h-232q-10 0 -18 -9q-277 -381 -277 -838z" />
    <glyph glyph-name="parenright" unicode=")" horiz-adv-x="692" 
d="M595 662q0 457 -277 838q-8 9 -18 9h-231q-9 0 -12.5 -5.5t1.5 -12.5q134 -212 199 -403.5t65 -425.5q0 -235 -65 -428t-199 -403q-4 -7 -1 -12.5t12 -5.5h231q12 0 18 9q277 378 277 840z" />
    <glyph glyph-name="asterisk" unicode="*" horiz-adv-x="844" 
d="M349 1428q0 16 16 16h115q16 0 16 -16v-102q0 -34 25 -49t54 3l90 51q13 8 20 -5l58 -101q7 -13 -5 -21l-88 -51q-30 -18 -30 -46t29 -46l89 -51q13 -8 5 -22l-58 -100q-8 -14 -20 -6l-90 51q-29 18 -54 3t-25 -49v-103q0 -15 -16 -15h-115q-16 0 -16 15v103q0 34 -25 49
t-55 -3l-89 -51q-12 -8 -20 6l-59 100q-8 14 5 22l90 51q30 18 30 46t-30 46l-90 51q-12 8 -5 21l59 101q7 13 20 5l89 -51q30 -18 55 -3t25 49v102z" />
    <glyph glyph-name="plus" unicode="+" horiz-adv-x="1085" 
d="M343 780q36 0 56.5 20.5t20.5 56.5v293q0 15 15 15h215q16 0 16 -15v-293q0 -36 20.5 -56.5t55.5 -20.5h267q15 0 15 -15v-184q0 -16 -15 -16h-267q-35 0 -55.5 -21t-20.5 -56v-298q0 -15 -16 -15h-215q-15 0 -15 15v298q0 35 -20.5 56t-56.5 21h-266q-16 0 -16 16v184
q0 6 4.5 10.5t11.5 4.5h266z" />
    <glyph glyph-name="comma" unicode="," horiz-adv-x="565" 
d="M158 293q1 14 16 14h259q18 0 13 -17l-148 -523q-4 -14 -16 -14h-191q-16 0 -13 17z" />
    <glyph glyph-name="hyphen" unicode="-" horiz-adv-x="855" 
d="M727 651q6 0 10.5 -4.5t4.5 -10.5v-220q0 -6 -4.5 -11t-10.5 -5h-599q-6 0 -10.5 5t-4.5 11v220q0 6 4.5 10.5t10.5 4.5h599z" />
    <glyph glyph-name="period" unicode="." horiz-adv-x="560" 
d="M132 292q0 15 15 15h267q15 0 15 -15v-277q0 -15 -15 -15h-267q-15 0 -15 15v277z" />
    <glyph glyph-name="slash" unicode="/" horiz-adv-x="1200" 
d="M1158 1444q9 0 12 -6t-2 -13l-833 -1414q-5 -11 -19 -11h-273q-9 0 -12 5t2 13l834 1416q6 10 19 10h272z" />
    <glyph glyph-name="zero" unicode="0" horiz-adv-x="1396" 
d="M698 1475q272 0 432.5 -202t160.5 -551q0 -348 -160.5 -550.5t-432.5 -202.5t-432.5 202.5t-160.5 550.5q0 349 160.5 551t432.5 202zM393 723q0 -262 75.5 -389t228.5 -127q307 0 307 516q0 514 -307 514q-153 0 -228.5 -126.5t-75.5 -387.5z" />
    <glyph glyph-name="one" unicode="1" horiz-adv-x="833" 
d="M658 15q0 -15 -15 -15h-251q-15 0 -15 15v833q0 32 -21 53t-53 21h-237q-16 0 -16 15v185q0 16 16 16q192 1 273.5 66.5t82.5 225.5q0 14 15 14h206q15 0 15 -16v-1413z" />
    <glyph glyph-name="two" unicode="2" horiz-adv-x="1272" 
d="M591 685q42 24 65 38t58 37.5t55 41t43.5 43.5t36 50t21 55t8.5 65q0 100 -69.5 162t-175.5 62q-108 0 -182 -62t-96 -162q-3 -14 -18 -11l-231 51q-14 3 -11 18q19 83 60.5 153t107 127t162.5 89.5t217 32.5q232 0 375.5 -121.5t143.5 -329.5q0 -76 -21 -142.5
t-52 -113.5t-81.5 -93t-93 -74.5t-102.5 -63.5q-287 -167 -287 -249q0 -22 15 -36.5t38 -14.5h560q15 0 15 -16v-206q0 -15 -15 -15h-1033q-15 0 -15 22q1 99 34 189.5t79 155t119 128.5t131 103t139 87z" />
    <glyph glyph-name="three" unicode="3" horiz-adv-x="1309" 
d="M649 -31q-241 0 -385.5 118.5t-187.5 313.5q-3 16 12 19l230 49q15 3 18 -13q27 -119 108 -184t200 -65q120 0 199 57.5t79 158.5q0 100 -78.5 158.5t-205.5 58.5h-117q-15 0 -15 15v182q0 15 15 15h100q117 0 187 50t70 146q0 88 -69.5 140t-172.5 52
q-107 0 -180.5 -60.5t-93.5 -144.5q-3 -13 -17 -10l-225 51q-15 3 -11 19q18 77 59 143.5t105 120.5t160 85t212 31q222 0 369 -112t147 -296q0 -67 -31.5 -132.5t-94.5 -114.5q-27 -21 -25.5 -53.5t32.5 -51.5q165 -101 165 -305q0 -104 -45.5 -188.5t-123 -139t-177.5 -84
t-212 -29.5z" />
    <glyph glyph-name="four" unicode="4" horiz-adv-x="1321" 
d="M781 0q-15 0 -15 15v221q0 33 -19.5 50.5t-53.5 17.5h-610q-15 0 -15 15v232q0 10 6 19l616 865q6 9 19 9h303q15 0 15 -16l1 -830q0 -32 18 -50t50 -18h137q15 0 15 -15v-196q0 -15 -15 -15h-137q-69 0 -69 -68v-221q0 -15 -15 -15h-231zM383 609q-20 -29 -6 -54t47 -25
h289q23 0 38.5 14.5t15.5 36.5l-1 416q0 36 -32 46t-54 -21z" />
    <glyph glyph-name="five" unicode="5" horiz-adv-x="1282" 
d="M636 -31q-227 0 -365.5 103.5t-182.5 283.5q-3 16 11 19l230 48q14 3 17 -11q20 -91 89.5 -147.5t191.5 -56.5q126 0 200.5 74.5t74.5 204.5q0 129 -72.5 204.5t-196.5 75.5q-56 0 -101 -14t-70.5 -33.5t-44.5 -39t-32 -32.5t-23 -11l-228 33q-15 2 -13 17l119 743
q1 14 15 14h831q16 0 16 -16v-204q0 -16 -16 -16h-585q-47 0 -55 -42l-28 -168q-4 -24 10 -39t36 -15q12 0 44 10.5t81.5 21t106.5 10.5q217 0 356 -141t139 -359q0 -234 -154.5 -375.5t-400.5 -141.5z" />
    <glyph glyph-name="six" unicode="6" horiz-adv-x="1342" 
d="M708 -30q-153 0 -269.5 57t-188 159.5t-107.5 238t-38 300.5q-1 126 20.5 236.5t69 205.5t117.5 163t171 106.5t225 38.5q94 0 174.5 -23t138.5 -63t99 -85t72 -99q8 -13 -6 -21l-195 -106q-13 -7 -21 7q-35 66 -100 112t-156 46q-72 0 -128.5 -26t-89.5 -69.5
t-49.5 -95.5t-16.5 -109q0 -25 15.5 -39t41.5 -14q11 0 46.5 17t92.5 33.5t120 16.5q212 0 355 -133.5t144 -348.5q1 -222 -152 -363.5t-385 -141.5zM423 473q0 -121 77.5 -196t198.5 -75q117 0 189.5 74t72.5 196q0 121 -74 194.5t-191 73.5q-123 0 -198 -72.5t-75 -194.5z
" />
    <glyph glyph-name="seven" unicode="7" horiz-adv-x="1099" 
d="M49 1430q0 15 16 15h962q15 0 15 -15v-213q0 -11 -4 -20l-524 -1186q-5 -11 -17 -11h-276q-18 0 -11 18l489 1074q19 40 -1.5 71.5t-63.5 31.5h-569q-16 0 -16 15v220z" />
    <glyph glyph-name="eight" unicode="8" horiz-adv-x="1350" 
d="M680 -31q-114 0 -216 27.5t-185 80.5t-132 141.5t-49 200.5q0 206 175 311q27 17 30 50t-25 55q-114 82 -114 245q0 180 146 287.5t366 107.5q102 0 193.5 -26t163 -74.5t113 -124.5t41.5 -170q0 -163 -116 -247q-28 -23 -25 -54.5t29 -46.5q78 -46 127 -124t49 -189
q0 -92 -31.5 -167.5t-85 -127t-127 -87.5t-155.5 -52t-172 -16zM386 432q0 -112 79 -171t213 -59q129 0 207 60.5t78 169.5q0 113 -78 174.5t-210 61.5q-131 0 -210 -62t-79 -174zM443 1067q0 -90 64 -142.5t168 -52.5q103 0 167 52.5t64 142.5q0 89 -63 138.5t-168 49.5
t-168.5 -49.5t-63.5 -138.5z" />
    <glyph glyph-name="nine" unicode="9" horiz-adv-x="1341" 
d="M634 1474q123 0 222.5 -37.5t169 -104t117 -161.5t70 -208t23.5 -244q1 -126 -20.5 -236.5t-69 -205.5t-117 -163t-170.5 -106.5t-225 -38.5q-94 0 -174.5 23t-138.5 63t-99 85t-72 99q-8 13 6 21l194 106q14 7 22 -8q35 -66 100 -111.5t156 -45.5q72 0 128.5 26t89 69.5
t49 95.5t16.5 109q0 25 -15.5 39t-41.5 14q-11 0 -46.5 -17t-92.5 -34t-120 -17q-212 0 -355 134t-144 349q0 147 70 262.5t193 179t275 63.5zM381 972q0 -121 73.5 -195t190.5 -74q123 0 198.5 73t75.5 195q0 121 -78 196t-199 75q-117 0 -189 -74t-72 -196z" />
    <glyph glyph-name="colon" unicode=":" horiz-adv-x="561" 
d="M133 1029q0 15 15 15h267q15 0 15 -15v-276q0 -16 -15 -16h-267q-15 0 -15 16v276zM133 15v277q0 15 15 15h267q15 0 15 -15v-277q0 -15 -15 -15h-267q-15 0 -15 15z" />
    <glyph glyph-name="semicolon" unicode=";" horiz-adv-x="612" 
d="M176 293q1 14 17 14h259q18 0 13 -17l-149 -523q-4 -14 -16 -14h-190q-17 0 -14 17zM174 753v276q0 15 15 15h267q15 0 15 -15v-276q0 -16 -15 -16h-267q-15 0 -15 16z" />
    <glyph glyph-name="less" unicode="&#x3c;" horiz-adv-x="1085" 
d="M121 748q0 13 11 17l800 341q18 8 18 -11v-200q0 -13 -12 -18l-421 -167q-47 -20 -46.5 -65.5t47.5 -64.5l420 -164q12 -4 12 -19v-199q0 -9 -4.5 -13t-12.5 0l-801 339q-11 6 -11 19v205z" />
    <glyph glyph-name="equal" unicode="=" horiz-adv-x="1085" 
d="M1009 563q15 0 15 -15v-184q0 -16 -15 -16h-932q-16 0 -16 16v184q0 15 16 15h932zM61 795v184q0 15 16 15h932q15 0 15 -15v-184q0 -16 -15 -16h-932q-16 0 -16 16z" />
    <glyph glyph-name="greater" unicode="&#x3e;" horiz-adv-x="1085" 
d="M965 543q0 -13 -12 -19l-800 -339q-8 -4 -13 0t-5 13v199q0 15 12 19l420 164q47 19 47.5 64.5t-46.5 65.5l-421 167q-12 5 -12 18v200q0 8 5.5 11.5t13.5 -0.5l799 -341q12 -5 12 -17v-205z" />
    <glyph glyph-name="question" unicode="?" horiz-adv-x="1108" 
d="M409 452q-16 0 -16 15l1 11q4 123 55.5 208.5t163.5 171.5q51 40 78.5 65t52.5 66t25 83q1 74 -62 123.5t-159 49.5q-103 0 -170.5 -62.5t-89.5 -156.5q-3 -14 -19 -10l-222 50q-14 3 -11 19q18 77 59 145t104.5 124t157 88.5t204.5 32.5q218 0 354.5 -113t136.5 -282
q0 -102 -56 -185t-167 -165q-100 -75 -131.5 -129t-42.5 -136q-2 -13 -14 -13h-232zM380 15v251q0 16 15 16h255q16 0 16 -16v-251q0 -15 -16 -15h-255q-15 0 -15 15z" />
    <glyph glyph-name="at" unicode="@" horiz-adv-x="1926" 
d="M860 108q-156 0 -245 106t-89 274q0 137 49.5 248t142 175.5t210.5 64.5q55 0 99 -12t70.5 -24t38.5 -12q14 0 46 19t51 19h150q7 0 12 -5t4 -13l-64 -535q-9 -73 13 -116t78 -43q102 0 160.5 101t58.5 269q0 156 -49.5 276t-138.5 194.5t-207.5 112.5t-261.5 38
q-118 0 -225.5 -32t-196 -95t-153.5 -151t-101 -206t-36 -253q0 -147 43.5 -268.5t126 -208.5t207.5 -135.5t282 -48.5q191 0 372 71q15 5 21 -9l45 -119q6 -12 -7 -19q-190 -87 -428 -87q-185 0 -342.5 59t-269.5 165.5t-175 261t-63 338.5q0 201 73 372.5t196 286.5
t286.5 179.5t344.5 64.5q132 0 256 -32.5t230.5 -98t185.5 -158t124.5 -220.5t45.5 -277q0 -237 -114 -381.5t-303 -144.5q-61 0 -112.5 11.5t-78.5 26t-52.5 26t-40.5 11.5q-16 0 -50.5 -16.5t-91 -33t-127.5 -16.5zM761 493q0 -95 38 -154t117 -59q73 0 123.5 44.5
t73.5 113.5t23 156q0 97 -41.5 154.5t-125.5 57.5q-69 0 -117.5 -45t-69.5 -114t-21 -154z" />
    <glyph glyph-name="A" unicode="A" horiz-adv-x="1472" 
d="M906 1444q14 0 18 -12l520 -1415q5 -17 -12 -17h-263q-13 0 -17 12l-97 275q-16 52 -75 52h-487q-59 0 -74 -52l-97 -275q-4 -12 -19 -12h-261q-19 0 -12 17l519 1415q4 12 18 12h339zM538 631q-9 -32 8.5 -55.5t51.5 -23.5h276q34 0 52.5 23.5t8.5 55.5l-145 425
q-8 25 -31 35t-46 0t-30 -35z" />
    <glyph glyph-name="B" unicode="B" horiz-adv-x="1419" 
d="M804 1444q218 0 343.5 -99t125.5 -287q0 -72 -29 -137t-85 -110q-25 -22 -23 -53t28 -49q74 -51 114.5 -126t40.5 -166q0 -205 -137.5 -311t-370.5 -106h-625q-6 0 -10.5 4.5t-4.5 10.5v1413q0 6 4.5 11t10.5 5h618zM447 296q0 -29 19.5 -48.5t48.5 -19.5h281
q112 0 174.5 53t62.5 156q0 100 -63.5 151.5t-173.5 51.5h-281q-29 0 -48.5 -19.5t-19.5 -48.5v-276zM447 919q0 -29 19.5 -48.5t48.5 -19.5h251q107 0 165 46t58 138q0 90 -58 135t-164 45h-252q-29 0 -48.5 -19t-19.5 -48v-229z" />
    <glyph glyph-name="C" unicode="C" horiz-adv-x="1536" 
d="M1207 539q5 17 21 12l226 -67q16 -5 11 -17q-23 -80 -60.5 -151.5t-95 -135.5t-129.5 -110.5t-169 -73.5t-208 -27q-321 0 -514.5 206.5t-193.5 546.5q0 224 88 395t249.5 264.5t372.5 93.5q130 0 240 -34t188 -93.5t131 -134t81 -162.5q5 -14 -10 -19l-224 -71
q-14 -5 -19 9q-15 47 -43.5 91.5t-73.5 86.5t-114 67t-152 25q-203 0 -313 -134t-110 -383q0 -250 109.5 -384t312.5 -134q70 0 130 19.5t102 50.5t76 75.5t55 90.5t36 98z" />
    <glyph glyph-name="D" unicode="D" horiz-adv-x="1538" 
d="M186 0q-6 0 -10.5 4.5t-4.5 10.5v1413q0 6 4.5 11t10.5 5h546q336 0 523 -190t187 -527q0 -336 -188.5 -531.5t-517.5 -195.5h-550zM453 310q0 -32 20.5 -52.5t52.5 -20.5h199q202 0 311.5 127t109.5 361q0 231 -109.5 356.5t-311.5 125.5h-199q-32 0 -52.5 -20.5
t-20.5 -52.5v-824z" />
    <glyph glyph-name="E" unicode="E" horiz-adv-x="1313" 
d="M522 627q-28 0 -46.5 -19t-18.5 -47v-259q0 -28 18.5 -46.5t46.5 -18.5h676q15 0 15 -16v-206q0 -15 -15 -15h-1012q-6 0 -10.5 4.5t-4.5 10.5v1413q0 7 4.5 11.5t10.5 4.5h995q6 0 10.5 -4.5t4.5 -11.5v-205q0 -7 -4.5 -11.5t-10.5 -4.5h-668q-26 0 -43 -17t-17 -43
v-227q0 -26 17 -43t43 -17h590q15 0 15 -15v-205q0 -13 -15 -13h-581z" />
    <glyph glyph-name="F" unicode="F" horiz-adv-x="1231" 
d="M526 601q-32 0 -52.5 -20.5t-20.5 -52.5v-513q0 -6 -5 -10.5t-11 -4.5h-251q-6 0 -10.5 4.5t-4.5 10.5v1413q0 7 4.5 11.5t10.5 4.5h967q6 0 10.5 -4.5t4.5 -11.5v-205q0 -7 -4.5 -11.5t-10.5 -4.5h-634q-29 0 -47.5 -18.5t-18.5 -46.5v-242q0 -28 18.5 -46.5t47.5 -18.5
h556q7 0 11.5 -5t4.5 -11v-203q0 -6 -4.5 -10.5t-11.5 -4.5h-549z" />
    <glyph glyph-name="G" unicode="G" horiz-adv-x="1594" 
d="M777 -31q-196 0 -351 93.5t-243 265.5t-88 394q0 339 195.5 546t518.5 207q122 0 227 -31t182 -86t132.5 -123t90.5 -150q6 -14 -9 -21l-220 -83q-15 -7 -20 9q-18 47 -44.5 87.5t-70 79t-110.5 61t-150 22.5q-198 0 -314 -135.5t-116 -382.5q0 -244 111.5 -380.5
t316.5 -136.5q90 0 163 27.5t116 71t65.5 93t22.5 98.5q0 26 -17 43.5t-43 17.5h-344q-15 0 -15 15v196q0 15 15 15h676q15 0 15 -15v-752q0 -15 -15 -15h-175q-15 0 -25 12l-35 43q-18 21 -45 25.5t-55 -12.5q-147 -99 -342 -99z" />
    <glyph glyph-name="H" unicode="H" horiz-adv-x="1558" 
d="M1035 863q30 0 50.5 20t20.5 51v494q0 6 4.5 11t10.5 5l251 1q6 0 11 -4.5t5 -10.5v-1415q0 -6 -5 -10.5t-11 -4.5h-251q-6 0 -10.5 4.5t-4.5 10.5v541q0 30 -20.5 50.5t-50.5 20.5h-512q-30 0 -50 -20.5t-20 -50.5v-541q0 -6 -5 -10.5t-11 -4.5h-251q-6 0 -10.5 4.5
t-4.5 10.5v1413q0 6 4.5 11t10.5 5h251q6 0 11 -5t5 -11v-494q0 -31 20 -51t50 -20h512z" />
    <glyph glyph-name="I" unicode="I" horiz-adv-x="623" 
d="M171 1428q0 6 4.5 11t10.5 5h251q6 0 11 -5t5 -11v-1413q0 -6 -5 -10.5t-11 -4.5h-251q-6 0 -10.5 4.5t-4.5 10.5v1413z" />
    <glyph glyph-name="J" unicode="J" horiz-adv-x="1223" 
d="M55 582q0 6 5 10.5t11 4.5h245q6 0 11 -4.5t5 -10.5v-77q0 -153 55.5 -227t170.5 -74t170.5 74t55.5 227v923q0 7 5 11.5t11 4.5h251q15 0 15 -16v-929q0 -254 -131.5 -392t-374.5 -138t-374 138t-131 392v83z" />
    <glyph glyph-name="K" unicode="K" horiz-adv-x="1415" 
d="M759 798q-25 -26 -24.5 -57t25.5 -57l661 -664q6 -6 3 -13t-11 -7h-341q-12 0 -21 10l-499 517q-30 31 -64.5 17.5t-34.5 -57.5v-472q0 -15 -16 -15h-251q-15 0 -15 15v1413q0 16 15 16h251q16 0 16 -16v-439q0 -45 35 -58.5t66 19.5l454 484q10 10 22 10h328q8 0 11 -7
t-3 -13z" />
    <glyph glyph-name="L" unicode="L" horiz-adv-x="1199" 
d="M437 1444q16 0 16 -16v-1119q0 -31 20.5 -51.5t51.5 -20.5h620q15 0 15 -16v-206q0 -15 -15 -15h-959q-15 0 -15 15v1413q0 16 15 16h251z" />
    <glyph glyph-name="M" unicode="M" horiz-adv-x="1915" 
d="M1317 1432q4 12 17 12h396q15 0 15 -16v-1413q0 -15 -15 -15h-240q-15 0 -15 15v848q0 23 -16.5 35.5t-35 6t-25.5 -28.5l-277 -863q-3 -13 -16 -13h-295q-13 0 -16 13l-275 861q-7 22 -25.5 28.5t-35 -5.5t-16.5 -35v-847q0 -15 -15 -15h-241q-15 0 -15 15v1413
q0 16 15 16h396q14 0 17 -12l315 -1016q10 -34 43 -34t43 34z" />
    <glyph glyph-name="N" unicode="N" horiz-adv-x="1622" 
d="M171 1428q0 16 15 16h311q12 0 18 -10l571 -920q20 -31 54.5 -21t34.5 47v888q0 16 15 16h245q16 0 16 -16v-1413q0 -15 -16 -15h-311q-12 0 -18 10l-570 920q-20 31 -54.5 21.5t-34.5 -46.5v-890q0 -15 -15 -15h-246q-15 0 -15 15v1413z" />
    <glyph glyph-name="O" unicode="O" horiz-adv-x="1629" 
d="M816 1475q323 0 521 -207t198 -546t-198 -546t-521 -207q-214 0 -378 93.5t-254 264.5t-90 395t90 395t254 264.5t378 93.5zM390 723q0 -249 110.5 -383.5t314.5 -134.5t314 134t110 384q0 249 -110 383t-314 134t-314.5 -134t-110.5 -383z" />
    <glyph glyph-name="P" unicode="P" horiz-adv-x="1325" 
d="M171 1428q0 6 4.5 11t10.5 5h578q236 0 369.5 -118t133.5 -334q0 -217 -133.5 -336t-368.5 -119h-239q-32 0 -52.5 -20.5t-20.5 -52.5v-449q0 -6 -5 -10.5t-11 -4.5h-251q-6 0 -10.5 4.5t-4.5 10.5v1413zM451 842q0 -32 20.5 -53t51.5 -21h205q121 0 185 57.5t64 169.5
q0 107 -65 163.5t-187 56.5h-202q-31 0 -51.5 -20.5t-20.5 -52.5v-300z" />
    <glyph glyph-name="Q" unicode="Q" horiz-adv-x="1629" 
d="M1535 722q0 -273 -134 -463q-32 -56 13 -95l123 -110q11 -11 1 -22l-160 -173q-12 -11 -22 -1l-165 149q-38 35 -91 18q-130 -56 -284 -56q-214 0 -378 93.5t-254 264.5t-90 395t90 395t254 264.5t378 93.5q323 0 521 -207t198 -546zM390 723q0 -249 110.5 -383.5
t314.5 -134.5t314 134t110 384q0 249 -110 383t-314 134t-314.5 -134t-110.5 -383z" />
    <glyph glyph-name="R" unicode="R" horiz-adv-x="1409" 
d="M890 621q-31 -8 -37.5 -34t14.5 -48l518 -521q5 -5 2.5 -11.5t-10.5 -6.5h-336q-11 0 -20 10l-479 510q-25 26 -46 26h-1q-19 0 -31.5 -13.5t-12.5 -34.5v-483q0 -15 -16 -15h-249q-15 0 -15 15v1413q0 16 15 16h607q224 0 354 -114.5t130 -308.5q0 -156 -90.5 -258.5
t-241.5 -130.5zM451 871q0 -32 18.5 -50.5t50.5 -18.5h247q106 0 163 54.5t57 156.5q0 100 -57 154t-163 54h-247q-32 0 -50.5 -19t-18.5 -51v-280z" />
    <glyph glyph-name="S" unicode="S" horiz-adv-x="1346" 
d="M672 -31q-121 0 -221 30t-172 86t-122 129t-81 165q-5 14 9 19l225 68q17 4 21 -9q37 -116 125.5 -187t221.5 -71q125 0 211 54.5t86 152.5q0 130 -163 171l-338 80q-177 42 -268 147.5t-91 247.5q0 126 75 224t199.5 149t275.5 51q211 0 358.5 -100t204.5 -264
q5 -14 -10 -19l-218 -74q-14 -5 -19 10q-31 91 -108 154.5t-205 63.5q-116 0 -192.5 -52.5t-76.5 -134.5q0 -59 43 -99.5t116 -58.5l343 -82q160 -38 259.5 -138.5t99.5 -258.5q0 -105 -46 -191.5t-126 -143.5t-187 -88t-229 -31z" />
    <glyph glyph-name="T" unicode="T" horiz-adv-x="1286" 
d="M41 1428q0 6 4.5 11t10.5 5l1175 1q6 0 10.5 -4.5t4.5 -10.5v-206q0 -6 -4.5 -11t-10.5 -5h-373q-32 0 -53 -21t-21 -52v-1120q0 -6 -4.5 -10.5t-10.5 -4.5h-251q-6 0 -10.5 4.5t-4.5 10.5v1119q0 31 -21 52t-53 21h-373q-6 0 -10.5 5t-4.5 11v205z" />
    <glyph glyph-name="U" unicode="U" horiz-adv-x="1471" 
d="M735 -31q-275 0 -426.5 144.5t-151.5 410.5v904q0 16 15 16h251q6 0 10.5 -4.5t4.5 -11.5v-897q0 -160 76.5 -243t220.5 -83t221.5 83t77.5 243v897q0 16 16 16h250q6 0 11 -4.5t5 -11.5v-904q0 -265 -152.5 -410t-428.5 -145z" />
    <glyph glyph-name="V" unicode="V" horiz-adv-x="1398" 
d="M635 508q10 -31 37.5 -43t55 0t37.5 43l305 924q4 12 17 12h266q19 0 12 -18l-494 -1414q-4 -12 -17 -12h-309q-14 0 -18 12l-493 1414q-5 18 12 18h265q15 0 18 -12z" />
    <glyph glyph-name="W" unicode="W" horiz-adv-x="2075" 
d="M1172 1445q15 0 18 -13l245 -880q7 -25 28 -34t42 1t27 35l200 878q3 13 17 13h260q17 0 13 -18l-358 -1414q-3 -13 -16 -13h-294q-15 0 -18 13l-252 902q-10 36 -46 36t-46 -36l-253 -902q-3 -13 -16 -13h-296q-13 0 -16 13l-357 1414q-2 8 2.5 13t11.5 5h260
q14 0 17 -13l200 -877q6 -25 27 -35.5t42 -1t28 34.5l245 879q3 13 16 13h269z" />
    <glyph glyph-name="X" unicode="X" horiz-adv-x="1393" 
d="M906 790q-37 -53 1 -106l464 -666q11 -18 -9 -18h-302q-12 0 -19 10l-281 426q-24 36 -62.5 36t-62.5 -36l-282 -426q-7 -10 -19 -10h-302q-20 0 -9 18l463 666q38 53 1 106l-435 635q-5 8 -2 13.5t12 5.5h303q12 0 18 -10l252 -397q24 -37 62 -37t62 37l253 397
q6 10 18 10h302q9 0 11.5 -5.5t-2.5 -13.5z" />
    <glyph glyph-name="Y" unicode="Y" horiz-adv-x="1347" 
d="M610 924q24 -43 64.5 -43t63.5 43l278 510q6 10 18 10h281q9 0 12 -5.5t-1 -13.5l-491 -842q-21 -36 -21 -74v-494q0 -15 -15 -15h-251q-16 0 -16 15v494q0 41 -19 74l-491 842q-10 19 10 19h281q14 0 19 -10z" />
    <glyph glyph-name="Z" unicode="Z" horiz-adv-x="1299" 
d="M1217 15q0 -15 -16 -15h-1105q-15 0 -15 15v185q0 13 9 27l648 862q33 43 14.5 80.5t-70.5 37.5h-559q-15 0 -15 16v205q0 16 15 16h1057q15 0 15 -16v-188q0 -15 -10 -28l-643 -857q-32 -43 -13 -80.5t70 -37.5h602q16 0 16 -16v-206z" />
    <glyph glyph-name="bracketleft" unicode="[" horiz-adv-x="788" 
d="M698 29q16 0 16 -16v-186q0 -15 -16 -15h-515q-15 0 -15 15v1667q0 15 15 15h515q16 0 16 -15v-186q0 -16 -16 -16h-192q-32 0 -52.5 -20.5t-20.5 -52.5v-1118q0 -31 20.5 -51.5t52.5 -20.5h192z" />
    <glyph glyph-name="backslash" unicode="\" horiz-adv-x="1200" 
d="M314 1444q13 0 19 -10l834 -1416q5 -8 2 -13t-12 -5h-273q-14 0 -19 11l-833 1414q-5 7 -2 13t12 6h272z" />
    <glyph glyph-name="bracketright" unicode="]" horiz-adv-x="788" 
d="M283 29q31 0 51.5 20.5t20.5 51.5v1118q0 32 -20 52.5t-52 20.5h-193q-15 0 -15 16v186q0 15 15 15h515q16 0 16 -15v-1667q0 -15 -16 -15h-515q-15 0 -15 15v186q0 16 15 16h193z" />
    <glyph glyph-name="asciicircum" unicode="^" horiz-adv-x="1085" 
d="M601 1116q-21 34 -58.5 34t-58.5 -34l-241 -395q-6 -10 -19 -10h-217q-9 0 -12 5.5t2 12.5l438 705q6 10 19 10h177q12 0 18 -10l438 -705q5 -7 2 -12.5t-12 -5.5h-217q-12 0 -18 10z" />
    <glyph glyph-name="underscore" unicode="_" horiz-adv-x="1335" 
d="M1210 -89q6 0 11 -4.5t5 -10.5v-202q0 -6 -5 -11t-11 -5h-1084q-6 0 -10.5 5t-4.5 11v202q0 6 4.5 10.5t10.5 4.5h1084z" />
    <glyph glyph-name="grave" unicode="`" horiz-adv-x="566" 
d="M344 1444q13 0 18 -9l169 -238q5 -7 2.5 -12.5t-11.5 -5.5h-225q-12 0 -19 7l-236 239q-7 7 -4.5 13t12.5 6h294z" />
    <glyph glyph-name="a" unicode="a" horiz-adv-x="1167" 
d="M578 1075q207 0 327.5 -103.5t121.5 -292.5l2 -664q0 -15 -15 -15h-185q-19 0 -28 13l-16 20q-19 24 -46.5 26.5t-52.5 -16.5q-100 -74 -241 -74q-95 0 -174.5 36t-131 111.5t-51.5 176.5q0 269 372 328l224 37q66 10 66 76v1q0 50 -47 92t-133 42q-161 0 -211 -140
q-5 -14 -20 -9l-206 75q-16 6 -9 20q49 115 165 187.5t289 72.5zM365 299q0 -59 47.5 -95.5t121.5 -36.5q99 0 162.5 64.5t63.5 158.5v38q0 31 -20.5 47t-53.5 9l-159 -34q-77 -17 -119.5 -56t-42.5 -95z" />
    <glyph glyph-name="b" unicode="b" horiz-adv-x="1304" 
d="M751 1075q206 0 336.5 -156t130.5 -399q0 -240 -129.5 -395.5t-337.5 -155.5q-145 0 -252 86q-26 20 -54.5 16.5t-46.5 -29.5l-19 -30q-8 -12 -26 -12h-186q-6 0 -10.5 4.5t-4.5 10.5v1413q0 6 4.5 11t10.5 5h247q6 0 10.5 -5t4.5 -11l-1 -371q0 -38 31 -52t65 5
q34 20 56 31t69.5 22.5t101.5 11.5zM426 523q0 -163 66 -251t187 -88t186.5 88t65.5 251q0 162 -65.5 250t-186.5 88t-187 -88t-66 -250z" />
    <glyph glyph-name="c" unicode="c" horiz-adv-x="1168" 
d="M1097 309q-17 -49 -42.5 -94.5t-67 -91t-92.5 -79t-123 -54.5t-154 -21q-235 0 -383.5 152.5t-148.5 400.5t148.5 400.5t383.5 152.5q174 0 296 -86t173 -229q5 -15 -10 -20l-197 -65q-15 -6 -20 9q-65 177 -235 177q-123 0 -187.5 -88.5t-64.5 -250.5
q0 -161 64.5 -249.5t187.5 -88.5q54 0 97 18t71 50t45.5 63.5t31.5 71.5q5 14 20 9l197 -66q15 -5 10 -21z" />
    <glyph glyph-name="d" unicode="d" horiz-adv-x="1304" 
d="M554 1075q54 0 101 -11.5t69 -22.5t56 -31q34 -19 65.5 -5t31.5 52l-1 371q0 6 4.5 11t10.5 5h247q6 0 10.5 -5t4.5 -11v-1413q0 -6 -4.5 -10.5t-10.5 -4.5h-187q-17 0 -25 12l-20 30q-18 26 -46 29.5t-54 -16.5q-107 -86 -252 -86q-208 0 -337.5 155.5t-129.5 395.5
q0 243 130.5 399t336.5 156zM374 523q0 -163 65.5 -251t186.5 -88t187 88t66 251q0 162 -66 250t-187 88t-186.5 -88t-65.5 -250z" />
    <glyph glyph-name="e" unicode="e" horiz-adv-x="1202" 
d="M1122 479q0 -6 -4.5 -10.5t-10.5 -4.5h-675q-24 0 -37 -15t-13 -37q0 -93 67 -161.5t178 -68.5q155 0 249 147q9 14 21 5l166 -110q13 -9 5 -21q-66 -102 -177.5 -168t-275.5 -66q-241 0 -384.5 151.5t-143.5 402.5q0 247 144.5 399.5t376.5 152.5q230 0 372 -149.5
t142 -385.5v-61zM400 694q0 -20 13 -33t36 -13h326q22 0 34.5 13t12.5 33q0 78 -58.5 131t-152.5 53q-93 0 -152 -53t-59 -131z" />
    <glyph glyph-name="f" unicode="f" horiz-adv-x="852" 
d="M262 1154q0 141 83 215.5t243 74.5h186q14 0 14 -16v-188q0 -15 -15 -15h-130q-108 0 -108 -102v-32q0 -20 13.5 -33.5t35.5 -13.5h216q15 0 15 -15v-189q0 -16 -15 -16h-204q-27 0 -44 -17t-17 -44v-748q0 -6 -5 -10.5t-11 -4.5h-246q-15 0 -15 15v748q0 27 -17 44
t-44 17h-132q-7 0 -11.5 5t-4.5 11v189q0 15 16 15h133q29 0 46.5 17t17.5 46v47z" />
    <glyph glyph-name="g" unicode="g" horiz-adv-x="1183" 
d="M105 719q1 157 133.5 256.5t328.5 99.5q59 0 109 -9q71 -9 99 53q52 163 271 162l55 -1q6 0 10.5 -4.5t4.5 -10.5l-1 -182q0 -6 -4.5 -10.5t-10.5 -4.5h-50q-59 1 -88.5 -23t-29.5 -62q0 -26 24 -62q72 -86 72 -202q-1 -162 -130.5 -259.5t-330.5 -97.5q-50 0 -94.5 6.5
t-51.5 6.5q-23 0 -43 -22.5t-21 -52.5q-1 -38 27.5 -60.5t82.5 -22.5h324q165 0 260 -69t95 -197q0 -166 -152.5 -266t-430.5 -100q-246 0 -378.5 79t-132.5 209q0 105 88 180q34 37 14 92q-30 55 -30 105q0 82 64 149q18 24 17.5 54t-18.5 52q-83 89 -82 214zM294 -86
q0 -64 69.5 -102.5t200.5 -38.5q144 0 222 40.5t78 103.5q0 41 -36.5 65.5t-98.5 24.5h-321q-48 0 -81 -25.5t-33 -67.5zM376 718q-1 -78 52 -123.5t139 -45.5q87 0 139.5 45.5t52.5 123.5q0 77 -53.5 123t-138.5 46t-138 -46t-53 -123z" />
    <glyph glyph-name="h" unicode="h" horiz-adv-x="1258" 
d="M1117 15q0 -6 -4.5 -10.5t-10.5 -4.5h-246q-6 0 -10.5 4.5t-4.5 10.5v630q0 105 -47 160.5t-135 55.5q-96 0 -163.5 -69.5t-67.5 -209.5v-567q0 -6 -4.5 -10.5t-10.5 -4.5h-246q-6 0 -10.5 4.5t-4.5 10.5v1413q0 6 4.5 11t10.5 5h246q6 0 10.5 -5t4.5 -11v-373
q0 -24 16 -40t41 -16q15 0 40 12t51.5 26t75 26t105.5 12q173 0 266.5 -102t93.5 -274v-684z" />
    <glyph glyph-name="i" unicode="i" horiz-adv-x="579" 
d="M152 1029q0 6 4.5 10.5t10.5 4.5h246q6 0 10.5 -4.5t4.5 -10.5v-1014q0 -6 -4.5 -10.5t-10.5 -4.5h-246q-6 0 -10.5 4.5t-4.5 10.5v1014zM144 1207v237q0 6 5 10.5t11 4.5h260q6 0 10.5 -4.5t4.5 -10.5v-237q0 -6 -4.5 -10.5t-10.5 -4.5h-260q-6 0 -11 4.5t-5 10.5z" />
    <glyph glyph-name="j" unicode="j" horiz-adv-x="579" 
d="M428 -84q0 -155 -83.5 -235t-246.5 -80h-171q-14 2 -14 15v202q0 15 15 15h110q114 -1 114 105v1091q0 15 15 15h246q15 0 15 -15v-1113zM144 1207v237q0 6 5 10.5t11 4.5h261q6 0 10.5 -4.5t4.5 -10.5v-237q0 -6 -4.5 -10.5t-10.5 -4.5h-261q-6 0 -11 4.5t-5 10.5z" />
    <glyph glyph-name="k" unicode="k" horiz-adv-x="1210" 
d="M428 15q0 -6 -4.5 -10.5t-10.5 -4.5h-246q-6 0 -10.5 4.5t-4.5 10.5v1413q0 7 4.5 11.5t10.5 4.5h246q6 0 10.5 -4.5t4.5 -11.5v-617q0 -46 37 -61t69 19l264 265q9 10 23 10h308q8 0 11.5 -7t-2.5 -13l-412 -408q-24 -24 -24 -54.5t24 -54.5l496 -487q6 -6 2 -13t-12 -7
h-323q-14 0 -24 10l-330 339q-32 34 -69.5 19.5t-37.5 -61.5v-292z" />
    <glyph glyph-name="l" unicode="l" horiz-adv-x="579" 
d="M152 1428q0 6 4.5 11t10.5 5h246q6 0 10.5 -5t4.5 -11v-1413q0 -6 -4.5 -10.5t-10.5 -4.5h-246q-6 0 -10.5 4.5t-4.5 10.5v1413z" />
    <glyph glyph-name="m" unicode="m" horiz-adv-x="1852" 
d="M1713 15q0 -6 -4.5 -10.5t-10.5 -4.5h-246q-6 0 -10.5 4.5t-4.5 10.5v620q0 226 -162 226q-103 0 -154.5 -69.5t-51.5 -185.5l1 -591q0 -6 -4.5 -10.5t-10.5 -4.5h-243q-6 0 -10.5 4.5t-4.5 10.5v619q0 227 -160 227q-102 0 -155.5 -69.5t-53.5 -191.5v-585
q0 -6 -4.5 -10.5t-10.5 -4.5h-246q-6 0 -10.5 4.5t-4.5 10.5v1014q0 15 15 15h184q18 0 30 -15l19 -22q17 -19 45 -20t51 14q120 74 230 74q152 0 250 -100q22 -23 48.5 -23t49.5 19q119 104 285 104q167 0 260.5 -112t93.5 -298v-650z" />
    <glyph glyph-name="n" unicode="n" 
d="M758 1075q169 0 264 -100t95 -276v-684q0 -6 -4.5 -10.5t-10.5 -4.5h-246q-15 0 -15 15v631q0 105 -45 160t-132 55q-46 0 -86.5 -15t-75 -45.5t-54.5 -85.5t-20 -127v-573q0 -15 -15 -15h-246q-6 0 -10.5 4.5t-4.5 10.5v1014q0 15 15 15h179q24 0 37 -16l18 -23
q18 -22 45 -25.5t54 14.5q111 81 258 81z" />
    <glyph glyph-name="o" unicode="o" horiz-adv-x="1239" 
d="M865 522q0 -163 -63 -250.5t-182 -87.5q-118 0 -182 87.5t-64 250.5t64 251t182 88q119 0 182 -88t63 -251zM86 522q0 -249 147 -401t385 -152q239 0 387 152.5t148 400.5q0 249 -148 401t-387 152q-238 0 -385 -152t-147 -401z" />
    <glyph glyph-name="p" unicode="p" horiz-adv-x="1304" 
d="M751 -31q-54 0 -101.5 12t-69 22.5t-56.5 31.5q-34 19 -65 5t-31 -52l1 -372q0 -6 -4.5 -10.5t-10.5 -4.5h-247q-6 0 -10.5 4.5t-4.5 10.5v1413q0 6 4.5 10.5t10.5 4.5h186q18 0 26 -12l19 -30q18 -26 46.5 -29.5t54.5 16.5q107 86 252 86q208 0 337.5 -155.5
t129.5 -395.5q0 -243 -130.5 -399t-336.5 -156zM426 521q0 -162 66 -250t187 -88t186.5 88t65.5 250q0 163 -65.5 251t-186.5 88t-187 -88t-66 -251z" />
    <glyph glyph-name="q" unicode="q" horiz-adv-x="1304" 
d="M554 -31q-206 0 -336.5 156t-130.5 399q0 240 129.5 395.5t337.5 155.5q145 0 252 -86q26 -20 54 -16.5t46 29.5l20 30q8 12 25 12h187q6 0 10.5 -4.5t4.5 -10.5v-1413q0 -6 -4.5 -10.5t-10.5 -4.5h-247q-6 0 -10.5 4.5t-4.5 10.5l1 372q0 38 -31.5 52t-65.5 -5
q-35 -21 -56 -31.5t-68.5 -22.5t-101.5 -12zM374 521q0 -162 65.5 -250t186.5 -88t187 88t66 250q0 163 -66 251t-187 88t-186.5 -88t-65.5 -251z" />
    <glyph glyph-name="r" unicode="r" horiz-adv-x="878" 
d="M804 1063q15 0 15 -15v-247q0 -7 -4.5 -11.5t-10.5 -4.5h-108q-268 0 -268 -322v-448q0 -15 -15 -15h-246q-6 0 -10.5 4.5t-4.5 10.5v1014q0 15 15 15h185q18 0 26 -11l25 -34q19 -24 48 -26t54 18q28 22 51 35.5t67 25t98 11.5h83z" />
    <glyph glyph-name="s" unicode="s" horiz-adv-x="1087" 
d="M545 1075q93 0 170.5 -22.5t130 -61t87 -82.5t53.5 -94q5 -14 -8 -20l-186 -74q-14 -6 -20 7q-23 60 -83 104t-146 44q-77 0 -125.5 -32t-48.5 -79q0 -73 105 -97l220 -51q159 -35 233 -111.5t74 -196.5q0 -85 -36 -151t-99 -106.5t-144 -61t-176 -20.5q-189 0 -308 81.5
t-167 218.5q-6 15 9 21l191 68q15 6 21 -9q64 -179 253 -179q89 0 140.5 34t51.5 91q0 41 -33 72t-93 44l-207 47q-296 67 -296 299q0 144 124 230.5t313 86.5z" />
    <glyph glyph-name="t" unicode="t" horiz-adv-x="852" 
d="M241 766q0 25 -17 41.5t-43 16.5h-123q-6 0 -10.5 5t-4.5 11v189q0 6 4.5 10.5t10.5 4.5h83q52 0 80.5 29t28.5 82v170q0 6 4.5 10.5t10.5 4.5h237q6 0 10.5 -4.5t4.5 -10.5v-221q0 -26 16.5 -43t41.5 -17h186q6 0 10.5 -4.5t4.5 -10.5v-189q0 -6 -4.5 -11t-10.5 -5h-186
q-25 0 -41.5 -16.5t-16.5 -42.5v-426q0 -107 114 -107h103q17 0 17 -15v-202q0 -15 -13 -15h-163q-172 0 -253 74t-81 238v454z" />
    <glyph glyph-name="u" unicode="u" 
d="M500 -31q-169 0 -264.5 100t-95.5 276v684q0 6 5 10.5t11 4.5h245q7 0 11.5 -4.5t4.5 -10.5v-631q0 -105 45 -160t132 -55q46 0 86 15t74.5 46t54.5 86t20 127v572q0 6 4.5 10.5t11.5 4.5h246q6 0 10.5 -4.5t4.5 -10.5v-1014q0 -15 -15 -15h-180q-24 0 -37 16l-18 24
q-18 22 -44.5 25t-53.5 -15q-111 -81 -258 -81z" />
    <glyph glyph-name="v" unicode="v" horiz-adv-x="1149" 
d="M520 464q14 -43 55 -43t54 43l185 567q3 13 19 13h263q19 0 13 -17l-379 -1014q-4 -13 -18 -13h-275q-14 0 -18 13l-376 1014q-8 17 12 17h262q15 0 19 -13z" />
    <glyph glyph-name="w" unicode="w" horiz-adv-x="1723" 
d="M981 1044q13 0 16 -12l149 -529q10 -38 47.5 -38t48.5 38l155 529q3 12 16 12h249q18 0 13 -17l-310 -1014q-4 -13 -17 -13h-263q-14 0 -17 13l-157 552q-11 38 -48.5 38.5t-48.5 -37.5l-158 -553q-4 -13 -17 -13h-263q-14 0 -18 13l-309 1014q-5 17 13 17h249
q14 0 17 -12l154 -530q11 -38 48.5 -37.5t48.5 38.5l148 529q5 12 17 12h237z" />
    <glyph glyph-name="x" unicode="x" horiz-adv-x="1144" 
d="M775 568q-28 -42 0 -86l330 -464q5 -8 2 -13t-12 -5h-288q-12 0 -19 10l-172 268q-19 28 -46.5 28t-45.5 -28l-169 -268q-6 -10 -19 -10h-287q-9 0 -12 5t2 13l330 465q29 42 0 85l-320 458q-11 18 10 18h286q14 0 19 -9l164 -257q17 -29 46 -29t47 29l160 257q5 9 19 9
h285q9 0 12.5 -5t-1.5 -13z" />
    <glyph glyph-name="y" unicode="y" horiz-adv-x="1149" 
d="M42 1027q-5 17 12 17h258q15 0 18 -12l189 -577q14 -44 55.5 -43.5t55.5 44.5l189 576q3 12 18 12h260q18 0 12 -17l-440 -1169q-52 -140 -142.5 -191t-240.5 -51h-112q-13 0 -13 16v201q0 15 15 15h89q53 0 83.5 17t47.5 59l17 44q13 33 -1 70z" />
    <glyph glyph-name="z" unicode="z" horiz-adv-x="1068" 
d="M968 220q15 0 15 -15v-190q0 -15 -15 -15h-862q-15 0 -15 15v201q0 12 7 20l461 502q26 28 14 57t-50 29h-402q-16 0 -16 16v189q0 15 16 15h819q15 0 15 -15v-205q0 -11 -7 -19l-453 -497q-27 -28 -15 -58t49 -30h439z" />
    <glyph glyph-name="braceleft" unicode="{" horiz-adv-x="774" 
d="M75 762q0 16 14 16q95 3 134 63t39 188v127q0 351 405 351q16 0 16 -15v-184q0 -17 -15 -17q-70 1 -106 -44t-36 -122v-173q0 -71 -20.5 -124t-44.5 -76t-44.5 -45.5t-20.5 -39.5q0 -18 20.5 -41t44.5 -46.5t44.5 -75.5t20.5 -122v-173q0 -77 36 -122t106 -45
q15 0 15 -15v-185q0 -16 -16 -16q-405 0 -405 352v126q0 128 -39 188.5t-134 62.5q-14 0 -14 16v191z" />
    <glyph glyph-name="bar" unicode="|" horiz-adv-x="598" 
d="M171 1428q0 6 4.5 11t10.5 5h226q6 0 10.5 -5t4.5 -11v-1689q0 -6 -4.5 -10.5t-10.5 -4.5h-226q-6 0 -10.5 4.5t-4.5 10.5v1689z" />
    <glyph glyph-name="braceright" unicode="}" horiz-adv-x="774" 
d="M699 571q0 -16 -14 -16q-95 -2 -134 -62.5t-39 -188.5v-126q0 -352 -404 -352q-17 0 -17 16v185q0 15 15 15q70 0 106 45t36 122v173q0 70 20.5 122t44.5 75.5t44.5 46.5t20.5 41q0 17 -20.5 39.5t-44.5 45.5t-44.5 76t-20.5 124v173q0 77 -36 122t-106 44q-15 0 -15 17
v184q0 15 17 15q404 0 404 -351v-127q0 -128 39 -188t134 -63q14 0 14 -16v-191z" />
    <glyph glyph-name="asciitilde" unicode="~" horiz-adv-x="1085" 
d="M693 419q-86 0 -174 62l-42 29q-5 3 -15 10t-15 10l-12.5 7.5t-14 6t-13.5 1.5q-32 0 -51 -22.5t-19 -54.5q0 -15 -16 -15h-138q-15 0 -15 15q0 106 61.5 172t156.5 66q84 0 166 -56l44 -29q29 -19 39 -25.5t23.5 -11.5t28.5 -5q65 0 65 76q0 16 15 16h138q16 0 16 -16
q0 -102 -62.5 -169t-165.5 -67z" />
    <glyph glyph-name="uni00A0" unicode="&#xa0;" horiz-adv-x="491" 
 />
    <glyph glyph-name="exclamdown" unicode="&#xa1;" horiz-adv-x="577" 
d="M438 -385q2 -15 -14 -15h-269q-16 0 -16 15l38 973q0 15 16 15h191q15 0 15 -15zM147 772v257q0 15 16 15h252q15 0 15 -15v-257q0 -15 -15 -15h-252q-16 0 -16 15z" />
    <glyph glyph-name="cent" unicode="&#xa2;" horiz-adv-x="1219" 
d="M1125 309q5 16 -9 21l-200 66q-14 5 -19 -9q-14 -40 -31 -71t-45 -63.5t-71 -50.5t-97 -18q-123 0 -187.5 88t-64.5 250t64.5 250.5t187.5 88.5q95 0 152 -51.5t84 -125.5q5 -14 19 -9l198 65q14 5 9 20q-35 98 -104.5 170.5t-167.5 109.5q-41 15 -60.5 32.5t-19.5 52.5
v106q0 15 -15 15h-205q-16 0 -16 -15v-105q0 -36 -19 -53.5t-62 -32.5q-154 -55 -242.5 -192t-88.5 -326t88.5 -325.5t241.5 -191.5q44 -18 63 -36.5t19 -49.5v-115q0 -15 16 -15h205q15 0 15 15v117q0 32 16.5 48.5t62.5 35.5q200 76 283 304z" />
    <glyph glyph-name="sterling" unicode="&#xa3;" horiz-adv-x="1287" 
d="M136 0q-15 0 -15 15v158q0 15 15 15h1q135 0 135 144v206q0 28 -18 46t-46 18h-94q-16 0 -16 15v194q0 15 16 15h94q28 0 46 18t18 46v157q0 133 66 232t172 147.5t235 48.5q173 0 294.5 -80t184.5 -226q6 -14 -7 -20l-206 -91q-14 -6 -20 8q-29 79 -91.5 126t-153.5 47
q-95 0 -147 -53t-52 -134v-154q0 -31 20.5 -51.5t52.5 -20.5h343q15 0 15 -15v-194q0 -15 -15 -15h-355q-26 0 -43.5 -17t-17.5 -44v-247q0 -27 17.5 -44.5t43.5 -17.5h515q16 0 16 -15v-202q0 -15 -16 -15h-987z" />
    <glyph glyph-name="currency" unicode="&#xa4;" horiz-adv-x="1303" 
d="M109 1019q-11 -11 -1 -22l101 -102q12 -12 15 -28t0 -32.5t-11 -42.5q-32 -86 -32 -186q0 -97 32 -185q25 -75 -4 -104l-101 -101q-10 -10 1 -22l142 -143q11 -11 22 0l105 107q18 18 44 18.5t61 -11.5q82 -28 169 -28q86 0 168 28q36 12 62 11.5t44 -18.5l105 -107
q11 -11 22 0l143 143q11 11 0 22l-101 101q-29 29 -4 104q31 85 31 185q0 102 -31 186q-8 26 -11 42.5t0 32.5t15 28l101 102q11 11 0 22l-143 142q-11 11 -22 0l-105 -105q-18 -19 -44 -20t-62 12q-75 27 -168 27q-94 0 -169 -27q-35 -13 -61 -12t-44 20l-105 105
q-11 11 -22 0zM419 606q0 131 59.5 201t173.5 70q113 0 173.5 -70t60.5 -201q0 -130 -60.5 -200t-173.5 -70q-114 0 -173.5 70t-59.5 200z" />
    <glyph glyph-name="yen" unicode="&#xa5;" horiz-adv-x="1418" 
d="M646 924q24 -43 64.5 -43t63.5 43l278 510q6 10 18 10h281q9 0 12 -5.5t-1 -13.5l-353 -604q-19 -31 -3.5 -57.5t51.5 -26.5h194q16 0 16 -15v-153q0 -15 -16 -15h-331q-20 0 -32 -12t-12 -32v-44q0 -20 12 -32t32 -12h331q16 0 16 -15v-153q0 -15 -16 -15h-335
q-29 0 -47.5 -19t-18.5 -48v-157q0 -15 -15 -15h-251q-16 0 -16 15v157q0 29 -18.5 48t-46.5 19h-338q-15 0 -15 15v153q0 15 15 15h332q19 0 31.5 12t12.5 32v44q0 20 -12.5 32t-31.5 12h-332q-15 0 -15 15v153q0 15 15 15h196q36 0 52 26.5t-2 57.5l-354 604q-4 8 -1 13.5
t12 5.5h281q14 0 19 -10z" />
    <glyph glyph-name="brokenbar" unicode="&#xa6;" horiz-adv-x="598" 
d="M173 399q0 6 4.5 11t10.5 5h226q6 0 10.5 -5t4.5 -11v-660q0 -6 -4.5 -10.5t-10.5 -4.5h-226q-6 0 -10.5 4.5t-4.5 10.5v660zM173 769v659q0 6 4.5 11t10.5 5h226q6 0 10.5 -5t4.5 -11v-659q0 -6 -4.5 -10.5t-10.5 -4.5h-226q-6 0 -10.5 4.5t-4.5 10.5z" />
    <glyph glyph-name="section" unicode="&#xa7;" horiz-adv-x="1310" 
d="M105 573q0 50 16.5 96t40 77.5t47 58t40 49t16.5 38.5q0 20 -14.5 51t-29.5 76t-15 97q0 95 62.5 171t165 116.5t224.5 40.5q182 0 307.5 -77t164.5 -207q4 -14 -10 -19l-204 -62q-14 -5 -19 10q-23 70 -83 110.5t-144 40.5q-72 0 -125 -31.5t-53 -86.5q0 -74 115 -128
l387 -178q211 -97 211 -287q0 -52 -16.5 -98.5t-40.5 -78t-47.5 -57t-40 -47t-16.5 -37.5t15 -44.5t30 -75t15 -105.5q0 -144 -134 -236t-329 -92q-173 0 -299.5 74t-166.5 207q-4 15 9 19l213 65q15 5 20 -11q22 -71 85 -110t143 -39q70 0 122 31.5t52 86.5q0 73 -116 128
l-388 177q-210 97 -210 287zM385 612q0 -79 88 -122l275 -131q52 -25 113.5 21.5t61.5 109.5q0 79 -88 123l-273 129q-49 23 -113 -20.5t-64 -109.5z" />
    <glyph glyph-name="dieresis" unicode="&#xa8;" horiz-adv-x="1213" 
d="M428 1424q15 0 15 -15v-221q0 -16 -15 -16h-223q-16 0 -16 16v221q0 15 16 15h223zM583 1188v221q0 15 15 15h223q16 0 16 -15v-221q0 -16 -16 -16h-223q-15 0 -15 16z" />
    <glyph glyph-name="copyright" unicode="&#xa9;" horiz-adv-x="1732" 
d="M1037 647q3 8 11 6l149 -43q8 -2 6 -9q-31 -108 -115 -179t-215 -71q-161 0 -260.5 104t-99.5 270q0 165 99.5 269t260.5 104q122 0 203 -58t110 -148q3 -6 -5 -9l-153 -50q-7 -3 -10 5q-12 39 -47 68.5t-93 29.5q-81 0 -126 -58t-45 -153q0 -97 44 -154.5t128 -57.5
q119 0 158 134zM116 722q0 218 95 390t266 267.5t388 95.5q218 0 389.5 -95.5t267 -267.5t95.5 -390t-95.5 -390t-267 -267.5t-389.5 -95.5q-217 0 -388 95.5t-266 267.5t-95 390zM326 722q0 -260 145.5 -412t394.5 -152q250 0 396 152t146 412t-146 412t-396 152t-395 -152
t-145 -412z" />
    <glyph glyph-name="guillemotleft" unicode="&#xab;" horiz-adv-x="1224" 
d="M625 937q9 0 12 -5.5t-2 -12.5l-239 -345q-30 -46 0 -90l239 -344q5 -8 2 -13t-12 -5h-247q-13 0 -20 10l-259 387q-7 11 0 21l259 387q7 10 20 10h247zM577 519q-7 11 0 21l259 387q7 10 19 10h247q9 0 12 -5.5t-2 -12.5l-239 -345q-30 -46 0 -90l239 -344q5 -8 2 -13
t-12 -5h-247q-12 0 -19 10z" />
    <glyph glyph-name="logicalnot" unicode="&#xac;" horiz-adv-x="1085" 
d="M1036 839q16 0 16 -16v-583q0 -16 -16 -16h-180q-15 0 -15 16v310q0 32 -21 53t-53 21h-722q-15 0 -15 15v184q0 16 15 16h991z" />
    <glyph glyph-name="uni00AD" unicode="&#xad;" horiz-adv-x="0" 
d="M300 651q6 0 10.5 -4.5t4.5 -10.5v-220q0 -6 -4.5 -11t-10.5 -5h-599q-6 0 -10.5 5t-4.5 11v220q0 6 4.5 10.5t10.5 4.5h599z" />
    <glyph glyph-name="registered" unicode="&#xae;" horiz-adv-x="1732" 
d="M1051 673q-16 -11 -17.5 -30t10.5 -34l162 -218q3 -4 1.5 -6.5t-5.5 -2.5h-188q-6 0 -9 4l-123 177q-18 26 -49 26h-28q-20 0 -30.5 -14.5t-10.5 -35.5v-150q0 -7 -7 -7h-164q-7 0 -7 7v676q0 8 7 8h316q109 0 176.5 -60.5t67.5 -162.5q0 -124 -102 -177zM116 722
q0 218 95 390t266 267.5t388 95.5q218 0 389.5 -95.5t267 -267.5t95.5 -390t-95.5 -390t-267 -267.5t-389.5 -95.5q-217 0 -388 95.5t-266 267.5t-95 390zM326 722q0 -260 145.5 -412t394.5 -152q250 0 396 152t146 412t-146 412t-396 152t-395 -152t-145 -412zM761 815
q0 -19 12.5 -32t31.5 -13h85q36 0 57 22t21 59t-21 59.5t-57 22.5h-85q-19 0 -31.5 -13t-12.5 -32v-73z" />
    <glyph glyph-name="macron" unicode="&#xaf;" horiz-adv-x="1057" 
d="M10 1408q0 6 5 10.5t11 4.5h524q6 0 10.5 -4.5t4.5 -10.5v-144q0 -6 -4.5 -11t-10.5 -5h-524q-6 0 -11 5t-5 11v144z" />
    <glyph glyph-name="degree" unicode="&#xb0;" horiz-adv-x="898" 
d="M451 767q-149 0 -251.5 99t-102.5 242q0 141 102.5 238.5t251.5 97.5q147 0 248.5 -97.5t101.5 -238.5q0 -143 -101.5 -242t-248.5 -99zM302 1107q0 -69 40.5 -109.5t108.5 -40.5q67 0 106.5 40.5t39.5 109.5q0 68 -39.5 107.5t-106.5 39.5q-68 0 -108.5 -39.5
t-40.5 -107.5z" />
    <glyph glyph-name="plusminus" unicode="&#xb1;" horiz-adv-x="1085" 
d="M349 906q33 0 52 19.5t19 51.5v167q0 15 15 15h215q16 0 16 -15v-167q0 -32 19 -51.5t51 -19.5h273q15 0 15 -15v-184q0 -16 -15 -16h-273q-32 0 -51 -18.5t-19 -51.5v-170q0 -16 -16 -16h-215q-15 0 -15 16v170q0 33 -19 51.5t-52 18.5h-272q-7 0 -11.5 5t-4.5 11v184
q0 15 16 15h272zM61 138v185q0 15 16 15h932q15 0 15 -15v-185q0 -15 -15 -15h-932q-16 0 -16 15z" />
    <glyph glyph-name="acute" unicode="&#xb4;" horiz-adv-x="566" 
d="M516 1444q10 0 12.5 -6t-4.5 -13l-235 -239q-7 -7 -20 -7h-225q-9 0 -11.5 5.5t2.5 12.5l169 238q5 9 18 9h294z" />
    <glyph glyph-name="uni00B5" unicode="&#xb5;" horiz-adv-x="1281" 
d="M579 -15q-23 0 -56 4.5t-37 4.5q-31 0 -50.5 -21t-19.5 -52v-290q0 -15 -16 -15h-226q-15 0 -15 15v1398q0 15 15 15h246q15 0 15 -15v-630q0 -105 45 -160t132 -55q45 0 85.5 15t75 46t54.5 86t20 127v571q0 15 15 15h246q15 0 15 -15v-1014q0 -15 -15 -15h-158
q-35 0 -48 9l-51 42q-21 7 -61 7q-5 0 -26.5 -18t-69 -36.5t-115.5 -18.5z" />
    <glyph glyph-name="paragraph" unicode="&#xb6;" 
d="M401 735q-165 0 -262.5 95.5t-97.5 256.5q0 165 104.5 261t284.5 96h638q15 0 15 -16v-1580q0 -15 -15 -15h-187q-16 0 -16 15v1351q0 21 -13.5 34.5t-35.5 13.5h-71q-21 0 -34.5 -13.5t-13.5 -34.5v-1351q0 -15 -15 -15h-187q-16 0 -16 15v844q0 19 -12 31t-31 12h-35z
" />
    <glyph glyph-name="periodcentered" unicode="&#xb7;" horiz-adv-x="560" 
d="M132 738q0 16 15 16h267q15 0 15 -16v-276q0 -16 -15 -16h-267q-15 0 -15 16v276z" />
    <glyph glyph-name="guillemotright" unicode="&#xbb;" horiz-adv-x="1224" 
d="M847 937q12 0 19 -10l259 -387q7 -10 0 -21l-259 -387q-7 -10 -19 -10h-247q-9 0 -12 5t2 13l238 344q30 44 0 90l-238 345q-5 7 -2 12.5t12 5.5h247zM113 140l238 344q30 44 0 90l-238 345q-5 7 -2 12.5t12 5.5h247q12 0 19 -10l259 -387q8 -10 0 -21l-259 -387
q-7 -10 -19 -10h-247q-9 0 -12 5t2 13z" />
    <glyph glyph-name="questiondown" unicode="&#xbf;" horiz-adv-x="1096" 
d="M692 593q16 0 16 -15l-1 -12q-2 -84 -28 -150.5t-71.5 -119t-120.5 -110.5q-50 -39 -78 -65t-52.5 -66.5t-24.5 -82.5q-1 -74 62 -123.5t159 -49.5q103 0 170.5 62.5t89.5 156.5q3 14 18 11l223 -51q14 -3 11 -19q-18 -77 -59 -145t-104.5 -123.5t-157 -88t-204.5 -32.5
q-218 0 -354.5 112.5t-136.5 281.5q0 102 55.5 185t166.5 165q100 75 131.5 129t42.5 137q2 13 15 13h232zM435 778v251q0 15 16 15h255q15 0 15 -15v-251q0 -15 -15 -15h-255q-16 0 -16 15z" />
    <glyph glyph-name="Agrave" unicode="&#xc0;" horiz-adv-x="1472" 
d="M906 1444q14 0 18 -12l520 -1415q5 -17 -12 -17h-263q-13 0 -17 12l-97 275q-16 52 -75 52h-487q-59 0 -74 -52l-97 -275q-4 -12 -19 -12h-261q-19 0 -12 17l519 1415q4 12 18 12h339zM376 1825q-7 7 -4.5 12.5t12.5 5.5h294q13 0 18 -9l169 -238q5 -8 2.5 -13t-11.5 -5
h-225q-13 0 -20 7zM538 631q-9 -32 8.5 -55.5t51.5 -23.5h276q34 0 52.5 23.5t8.5 55.5l-145 425q-8 25 -31 35t-46 0t-30 -35z" />
    <glyph glyph-name="Aacute" unicode="&#xc1;" horiz-adv-x="1472" 
d="M906 1444q14 0 18 -12l520 -1415q5 -17 -12 -17h-263q-13 0 -17 12l-97 275q-16 52 -75 52h-487q-59 0 -74 -52l-97 -275q-4 -12 -19 -12h-261q-19 0 -12 17l519 1415q4 12 18 12h339zM538 631q-9 -32 8.5 -55.5t51.5 -23.5h276q34 0 52.5 23.5t8.5 55.5l-145 425
q-8 25 -31 35t-46 0t-30 -35zM607 1596l169 238q5 9 19 9h294q10 0 12.5 -5.5t-4.5 -12.5l-236 -240q-7 -7 -19 -7h-226q-9 0 -11.5 5t2.5 13z" />
    <glyph glyph-name="Acircumflex" unicode="&#xc2;" horiz-adv-x="1472" 
d="M906 1444q14 0 18 -12l520 -1415q5 -17 -12 -17h-263q-13 0 -17 12l-97 275q-16 52 -75 52h-487q-59 0 -74 -52l-97 -275q-4 -12 -19 -12h-261q-19 0 -12 17l519 1415q4 12 18 12h339zM397 1596l174 238q6 9 19 9h295q13 0 18 -9l174 -238q5 -8 2 -13t-12 -5h-206
q-12 0 -18 9l-59 73q-21 27 -48 27t-48 -28l-56 -72q-6 -9 -19 -9h-206q-9 0 -12 5t2 13zM538 631q-9 -32 8.5 -55.5t51.5 -23.5h276q34 0 52.5 23.5t8.5 55.5l-145 425q-8 25 -31 35t-46 0t-30 -35z" />
    <glyph glyph-name="Atilde" unicode="&#xc3;" horiz-adv-x="1472" 
d="M906 1444q14 0 18 -12l520 -1415q5 -17 -12 -17h-263q-13 0 -17 12l-97 275q-16 52 -75 52h-487q-59 0 -74 -52l-97 -275q-4 -12 -19 -12h-261q-19 0 -12 17l519 1415q4 12 18 12h339zM360 1627q0 106 62 172t157 66q83 0 165 -56l44 -29q39 -26 55 -34t37 -8q64 0 64 77
q0 15 15 15h139q15 0 15 -15q0 -103 -62 -170t-165 -67q-86 0 -174 62l-42 29q-4 2 -15 10t-15.5 10.5t-12.5 7t-14.5 6t-13.5 1.5q-32 0 -51 -22.5t-19 -54.5q0 -15 -16 -15h-137q-16 0 -16 15zM538 631q-9 -32 8.5 -55.5t51.5 -23.5h276q34 0 52.5 23.5t8.5 55.5l-145 425
q-8 25 -31 35t-46 0t-30 -35z" />
    <glyph glyph-name="Adieresis" unicode="&#xc4;" horiz-adv-x="1472" 
d="M906 1444q14 0 18 -12l520 -1415q5 -17 -12 -17h-263q-13 0 -17 12l-97 275q-16 52 -75 52h-487q-59 0 -74 -52l-97 -275q-4 -12 -19 -12h-261q-19 0 -12 17l519 1415q4 12 18 12h339zM413 1587v221q0 16 15 16h223q16 0 16 -16v-221q0 -15 -16 -15h-223q-15 0 -15 15z
M538 631q-9 -32 8.5 -55.5t51.5 -23.5h276q34 0 52.5 23.5t8.5 55.5l-145 425q-8 25 -31 35t-46 0t-30 -35zM806 1587v221q0 16 15 16h223q16 0 16 -16v-221q0 -15 -16 -15h-223q-15 0 -15 15z" />
    <glyph glyph-name="Aring" unicode="&#xc5;" horiz-adv-x="1472" 
d="M906 1444q14 0 18 -12l520 -1415q5 -17 -12 -17h-263q-13 0 -17 12l-97 275q-16 52 -75 52h-487q-59 0 -74 -52l-97 -275q-4 -12 -19 -12h-261q-19 0 -12 17l519 1415q4 12 18 12h339zM523 1749q0 87 61.5 145.5t151.5 58.5q91 0 153 -58.5t62 -145.5q0 -88 -62 -147
t-153 -59q-90 0 -151.5 59t-61.5 147zM538 631q-9 -32 8.5 -55.5t51.5 -23.5h276q34 0 52.5 23.5t8.5 55.5l-145 425q-8 25 -31 35t-46 0t-30 -35zM664 1748q0 -31 21 -52.5t51 -21.5q33 0 54 21t21 53t-21.5 53.5t-53.5 21.5q-30 0 -51 -21.5t-21 -53.5z" />
    <glyph glyph-name="AE" unicode="&#xc6;" horiz-adv-x="2044" 
d="M1316 628q-28 0 -47 -19t-19 -47v-260q0 -28 18.5 -46.5t47.5 -18.5h613q6 0 11 -5t5 -11v-206q0 -6 -5 -10.5t-11 -4.5h-945q-15 0 -15 15v238q0 37 -21 58t-58 21h-355q-65 0 -101 -60l-151 -260q-7 -12 -18 -12h-284q-9 0 -13 5t0 12l829 1417q5 10 18 10h1097
q6 0 10.5 -4.5t4.5 -11.5v-205q0 -6 -4.5 -11t-10.5 -5h-602q-26 0 -43 -17t-17 -43v-227q0 -26 17 -43t43 -17h524q6 0 10.5 -4.5t4.5 -10.5v-202q0 -15 -15 -15h-518zM636 637q-19 -34 -7 -59.5t46 -25.5h223q32 0 51.5 18.5t19.5 49.5v399q0 41 -40 51.5t-60 -26.5z" />
    <glyph glyph-name="Ccedilla" unicode="&#xc7;" horiz-adv-x="1540" 
d="M1210 540q5 17 21 12l231 -68q15 -4 12 -18q-53 -181 -191 -316.5t-329 -165.5q-49 -8 -49 -35q0 -11 11.5 -22t27.5 -22.5t32 -25.5t27.5 -37t11.5 -51q0 -87 -72.5 -131t-192.5 -44h-87q-16 0 -16 15v98q0 15 16 15h44q52 0 87.5 14t35.5 42q0 56 -86 56h-39
q-19 0 -13 17q7 24 10 36t4 30.5t-7.5 28t-26.5 12.5q-265 42 -421 241.5t-156 500.5q0 224 88.5 395t250 264.5t372.5 93.5q129 0 238.5 -34t187.5 -93.5t131.5 -134.5t81.5 -162q5 -14 -10 -19l-230 -74q-14 -5 -18 10q-13 39 -32 75t-51.5 73t-73 63.5t-98 43.5
t-124.5 17q-203 0 -312.5 -134t-109.5 -383q0 -250 109.5 -384t312.5 -134q85 0 154.5 27t117 75.5t79 106t51.5 126.5z" />
    <glyph glyph-name="Egrave" unicode="&#xc8;" horiz-adv-x="1313" 
d="M522 627q-28 0 -46.5 -19t-18.5 -47v-259q0 -28 18.5 -46.5t46.5 -18.5h676q15 0 15 -16v-206q0 -15 -15 -15h-1012q-6 0 -10.5 4.5t-4.5 10.5v1413q0 7 4.5 11.5t10.5 4.5h995q6 0 10.5 -4.5t4.5 -11.5v-205q0 -7 -4.5 -11.5t-10.5 -4.5h-668q-26 0 -43 -17t-17 -43
v-227q0 -26 17 -43t43 -17h590q15 0 15 -15v-205q0 -13 -15 -13h-581zM325 1825q-7 7 -4.5 12.5t12.5 5.5h294q13 0 18 -9l169 -238q5 -8 2.5 -13t-11.5 -5h-225q-13 0 -20 7z" />
    <glyph glyph-name="Eacute" unicode="&#xc9;" horiz-adv-x="1313" 
d="M522 627q-28 0 -46.5 -19t-18.5 -47v-259q0 -28 18.5 -46.5t46.5 -18.5h676q15 0 15 -16v-206q0 -15 -15 -15h-1012q-6 0 -10.5 4.5t-4.5 10.5v1413q0 7 4.5 11.5t10.5 4.5h995q6 0 10.5 -4.5t4.5 -11.5v-205q0 -7 -4.5 -11.5t-10.5 -4.5h-668q-26 0 -43 -17t-17 -43
v-227q0 -26 17 -43t43 -17h590q15 0 15 -15v-205q0 -13 -15 -13h-581zM556 1596l169 238q5 9 18 9h294q10 0 13 -5.5t-4 -12.5l-236 -240q-7 -7 -19 -7h-226q-9 0 -11.5 5t2.5 13z" />
    <glyph glyph-name="Ecircumflex" unicode="&#xca;" horiz-adv-x="1313" 
d="M522 627q-28 0 -46.5 -19t-18.5 -47v-259q0 -28 18.5 -46.5t46.5 -18.5h676q15 0 15 -16v-206q0 -15 -15 -15h-1012q-6 0 -10.5 4.5t-4.5 10.5v1413q0 7 4.5 11.5t10.5 4.5h995q6 0 10.5 -4.5t4.5 -11.5v-205q0 -7 -4.5 -11.5t-10.5 -4.5h-668q-26 0 -43 -17t-17 -43
v-227q0 -26 17 -43t43 -17h590q15 0 15 -15v-205q0 -13 -15 -13h-581zM346 1596l174 238q6 9 19 9h295q13 0 18 -9l174 -238q5 -8 2 -13t-12 -5h-206q-12 0 -18 9l-59 73q-21 27 -48 27t-48 -28l-56 -72q-6 -9 -19 -9h-207q-9 0 -11.5 5t2.5 13z" />
    <glyph glyph-name="Edieresis" unicode="&#xcb;" horiz-adv-x="1313" 
d="M522 627q-28 0 -46.5 -19t-18.5 -47v-259q0 -28 18.5 -46.5t46.5 -18.5h676q15 0 15 -16v-206q0 -15 -15 -15h-1012q-6 0 -10.5 4.5t-4.5 10.5v1413q0 7 4.5 11.5t10.5 4.5h995q6 0 10.5 -4.5t4.5 -11.5v-205q0 -7 -4.5 -11.5t-10.5 -4.5h-668q-26 0 -43 -17t-17 -43
v-227q0 -26 17 -43t43 -17h590q15 0 15 -15v-205q0 -13 -15 -13h-581zM361 1587v221q0 16 16 16h223q15 0 15 -16v-221q0 -15 -15 -15h-223q-16 0 -16 15zM755 1587v221q0 16 15 16h223q16 0 16 -16v-221q0 -15 -16 -15h-223q-15 0 -15 15z" />
    <glyph glyph-name="Igrave" unicode="&#xcc;" horiz-adv-x="623" 
d="M171 1428q0 6 4.5 11t10.5 5h251q6 0 11 -5t5 -11v-1413q0 -6 -5 -10.5t-11 -4.5h-251q-6 0 -10.5 4.5t-4.5 10.5v1413zM-48 1825q-7 7 -4.5 12.5t12.5 5.5h294q13 0 18 -9l169 -238q5 -8 2.5 -13t-11.5 -5h-225q-13 0 -20 7z" />
    <glyph glyph-name="Iacute" unicode="&#xcd;" horiz-adv-x="623" 
d="M171 1428q0 6 4.5 11t10.5 5h251q6 0 11 -5t5 -11v-1413q0 -6 -5 -10.5t-11 -4.5h-251q-6 0 -10.5 4.5t-4.5 10.5v1413zM183 1596l169 238q5 9 19 9h294q10 0 12.5 -5.5t-4.5 -12.5l-236 -240q-7 -7 -19 -7h-225q-9 0 -12 5t2 13z" />
    <glyph glyph-name="Icircumflex" unicode="&#xce;" horiz-adv-x="623" 
d="M171 1428q0 6 4.5 11t10.5 5h251q6 0 11 -5t5 -11v-1413q0 -6 -5 -10.5t-11 -4.5h-251q-6 0 -10.5 4.5t-4.5 10.5v1413zM-27 1596l174 238q6 9 19 9h295q13 0 18 -9l174 -238q5 -8 2 -13t-12 -5h-206q-12 0 -18 9l-59 73q-21 27 -48 27t-48 -28l-56 -72q-6 -9 -19 -9
h-206q-9 0 -12 5t2 13z" />
    <glyph glyph-name="Idieresis" unicode="&#xcf;" horiz-adv-x="623" 
d="M171 1428q0 6 4.5 11t10.5 5h251q6 0 11 -5t5 -11v-1413q0 -6 -5 -10.5t-11 -4.5h-251q-6 0 -10.5 4.5t-4.5 10.5v1413zM-11 1587v221q0 16 15 16h223q16 0 16 -16v-221q0 -15 -16 -15h-223q-15 0 -15 15zM382 1587v221q0 16 15 16h224q15 0 15 -16v-221q0 -15 -15 -15
h-224q-15 0 -15 15z" />
    <glyph glyph-name="Eth" unicode="&#xd0;" horiz-adv-x="1619" 
d="M268 0q-6 0 -10.5 4.5t-4.5 10.5v530q0 30 -20.5 48t-51.5 18h-87q-15 0 -15 16v199q0 16 15 16h87q32 0 52 17.5t20 48.5v520q0 6 4.5 11t10.5 5h551q330 0 517.5 -190.5t187.5 -526.5q0 -335 -188.5 -531t-512.5 -196h-555zM535 304q0 -31 20.5 -50.5t52.5 -19.5h204
q201 0 310.5 131t109.5 362q0 234 -111 358t-323 124h-190q-32 0 -52.5 -19t-20.5 -50v-244q0 -24 16 -39t43 -15h282q6 0 10.5 -5t4.5 -11v-199q0 -7 -4.5 -11.5t-10.5 -4.5h-282q-27 0 -43 -15.5t-16 -39.5v-252z" />
    <glyph glyph-name="Ntilde" unicode="&#xd1;" horiz-adv-x="1622" 
d="M171 1428q0 16 15 16h311q12 0 18 -10l571 -920q20 -31 54.5 -21t34.5 47v888q0 16 15 16h245q16 0 16 -16v-1413q0 -15 -16 -15h-311q-12 0 -18 10l-570 920q-20 31 -54.5 21.5t-34.5 -46.5v-890q0 -15 -15 -15h-246q-15 0 -15 15v1413zM459 1627q0 106 61.5 172
t156.5 66q84 0 166 -56l44 -29q29 -19 39 -25.5t23.5 -11.5t28.5 -5q64 0 64 77q0 15 16 15h138q15 0 15 -15q0 -103 -62 -170t-165 -67q-86 0 -174 62l-42 29q-4 2 -15 10t-15.5 10.5t-12.5 7t-14.5 6t-13.5 1.5q-32 0 -50.5 -22.5t-18.5 -54.5q0 -15 -17 -15h-137
q-15 0 -15 15z" />
    <glyph glyph-name="Ograve" unicode="&#xd2;" horiz-adv-x="1629" 
d="M816 1475q323 0 521 -207t198 -546t-198 -546t-521 -207q-214 0 -378 93.5t-254 264.5t-90 395t90 395t254 264.5t378 93.5zM390 723q0 -249 110.5 -383.5t314.5 -134.5t314 134t110 384q0 249 -110 383t-314 134t-314.5 -134t-110.5 -383zM456 1825q-7 7 -4.5 12.5
t12.5 5.5h294q13 0 18 -9l169 -238q5 -8 2.5 -13t-11.5 -5h-225q-13 0 -20 7z" />
    <glyph glyph-name="Oacute" unicode="&#xd3;" horiz-adv-x="1629" 
d="M816 1475q323 0 521 -207t198 -546t-198 -546t-521 -207q-214 0 -378 93.5t-254 264.5t-90 395t90 395t254 264.5t378 93.5zM390 723q0 -249 110.5 -383.5t314.5 -134.5t314 134t110 384q0 249 -110 383t-314 134t-314.5 -134t-110.5 -383zM687 1596l169 238q5 9 18 9
h294q10 0 13 -5.5t-4 -12.5l-236 -240q-7 -7 -19 -7h-226q-9 0 -11.5 5t2.5 13z" />
    <glyph glyph-name="Ocircumflex" unicode="&#xd4;" horiz-adv-x="1629" 
d="M816 1475q323 0 521 -207t198 -546t-198 -546t-521 -207q-214 0 -378 93.5t-254 264.5t-90 395t90 395t254 264.5t378 93.5zM390 723q0 -249 110.5 -383.5t314.5 -134.5t314 134t110 384q0 249 -110 383t-314 134t-314.5 -134t-110.5 -383zM477 1596l174 238q6 9 19 9
h295q13 0 18 -9l174 -238q5 -8 2 -13t-12 -5h-206q-12 0 -18 9l-59 73q-21 27 -48 27t-48 -28l-56 -72q-6 -9 -19 -9h-207q-9 0 -11.5 5t2.5 13z" />
    <glyph glyph-name="Otilde" unicode="&#xd5;" horiz-adv-x="1629" 
d="M816 1475q323 0 521 -207t198 -546t-198 -546t-521 -207q-214 0 -378 93.5t-254 264.5t-90 395t90 395t254 264.5t378 93.5zM390 723q0 -249 110.5 -383.5t314.5 -134.5t314 134t110 384q0 249 -110 383t-314 134t-314.5 -134t-110.5 -383zM440 1627q0 106 61.5 172
t156.5 66q84 0 166 -56l44 -29q29 -19 39 -25.5t23.5 -11.5t28.5 -5q31 0 48 20t17 57q0 15 15 15h139q15 0 15 -15q0 -103 -62 -170t-165 -67q-86 0 -174 62l-42 29q-4 2 -15 10t-15.5 10.5t-12.5 7t-14.5 6t-13.5 1.5q-32 0 -51 -22.5t-19 -54.5q0 -15 -16 -15h-137
q-16 0 -16 15z" />
    <glyph glyph-name="Odieresis" unicode="&#xd6;" horiz-adv-x="1629" 
d="M816 1475q323 0 521 -207t198 -546t-198 -546t-521 -207q-214 0 -378 93.5t-254 264.5t-90 395t90 395t254 264.5t378 93.5zM390 723q0 -249 110.5 -383.5t314.5 -134.5t314 134t110 384q0 249 -110 383t-314 134t-314.5 -134t-110.5 -383zM493 1587v221q0 16 15 16h223
q15 0 15 -16v-221q0 -15 -15 -15h-223q-15 0 -15 15zM886 1587v221q0 16 15 16h223q16 0 16 -16v-221q0 -15 -16 -15h-223q-15 0 -15 15z" />
    <glyph glyph-name="multiply" unicode="&#xd7;" horiz-adv-x="1085" 
d="M343 612q23 22 23 52t-23 52l-237 235q-11 11 0 22l128 128q4 5 11 5t11 -5l236 -237q22 -22 51 -22t51 22l236 237q4 5 11 5t11 -5l127 -127q12 -10 0 -22l-237 -236q-22 -22 -21.5 -51.5t22.5 -51.5l236 -235q11 -12 0 -23l-127 -127q-12 -10 -22 0l-236 236
q-22 22 -51 22t-51 -22l-237 -236q-11 -11 -22 0l-127 127q-11 9 0 22z" />
    <glyph glyph-name="Oslash" unicode="&#xd8;" horiz-adv-x="1629" 
d="M816 1475q161 0 293 -56q42 -18 72 -17t49 25l54 70q11 13 22 3l134 -104q13 -11 3 -22l-54 -71q-34 -43 18 -122q128 -190 128 -459q0 -339 -198 -546t-521 -207q-160 0 -290 55q-87 31 -118 -10l-55 -69q-10 -12 -21 -3l-134 104q-13 11 -3 22l53 69q32 42 -20 120
q-134 192 -134 465q0 224 90 395t254 264.5t378 93.5zM387 738q0 -137 54 -211q38 -51 73 -32q9 5 17 15l438 572q38 52 -22 101t-163 49q-184 0 -290.5 -132.5t-106.5 -361.5zM674 364q-27 -40 -8.5 -72.5t71 -53.5t114.5 -21q186 0 290 134.5t104 366.5q0 151 -57 212
q-36 39 -70 13q-6 -5 -12 -12z" />
    <glyph glyph-name="Ugrave" unicode="&#xd9;" horiz-adv-x="1471" 
d="M735 -31q-275 0 -426.5 144.5t-151.5 410.5v904q0 16 15 16h251q6 0 10.5 -4.5t4.5 -11.5v-897q0 -160 76.5 -243t220.5 -83t221.5 83t77.5 243v897q0 16 16 16h250q6 0 11 -4.5t5 -11.5v-904q0 -265 -152.5 -410t-428.5 -145zM375 1825q-7 7 -4.5 12.5t12.5 5.5h294
q13 0 18 -9l169 -238q5 -8 2.5 -13t-11.5 -5h-225q-13 0 -20 7z" />
    <glyph glyph-name="Uacute" unicode="&#xda;" horiz-adv-x="1471" 
d="M735 -31q-275 0 -426.5 144.5t-151.5 410.5v904q0 16 15 16h251q6 0 10.5 -4.5t4.5 -11.5v-897q0 -160 76.5 -243t220.5 -83t221.5 83t77.5 243v897q0 16 16 16h250q6 0 11 -4.5t5 -11.5v-904q0 -265 -152.5 -410t-428.5 -145zM606 1596l169 238q5 9 19 9h293
q10 0 13 -5.5t-4 -12.5l-236 -240q-7 -7 -19 -7h-226q-9 0 -11.5 5t2.5 13z" />
    <glyph glyph-name="Ucircumflex" unicode="&#xdb;" horiz-adv-x="1471" 
d="M735 -31q-275 0 -426.5 144.5t-151.5 410.5v904q0 16 15 16h251q6 0 10.5 -4.5t4.5 -11.5v-897q0 -160 76.5 -243t220.5 -83t221.5 83t77.5 243v897q0 16 16 16h250q6 0 11 -4.5t5 -11.5v-904q0 -265 -152.5 -410t-428.5 -145zM397 1596l174 238q6 9 19 9h295q13 0 18 -9
l174 -238q5 -8 2 -13t-12 -5h-206q-12 0 -18 9l-59 73q-21 27 -48 27t-48 -28l-56 -72q-6 -9 -19 -9h-206q-9 0 -12 5t2 13z" />
    <glyph glyph-name="Udieresis" unicode="&#xdc;" horiz-adv-x="1471" 
d="M735 -31q-275 0 -426.5 144.5t-151.5 410.5v904q0 16 15 16h251q6 0 10.5 -4.5t4.5 -11.5v-897q0 -160 76.5 -243t220.5 -83t221.5 83t77.5 243v897q0 16 16 16h250q6 0 11 -4.5t5 -11.5v-904q0 -265 -152.5 -410t-428.5 -145zM413 1587v221q0 16 15 16h223q16 0 16 -16
v-221q0 -15 -16 -15h-223q-15 0 -15 15zM806 1587v221q0 16 15 16h223q16 0 16 -16v-221q0 -15 -16 -15h-223q-15 0 -15 15z" />
    <glyph glyph-name="Yacute" unicode="&#xdd;" horiz-adv-x="1347" 
d="M610 924q24 -43 64.5 -43t63.5 43l278 510q6 10 18 10h281q9 0 12 -5.5t-1 -13.5l-491 -842q-21 -36 -21 -74v-494q0 -15 -15 -15h-251q-16 0 -16 15v494q0 41 -19 74l-491 842q-10 19 10 19h281q14 0 19 -10zM546 1596l169 238q5 9 18 9h294q10 0 12.5 -5.5t-4.5 -12.5
l-235 -240q-7 -7 -20 -7h-225q-9 0 -11.5 5t2.5 13z" />
    <glyph glyph-name="Thorn" unicode="&#xde;" horiz-adv-x="1348" 
d="M171 1428q0 7 4.5 11.5t10.5 4.5h251q16 0 16 -16v-152q0 -29 19 -48.5t48 -19.5h244q236 0 369.5 -117.5t133.5 -333.5q0 -217 -133.5 -336.5t-368.5 -119.5h-239q-32 0 -52.5 -20.5t-20.5 -52.5v-213q0 -6 -5 -10.5t-11 -4.5h-251q-6 0 -10.5 4.5t-4.5 10.5v1413z
M451 606q0 -32 20.5 -53t51.5 -21h205q121 0 185 58t64 170q0 107 -65 163.5t-187 56.5h-202q-31 0 -51.5 -21t-20.5 -53v-300z" />
    <glyph glyph-name="germandbls" unicode="&#xdf;" horiz-adv-x="1253" 
d="M672 0h-103q-15 2 -15 16v192q0 15 15 15q27 -1 94 -1q94 0 161 55.5t67 158.5q0 76 -44 125t-110 68.5t-154 19.5q-16 0 -16 16v192q0 15 16 15q92 0 151.5 51.5t59.5 154.5q0 87 -50.5 136t-133.5 49q-88 0 -137.5 -54t-49.5 -154v-1040q0 -15 -15 -15h-241
q-15 0 -15 15v1037q0 202 120 312.5t339 110.5q126 0 227.5 -41.5t163.5 -127t62 -202.5q0 -63 -18.5 -115t-40.5 -79.5t-40.5 -55.5t-18.5 -47q0 -16 23 -37.5t56 -49.5t65.5 -65t55.5 -97.5t23 -134.5q0 -204 -134.5 -313.5t-362.5 -109.5z" />
    <glyph glyph-name="agrave" unicode="&#xe0;" horiz-adv-x="1167" 
d="M578 1075q207 0 327.5 -103.5t121.5 -292.5l2 -664q0 -15 -15 -15h-185q-19 0 -28 13l-16 20q-19 24 -46.5 26.5t-52.5 -16.5q-100 -74 -241 -74q-95 0 -174.5 36t-131 111.5t-51.5 176.5q0 269 372 328l224 37q66 10 66 76v1q0 50 -47 92t-133 42q-161 0 -211 -140
q-5 -14 -20 -9l-206 75q-16 6 -9 20q49 115 165 187.5t289 72.5zM219 1425q-7 7 -4.5 13t12.5 6h294q14 0 19 -9l169 -238q5 -7 2 -12.5t-12 -5.5h-225q-12 0 -19 7zM365 299q0 -59 47.5 -95.5t121.5 -36.5q99 0 162.5 64.5t63.5 158.5v38q0 31 -20.5 47t-53.5 9l-159 -34
q-77 -17 -119.5 -56t-42.5 -95z" />
    <glyph glyph-name="aacute" unicode="&#xe1;" horiz-adv-x="1167" 
d="M578 1075q207 0 327.5 -103.5t121.5 -292.5l2 -664q0 -15 -15 -15h-185q-19 0 -28 13l-16 20q-19 24 -46.5 26.5t-52.5 -16.5q-100 -74 -241 -74q-95 0 -174.5 36t-131 111.5t-51.5 176.5q0 269 372 328l224 37q66 10 66 76v1q0 50 -47 92t-133 42q-161 0 -211 -140
q-5 -14 -20 -9l-206 75q-16 6 -9 20q49 115 165 187.5t289 72.5zM365 299q0 -59 47.5 -95.5t121.5 -36.5q99 0 162.5 64.5t63.5 158.5v38q0 31 -20.5 47t-53.5 9l-159 -34q-77 -17 -119.5 -56t-42.5 -95zM451 1197l169 238q5 9 18 9h294q10 0 12.5 -6t-4.5 -13l-235 -239
q-7 -7 -20 -7h-225q-9 0 -11.5 5.5t2.5 12.5z" />
    <glyph glyph-name="acircumflex" unicode="&#xe2;" horiz-adv-x="1167" 
d="M578 1075q207 0 327.5 -103.5t121.5 -292.5l2 -664q0 -15 -15 -15h-185q-19 0 -28 13l-16 20q-19 24 -46.5 26.5t-52.5 -16.5q-100 -74 -241 -74q-95 0 -174.5 36t-131 111.5t-51.5 176.5q0 269 372 328l224 37q66 10 66 76v1q0 50 -47 92t-133 42q-161 0 -211 -140
q-5 -14 -20 -9l-206 75q-16 6 -9 20q49 115 165 187.5t289 72.5zM365 299q0 -59 47.5 -95.5t121.5 -36.5q99 0 162.5 64.5t63.5 158.5v38q0 31 -20.5 47t-53.5 9l-159 -34q-77 -17 -119.5 -56t-42.5 -95z" />
    <glyph glyph-name="atilde" unicode="&#xe3;" horiz-adv-x="1167" 
d="M578 1075q207 0 327.5 -103.5t121.5 -292.5l2 -664q0 -15 -15 -15h-185q-19 0 -28 13l-16 20q-19 24 -46.5 26.5t-52.5 -16.5q-100 -74 -241 -74q-95 0 -174.5 36t-131 111.5t-51.5 176.5q0 269 372 328l224 37q66 10 66 76v1q0 50 -47 92t-133 42q-161 0 -211 -140
q-5 -14 -20 -9l-206 75q-16 6 -9 20q49 115 165 187.5t289 72.5zM204 1228q0 106 61.5 171.5t156.5 65.5q85 0 166 -55l44 -30q29 -19 39 -25.5t23.5 -11.5t28.5 -5q64 0 64 77q0 16 16 16h138q15 0 15 -16q0 -103 -62 -169.5t-165 -66.5q-86 0 -174 62l-42 29q-4 2 -15 10
t-15.5 10.5t-12.5 7t-14.5 6t-13.5 1.5q-32 0 -50.5 -22.5t-18.5 -54.5q0 -16 -17 -16h-137q-15 0 -15 16zM365 299q0 -59 47.5 -95.5t121.5 -36.5q99 0 162.5 64.5t63.5 158.5v38q0 31 -20.5 47t-53.5 9l-159 -34q-77 -17 -119.5 -56t-42.5 -95z" />
    <glyph glyph-name="adieresis" unicode="&#xe4;" horiz-adv-x="1167" 
d="M578 1075q207 0 327.5 -103.5t121.5 -292.5l2 -664q0 -15 -15 -15h-185q-19 0 -28 13l-16 20q-19 24 -46.5 26.5t-52.5 -16.5q-100 -74 -241 -74q-95 0 -174.5 36t-131 111.5t-51.5 176.5q0 269 372 328l224 37q66 10 66 76v1q0 50 -47 92t-133 42q-161 0 -211 -140
q-5 -14 -20 -9l-206 75q-16 6 -9 20q49 115 165 187.5t289 72.5zM256 1188v221q0 15 15 15h224q15 0 15 -15v-221q0 -16 -15 -16h-224q-15 0 -15 16zM365 299q0 -59 47.5 -95.5t121.5 -36.5q99 0 162.5 64.5t63.5 158.5v38q0 31 -20.5 47t-53.5 9l-159 -34
q-77 -17 -119.5 -56t-42.5 -95zM649 1188v221q0 15 16 15h223q15 0 15 -15v-221q0 -16 -15 -16h-223q-16 0 -16 16z" />
    <glyph glyph-name="aring" unicode="&#xe5;" horiz-adv-x="1167" 
d="M578 1075q207 0 327.5 -103.5t121.5 -292.5l2 -664q0 -15 -15 -15h-185q-19 0 -28 13l-16 20q-19 24 -46.5 26.5t-52.5 -16.5q-100 -74 -241 -74q-95 0 -174.5 36t-131 111.5t-51.5 176.5q0 269 372 328l224 37q66 10 66 76v1q0 50 -47 92t-133 42q-161 0 -211 -140
q-5 -14 -20 -9l-206 75q-16 6 -9 20q49 115 165 187.5t289 72.5zM365 299q0 -59 47.5 -95.5t121.5 -36.5q99 0 162.5 64.5t63.5 158.5v38q0 31 -20.5 47t-53.5 9l-159 -34q-77 -17 -119.5 -56t-42.5 -95zM366 1350q0 87 61.5 145t151.5 58q91 0 153 -58t62 -145
q0 -88 -62 -147t-153 -59q-90 0 -151.5 59t-61.5 147zM506 1349q0 -31 21.5 -52.5t51.5 -21.5q33 0 53.5 21t20.5 53q0 31 -21.5 52.5t-52.5 21.5q-30 0 -51.5 -21t-21.5 -53z" />
    <glyph glyph-name="ae" unicode="&#xe6;" horiz-adv-x="1869" 
d="M578 1075q80 0 146 -18t99.5 -39t64.5 -39t49 -18q21 0 54.5 18t68 39t99 39t139.5 18q224 0 356.5 -150t132.5 -385v-61q0 -6 -4.5 -10.5t-10.5 -4.5h-623q-26 0 -41 -15.5t-15 -38.5q0 -98 63.5 -164t166.5 -66q82 0 135 40t98 111q9 14 22 4l168 -111q13 -9 5 -21
q-148 -234 -437 -234q-90 0 -164.5 24t-113 52.5t-73 52.5t-54.5 24q-19 0 -44.5 -16t-58 -38t-75 -44.5t-111 -38.5t-149.5 -16q-103 0 -188.5 36t-140 111t-54.5 177q0 271 372 328l238 38q48 7 48 54v12q0 63 -47 103.5t-128 40.5q-48 0 -86 -12.5t-62 -35t-38 -43.5
t-27 -49q-7 -14 -20 -9l-204 75q-15 6 -9 20q52 115 165 187.5t288 72.5zM366 300q0 -60 46.5 -96.5t119.5 -36.5q95 0 158.5 61t63.5 152v46q0 29 -21.5 46t-52.5 9l-161 -35q-153 -37 -153 -146zM1094 694q0 -20 13 -33t34 -13h311q21 0 34 12.5t13 32.5q0 75 -56 128
t-145 53q-92 0 -148 -53t-56 -127z" />
    <glyph glyph-name="ccedilla" unicode="&#xe7;" horiz-adv-x="1168" 
d="M1097 309q-20 -58 -52.5 -109.5t-82 -101.5t-122 -83.5t-160.5 -42.5q-3 -16 17 -32t46 -30t48.5 -45.5t22.5 -73.5q0 -87 -72.5 -131t-193.5 -44h-87q-16 0 -16 15v98q0 15 16 15h44q52 0 88 14t36 42q0 56 -86 56h-39q-19 0 -14 17l34 103q-198 30 -318 177.5
t-120 368.5q0 248 148.5 400.5t383.5 152.5q174 0 296 -86t173 -229q5 -15 -10 -20l-197 -65q-15 -6 -20 9q-65 177 -235 177q-123 0 -187.5 -88.5t-64.5 -250.5q0 -161 64.5 -249.5t187.5 -88.5q54 0 97 18t71 50t45.5 63.5t31.5 71.5q5 14 20 9l197 -66q15 -5 10 -21z" />
    <glyph glyph-name="egrave" unicode="&#xe8;" horiz-adv-x="1202" 
d="M1122 479q0 -6 -4.5 -10.5t-10.5 -4.5h-675q-24 0 -37 -15t-13 -37q0 -93 67 -161.5t178 -68.5q155 0 249 147q9 14 21 5l166 -110q13 -9 5 -21q-66 -102 -177.5 -168t-275.5 -66q-241 0 -384.5 151.5t-143.5 402.5q0 247 144.5 399.5t376.5 152.5q230 0 372 -149.5
t142 -385.5v-61zM253 1425q-7 7 -4.5 13t12.5 6h294q13 0 18 -9l169 -238q5 -7 2.5 -12.5t-11.5 -5.5h-225q-13 0 -20 7zM400 694q0 -20 13 -33t36 -13h326q22 0 34.5 13t12.5 33q0 78 -58.5 131t-152.5 53q-93 0 -152 -53t-59 -131z" />
    <glyph glyph-name="eacute" unicode="&#xe9;" horiz-adv-x="1202" 
d="M1122 479q0 -6 -4.5 -10.5t-10.5 -4.5h-675q-24 0 -37 -15t-13 -37q0 -93 67 -161.5t178 -68.5q155 0 249 147q9 14 21 5l166 -110q13 -9 5 -21q-66 -102 -177.5 -168t-275.5 -66q-241 0 -384.5 151.5t-143.5 402.5q0 247 144.5 399.5t376.5 152.5q230 0 372 -149.5
t142 -385.5v-61zM400 694q0 -20 13 -33t36 -13h326q22 0 34.5 13t12.5 33q0 78 -58.5 131t-152.5 53q-93 0 -152 -53t-59 -131zM484 1197l169 238q5 9 19 9h294q10 0 12.5 -6t-4.5 -13l-236 -239q-7 -7 -19 -7h-225q-9 0 -12 5.5t2 12.5z" />
    <glyph glyph-name="ecircumflex" unicode="&#xea;" horiz-adv-x="1202" 
d="M1122 479q0 -6 -4.5 -10.5t-10.5 -4.5h-675q-24 0 -37 -15t-13 -37q0 -93 67 -161.5t178 -68.5q155 0 249 147q9 14 21 5l166 -110q13 -9 5 -21q-66 -102 -177.5 -168t-275.5 -66q-241 0 -384.5 151.5t-143.5 402.5q0 247 144.5 399.5t376.5 152.5q230 0 372 -149.5
t142 -385.5v-61zM274 1197l175 238q6 9 18 9h295q13 0 18 -9l174 -238q5 -7 2 -12.5t-12 -5.5h-206q-12 0 -18 9l-58 73q-21 27 -48.5 27t-48.5 -28l-56 -72q-6 -9 -19 -9h-206q-9 0 -12 5.5t2 12.5zM400 694q0 -20 13 -33t36 -13h326q22 0 34.5 13t12.5 33q0 78 -58.5 131
t-152.5 53q-93 0 -152 -53t-59 -131z" />
    <glyph glyph-name="edieresis" unicode="&#xeb;" horiz-adv-x="1202" 
d="M1122 479q0 -6 -4.5 -10.5t-10.5 -4.5h-675q-24 0 -37 -15t-13 -37q0 -93 67 -161.5t178 -68.5q155 0 249 147q9 14 21 5l166 -110q13 -9 5 -21q-66 -102 -177.5 -168t-275.5 -66q-241 0 -384.5 151.5t-143.5 402.5q0 247 144.5 399.5t376.5 152.5q230 0 372 -149.5
t142 -385.5v-61zM290 1188v221q0 15 15 15h223q16 0 16 -15v-221q0 -16 -16 -16h-223q-15 0 -15 16zM400 694q0 -20 13 -33t36 -13h326q22 0 34.5 13t12.5 33q0 78 -58.5 131t-152.5 53q-93 0 -152 -53t-59 -131zM683 1188v221q0 15 15 15h224q15 0 15 -15v-221
q0 -16 -15 -16h-224q-15 0 -15 16z" />
    <glyph glyph-name="igrave" unicode="&#xec;" horiz-adv-x="579" 
d="M152 1029q0 6 4.5 10.5t10.5 4.5h246q6 0 10.5 -4.5t4.5 -10.5v-1014q0 -6 -4.5 -10.5t-10.5 -4.5h-246q-6 0 -10.5 4.5t-4.5 10.5v1014zM-71 1425q-7 7 -4 13t13 6h293q14 0 19 -9l169 -238q5 -7 2.5 -12.5t-11.5 -5.5h-226q-12 0 -19 7z" />
    <glyph glyph-name="iacute" unicode="&#xed;" horiz-adv-x="579" 
d="M152 1029q0 6 4.5 10.5t10.5 4.5h246q6 0 10.5 -4.5t4.5 -10.5v-1014q0 -6 -4.5 -10.5t-10.5 -4.5h-246q-6 0 -10.5 4.5t-4.5 10.5v1014zM161 1197l169 238q5 9 18 9h294q10 0 12.5 -6t-4.5 -13l-235 -239q-7 -7 -20 -7h-225q-9 0 -11.5 5.5t2.5 12.5z" />
    <glyph glyph-name="icircumflex" unicode="&#xee;" horiz-adv-x="579" 
d="M152 1029q0 6 4.5 10.5t10.5 4.5h246q6 0 10.5 -4.5t4.5 -10.5v-1014q0 -6 -4.5 -10.5t-10.5 -4.5h-246q-6 0 -10.5 4.5t-4.5 10.5v1014z" />
    <glyph glyph-name="idieresis" unicode="&#xef;" horiz-adv-x="579" 
d="M152 1029q0 6 4.5 10.5t10.5 4.5h246q6 0 10.5 -4.5t4.5 -10.5v-1014q0 -6 -4.5 -10.5t-10.5 -4.5h-246q-6 0 -10.5 4.5t-4.5 10.5v1014zM-33 1188v221q0 15 16 15h223q15 0 15 -15v-221q0 -16 -15 -16h-223q-16 0 -16 16zM360 1188v221q0 15 16 15h223q15 0 15 -15v-221
q0 -16 -15 -16h-223q-16 0 -16 16z" />
    <glyph glyph-name="eth" unicode="&#xf0;" horiz-adv-x="1283" 
d="M1179 601q0 -284 -147 -457.5t-409 -173.5q-152 0 -272.5 64t-192.5 192.5t-72 304.5q1 236 144 390t367 154q49 0 90.5 -12.5t67.5 -25.5t35 -13q36 0 13 56q-26 65 -88 122q-54 50 -98 50q-25 0 -44 -27l-51 -76q-9 -14 -21 -5l-102 67q-12 9 -4 21l43 65
q14 20 8.5 43.5t-29.5 32.5l-81 33q-15 6 -9 20l83 182q6 13 20 8l120 -50q52 -22 83 24l52 79q9 14 21 5l101 -68q12 -9 4 -21l-38 -58q-15 -23 -15 -44q0 -17 23 -40.5t60.5 -55t82 -74.5t89.5 -109t82.5 -146.5t60.5 -199.5t23 -257zM372 530q0 -166 68 -256t193 -90
q122 0 187.5 89.5t65.5 256.5q0 159 -65.5 245t-187.5 86q-125 0 -193 -86t-68 -245z" />
    <glyph glyph-name="ntilde" unicode="&#xf1;" 
d="M758 1075q169 0 264 -100t95 -276v-684q0 -6 -4.5 -10.5t-10.5 -4.5h-246q-15 0 -15 15v631q0 105 -45 160t-132 55q-46 0 -86.5 -15t-75 -45.5t-54.5 -85.5t-20 -127v-573q0 -15 -15 -15h-246q-6 0 -10.5 4.5t-4.5 10.5v1014q0 15 15 15h179q24 0 37 -16l18 -23
q18 -22 45 -25.5t54 14.5q111 81 258 81zM252 1228q0 106 61.5 171.5t156.5 65.5q85 0 166 -55l44 -30q29 -19 39 -25.5t23.5 -11.5t28.5 -5q31 0 48 20t17 57q0 16 15 16h138q16 0 16 -16q0 -102 -62.5 -169t-165.5 -67q-86 0 -174 62l-42 29q-4 2 -15 10t-15.5 10.5
t-12.5 7t-14.5 6t-13.5 1.5q-32 0 -50.5 -22.5t-18.5 -54.5q0 -16 -17 -16h-137q-15 0 -15 16z" />
    <glyph glyph-name="ograve" unicode="&#xf2;" horiz-adv-x="1239" 
d="M865 522q0 -163 -63 -250.5t-182 -87.5q-118 0 -182 87.5t-64 250.5t64 251t182 88q119 0 182 -88t63 -251zM86 522q0 -249 147 -401t385 -152q239 0 387 152.5t148 400.5q0 249 -148 401t-387 152q-238 0 -385 -152t-147 -401zM258 1425q-7 7 -4.5 13t12.5 6h294
q14 0 19 -9l169 -238q5 -7 2 -12.5t-12 -5.5h-225q-12 0 -19 7z" />
    <glyph glyph-name="oacute" unicode="&#xf3;" horiz-adv-x="1239" 
d="M865 522q0 -163 -63 -250.5t-182 -87.5q-118 0 -182 87.5t-64 250.5t64 251t182 88q119 0 182 -88t63 -251zM86 522q0 -249 147 -401t385 -152q239 0 387 152.5t148 400.5q0 249 -148 401t-387 152q-238 0 -385 -152t-147 -401zM489 1197l169 238q5 9 19 9h294
q10 0 12.5 -6t-4.5 -13l-236 -239q-7 -7 -19 -7h-225q-9 0 -12 5.5t2 12.5z" />
    <glyph glyph-name="ocircumflex" unicode="&#xf4;" horiz-adv-x="1239" 
d="M865 522q0 -163 -63 -250.5t-182 -87.5q-118 0 -182 87.5t-64 250.5t64 251t182 88q119 0 182 -88t63 -251zM86 522q0 -249 147 -401t385 -152q239 0 387 152.5t148 400.5q0 249 -148 401t-387 152q-238 0 -385 -152t-147 -401zM281 1197l174 238q6 9 18 9h295
q13 0 18 -9l175 -238q5 -7 1.5 -12.5t-12.5 -5.5h-206q-12 0 -18 9l-58 73q-21 27 -48.5 27t-48.5 -28l-56 -72q-6 -9 -18 -9h-207q-9 0 -11.5 5.5t2.5 12.5z" />
    <glyph glyph-name="otilde" unicode="&#xf5;" horiz-adv-x="1239" 
d="M865 522q0 -163 -63 -250.5t-182 -87.5q-118 0 -182 87.5t-64 250.5t64 251t182 88q119 0 182 -88t63 -251zM86 522q0 -249 147 -401t385 -152q239 0 387 152.5t148 400.5q0 249 -148 401t-387 152q-238 0 -385 -152t-147 -401zM244 1228q0 106 61.5 171.5t156.5 65.5
q85 0 166 -55l44 -30q29 -19 39 -25.5t23.5 -11.5t28.5 -5q64 0 64 77q0 16 16 16h138q15 0 15 -16q0 -103 -62 -169.5t-165 -66.5q-86 0 -174 62l-42 29q-4 2 -15 10t-15.5 10.5t-12.5 7t-14.5 6t-13.5 1.5q-32 0 -50.5 -22.5t-18.5 -54.5q0 -16 -17 -16h-137q-15 0 -15 16
z" />
    <glyph glyph-name="odieresis" unicode="&#xf6;" horiz-adv-x="1239" 
d="M865 522q0 -163 -63 -250.5t-182 -87.5q-118 0 -182 87.5t-64 250.5t64 251t182 88q119 0 182 -88t63 -251zM86 522q0 -249 147 -401t385 -152q239 0 387 152.5t148 400.5q0 249 -148 401t-387 152q-238 0 -385 -152t-147 -401zM296 1188v221q0 15 15 15h224q15 0 15 -15
v-221q0 -16 -15 -16h-224q-15 0 -15 16zM689 1188v221q0 15 16 15h223q15 0 15 -15v-221q0 -16 -15 -16h-223q-16 0 -16 16z" />
    <glyph glyph-name="divide" unicode="&#xf7;" horiz-adv-x="1085" 
d="M1009 780q15 0 15 -15v-184q0 -16 -15 -16h-932q-16 0 -16 16v184q0 15 16 15h932zM416 172v221q0 16 15 16h223q16 0 16 -16v-221q0 -15 -16 -15h-223q-15 0 -15 15zM416 942v221q0 16 15 16h223q16 0 16 -16v-221q0 -15 -16 -15h-223q-15 0 -15 15z" />
    <glyph glyph-name="oslash" unicode="&#xf8;" horiz-adv-x="1243" 
d="M785 593q16 16 34 14.5t33 -27.5t15 -65q0 -134 -62 -219t-172 -85q-48 0 -79 26.5t-8 56.5zM92 522q0 -162 68 -293q27 -53 31 -77t-14 -51l-57 -72q-10 -11 3 -22l108 -86q12 -10 22 2l52 66q18 22 48 24.5t88 -14.5q88 -30 181 -30q238 0 384 152t146 401
q0 164 -69 294q-18 35 -25 51t-7 38t14 40l58 74q9 11 -3 21l-108 86q-12 10 -22 -2l-52 -66q-16 -20 -38 -25t-39.5 -2t-59.5 15q-84 29 -179 29q-238 0 -384 -152t-146 -401zM379 530q-2 135 61.5 220.5t172.5 85.5q49 0 77 -27t8 -53l-239 -298q-15 -15 -33 -9.5
t-32.5 29.5t-14.5 52z" />
    <glyph glyph-name="ugrave" unicode="&#xf9;" 
d="M500 -31q-169 0 -264.5 100t-95.5 276v684q0 6 5 10.5t11 4.5h245q7 0 11.5 -4.5t4.5 -10.5v-631q0 -105 45 -160t132 -55q46 0 86 15t74.5 46t54.5 86t20 127v572q0 6 4.5 10.5t11.5 4.5h246q6 0 10.5 -4.5t4.5 -10.5v-1014q0 -15 -15 -15h-180q-24 0 -37 16l-18 24
q-18 22 -44.5 25t-53.5 -15q-111 -81 -258 -81zM258 1425q-7 7 -4.5 13t12.5 6h294q14 0 19 -9l169 -238q5 -7 2 -12.5t-12 -5.5h-225q-12 0 -19 7z" />
    <glyph glyph-name="uacute" unicode="&#xfa;" 
d="M500 -31q-169 0 -264.5 100t-95.5 276v684q0 6 5 10.5t11 4.5h245q7 0 11.5 -4.5t4.5 -10.5v-631q0 -105 45 -160t132 -55q46 0 86 15t74.5 46t54.5 86t20 127v572q0 6 4.5 10.5t11.5 4.5h246q6 0 10.5 -4.5t4.5 -10.5v-1014q0 -15 -15 -15h-180q-24 0 -37 16l-18 24
q-18 22 -44.5 25t-53.5 -15q-111 -81 -258 -81zM489 1197l169 238q5 9 19 9h294q10 0 12.5 -6t-4.5 -13l-236 -239q-7 -7 -19 -7h-225q-9 0 -12 5.5t2 12.5z" />
    <glyph glyph-name="ucircumflex" unicode="&#xfb;" 
d="M500 -31q-169 0 -264.5 100t-95.5 276v684q0 6 5 10.5t11 4.5h245q7 0 11.5 -4.5t4.5 -10.5v-631q0 -105 45 -160t132 -55q46 0 86 15t74.5 46t54.5 86t20 127v572q0 6 4.5 10.5t11.5 4.5h246q6 0 10.5 -4.5t4.5 -10.5v-1014q0 -15 -15 -15h-180q-24 0 -37 16l-18 24
q-18 22 -44.5 25t-53.5 -15q-111 -81 -258 -81zM281 1197l174 238q6 9 18 9h295q13 0 18 -9l175 -238q5 -7 1.5 -12.5t-12.5 -5.5h-206q-12 0 -18 9l-58 73q-21 27 -48.5 27t-48.5 -28l-56 -72q-6 -9 -18 -9h-207q-9 0 -11.5 5.5t2.5 12.5z" />
    <glyph glyph-name="udieresis" unicode="&#xfc;" 
d="M500 -31q-169 0 -264.5 100t-95.5 276v684q0 6 5 10.5t11 4.5h245q7 0 11.5 -4.5t4.5 -10.5v-631q0 -105 45 -160t132 -55q46 0 86 15t74.5 46t54.5 86t20 127v572q0 6 4.5 10.5t11.5 4.5h246q6 0 10.5 -4.5t4.5 -10.5v-1014q0 -15 -15 -15h-180q-24 0 -37 16l-18 24
q-18 22 -44.5 25t-53.5 -15q-111 -81 -258 -81zM296 1188v221q0 15 15 15h224q15 0 15 -15v-221q0 -16 -15 -16h-224q-15 0 -15 16zM689 1188v221q0 15 16 15h223q15 0 15 -15v-221q0 -16 -15 -16h-223q-16 0 -16 16z" />
    <glyph glyph-name="yacute" unicode="&#xfd;" horiz-adv-x="1149" 
d="M42 1027q-5 17 12 17h258q15 0 18 -12l189 -577q14 -44 55.5 -43.5t55.5 44.5l189 576q3 12 18 12h260q18 0 12 -17l-440 -1169q-52 -140 -142.5 -191t-240.5 -51h-112q-13 0 -13 16v201q0 15 15 15h89q53 0 83.5 17t47.5 59l17 44q13 33 -1 70zM445 1197l169 238
q5 9 19 9h294q10 0 12.5 -6t-4.5 -13l-236 -239q-7 -7 -19 -7h-225q-9 0 -12 5.5t2 12.5z" />
    <glyph glyph-name="thorn" unicode="&#xfe;" horiz-adv-x="1304" 
d="M754 -15q-49 0 -94 11t-71 23.5t-51 23.5t-39 11q-31 0 -51 -20t-20 -51v-356q0 -6 -4.5 -10.5t-10.5 -4.5h-246q-6 0 -10.5 4.5t-4.5 10.5v1801q0 6 4.5 11t10.5 5h247q6 0 10.5 -5t4.5 -11l-1 -361q0 -33 19.5 -55t51.5 -22q16 0 50 17.5t86 35t111 17.5
q210 0 339.5 -148.5t129.5 -387.5q0 -240 -128 -389.5t-333 -149.5zM427 522q0 -155 65 -238.5t186 -83.5q122 0 187.5 83.5t65.5 238.5q0 156 -65.5 240t-187.5 84q-121 -1 -186 -85t-65 -239z" />
    <glyph glyph-name="ydieresis" unicode="&#xff;" horiz-adv-x="1149" 
d="M42 1027q-5 17 12 17h258q15 0 18 -12l189 -577q14 -44 55.5 -43.5t55.5 44.5l189 576q3 12 18 12h260q18 0 12 -17l-440 -1169q-52 -140 -142.5 -191t-240.5 -51h-112q-13 0 -13 16v201q0 15 15 15h89q53 0 83.5 17t47.5 59l17 44q13 33 -1 70zM252 1188v221q0 15 15 15
h223q16 0 16 -15v-221q0 -16 -16 -16h-223q-15 0 -15 16zM645 1188v221q0 15 15 15h224q15 0 15 -15v-221q0 -16 -15 -16h-224q-15 0 -15 16z" />
    <glyph glyph-name="Amacron" unicode="&#x100;" horiz-adv-x="1472" 
d="M906 1444q14 0 18 -12l520 -1415q5 -17 -12 -17h-263q-13 0 -17 12l-97 275q-16 52 -75 52h-487q-59 0 -74 -52l-97 -275q-4 -12 -19 -12h-261q-19 0 -12 17l519 1415q4 12 18 12h339zM463 1663v144q0 6 4.5 11t10.5 5h524q6 0 11 -5t5 -11v-144q0 -6 -5 -10.5t-11 -4.5
h-524q-6 0 -10.5 4.5t-4.5 10.5zM538 631q-9 -32 8.5 -55.5t51.5 -23.5h276q34 0 52.5 23.5t8.5 55.5l-145 425q-8 25 -31 35t-46 0t-30 -35z" />
    <glyph glyph-name="amacron" unicode="&#x101;" horiz-adv-x="1167" 
d="M578 1075q207 0 327.5 -103.5t121.5 -292.5l2 -664q0 -15 -15 -15h-185q-19 0 -28 13l-16 20q-19 24 -46.5 26.5t-52.5 -16.5q-100 -74 -241 -74q-95 0 -174.5 36t-131 111.5t-51.5 176.5q0 269 372 328l224 37q66 10 66 76v1q0 50 -47 92t-133 42q-161 0 -211 -140
q-5 -14 -20 -9l-206 75q-16 6 -9 20q49 115 165 187.5t289 72.5zM306 1264v144q0 6 5 10.5t11 4.5h524q6 0 10.5 -4.5t4.5 -10.5v-144q0 -6 -4.5 -11t-10.5 -5h-524q-6 0 -11 5t-5 11zM365 299q0 -59 47.5 -95.5t121.5 -36.5q99 0 162.5 64.5t63.5 158.5v38q0 31 -20.5 47
t-53.5 9l-159 -34q-77 -17 -119.5 -56t-42.5 -95z" />
    <glyph glyph-name="Abreve" unicode="&#x102;" horiz-adv-x="1472" 
d="M906 1444q14 0 18 -12l520 -1415q5 -17 -12 -17h-263q-13 0 -17 12l-97 275q-16 52 -75 52h-487q-59 0 -74 -52l-97 -275q-4 -12 -19 -12h-261q-19 0 -12 17l519 1415q4 12 18 12h339zM421 1828q0 15 15 15h158q16 0 16 -15q0 -44 34.5 -74t89.5 -30t92.5 30t37.5 74
q0 15 17 15h156q16 0 16 -12q0 -117 -91 -193t-226 -76q-131 0 -223 75t-92 191zM538 631q-9 -32 8.5 -55.5t51.5 -23.5h276q34 0 52.5 23.5t8.5 55.5l-145 425q-8 25 -31 35t-46 0t-30 -35z" />
    <glyph glyph-name="abreve" unicode="&#x103;" horiz-adv-x="1167" 
d="M578 1075q207 0 327.5 -103.5t121.5 -292.5l2 -664q0 -15 -15 -15h-185q-19 0 -28 13l-16 20q-19 24 -46.5 26.5t-52.5 -16.5q-100 -74 -241 -74q-95 0 -174.5 36t-131 111.5t-51.5 176.5q0 269 372 328l224 37q66 10 66 76v1q0 50 -47 92t-133 42q-161 0 -211 -140
q-5 -14 -20 -9l-206 75q-16 6 -9 20q49 115 165 187.5t289 72.5zM264 1428q0 16 16 16h157q17 0 17 -16q0 -44 34.5 -73.5t89.5 -29.5q56 0 93 29.5t37 73.5q0 16 16 16h157q15 0 15 -12q0 -117 -90.5 -193.5t-225.5 -76.5q-131 0 -223.5 75t-92.5 191zM365 299
q0 -59 47.5 -95.5t121.5 -36.5q99 0 162.5 64.5t63.5 158.5v38q0 31 -20.5 47t-53.5 9l-159 -34q-77 -17 -119.5 -56t-42.5 -95z" />
    <glyph glyph-name="Aogonek" unicode="&#x104;" horiz-adv-x="1472" 
d="M906 1444q14 0 18 -12l519 -1415q5 -13 -8 -16q-125 -34 -172.5 -84.5t-47.5 -113.5q0 -45 33.5 -69.5t85.5 -24.5h12.5h15.5h13q16 0 16 -15l-1 -136q0 -14 -14 -17q-62 -12 -125 -12q-110 0 -180 59t-70 164q0 56 25 106t53.5 79t47.5 60.5t10 57.5l-82 225
q-17 52 -74 52h-489q-57 0 -74 -52l-96 -268q-4 -12 -19 -12h-261q-19 0 -12 17l519 1415q4 12 18 12h339zM541 631q-10 -32 8 -55.5t52 -23.5h271q33 0 51.5 23.5t8.5 55.5l-142 410q-8 25 -31 34.5t-46 0t-30 -34.5z" />
    <glyph glyph-name="aogonek" unicode="&#x105;" horiz-adv-x="1167" 
d="M578 1075q207 0 327.5 -103.5t121.5 -292.5l2 -664q0 -11 -12 -15q-182 -93 -182 -205q0 -86 111 -86h43q16 0 16 -15v-136q0 -14 -14 -17q-61 -12 -127 -12q-110 0 -179.5 58.5t-69.5 164.5q0 36 14 72.5t31 59.5t33.5 46t19.5 35q2 18 -11 32l-10 35q-14 15 -35 15
q-11 0 -40 -15.5t-74.5 -31t-97.5 -15.5q-150 0 -253.5 81t-103.5 227q0 269 372 328l223 36q67 11 67 76v1q0 56 -49 95.5t-132 39.5q-147 0 -212 -140q-6 -15 -19 -9l-205 75q-15 6 -9 20q54 116 167 188t287 72zM366 305q0 -59 47 -94.5t121 -35.5q96 0 158 56.5
t62 147.5v46q0 30 -21 47.5t-54 8.5l-159 -35q-154 -37 -154 -141z" />
    <glyph glyph-name="Cacute" unicode="&#x106;" horiz-adv-x="1536" 
d="M1207 539q5 17 21 12l226 -67q16 -5 11 -17q-23 -80 -60.5 -151.5t-95 -135.5t-129.5 -110.5t-169 -73.5t-208 -27q-321 0 -514.5 206.5t-193.5 546.5q0 224 88 395t249.5 264.5t372.5 93.5q130 0 240 -34t188 -93.5t131 -134t81 -162.5q5 -14 -10 -19l-224 -71
q-14 -5 -19 9q-15 47 -43.5 91.5t-73.5 86.5t-114 67t-152 25q-203 0 -313 -134t-110 -383q0 -250 109.5 -384t312.5 -134q70 0 130 19.5t102 50.5t76 75.5t55 90.5t36 98zM676 1596l169 238q5 9 18 9h294q10 0 12.5 -5.5t-4.5 -12.5l-235 -240q-7 -7 -20 -7h-225
q-9 0 -11.5 5t2.5 13z" />
    <glyph glyph-name="cacute" unicode="&#x107;" horiz-adv-x="1168" 
d="M1097 309q-17 -49 -42.5 -94.5t-67 -91t-92.5 -79t-123 -54.5t-154 -21q-235 0 -383.5 152.5t-148.5 400.5t148.5 400.5t383.5 152.5q174 0 296 -86t173 -229q5 -15 -10 -20l-197 -65q-15 -6 -20 9q-65 177 -235 177q-123 0 -187.5 -88.5t-64.5 -250.5
q0 -161 64.5 -249.5t187.5 -88.5q54 0 97 18t71 50t45.5 63.5t31.5 71.5q5 14 20 9l197 -66q15 -5 10 -21zM496 1197l169 238q5 9 18 9h294q10 0 12.5 -6t-4.5 -13l-235 -239q-7 -7 -20 -7h-225q-9 0 -11.5 5.5t2.5 12.5z" />
    <glyph glyph-name="Ccircumflex" unicode="&#x108;" horiz-adv-x="1536" 
d="M1207 539q5 17 21 12l226 -67q16 -5 11 -17q-23 -80 -60.5 -151.5t-95 -135.5t-129.5 -110.5t-169 -73.5t-208 -27q-321 0 -514.5 206.5t-193.5 546.5q0 224 88 395t249.5 264.5t372.5 93.5q130 0 240 -34t188 -93.5t131 -134t81 -162.5q5 -14 -10 -19l-224 -71
q-14 -5 -19 9q-15 47 -43.5 91.5t-73.5 86.5t-114 67t-152 25q-203 0 -313 -134t-110 -383q0 -250 109.5 -384t312.5 -134q70 0 130 19.5t102 50.5t76 75.5t55 90.5t36 98z" />
    <glyph glyph-name="ccircumflex" unicode="&#x109;" horiz-adv-x="1168" 
d="M1097 309q-17 -49 -42.5 -94.5t-67 -91t-92.5 -79t-123 -54.5t-154 -21q-235 0 -383.5 152.5t-148.5 400.5t148.5 400.5t383.5 152.5q174 0 296 -86t173 -229q5 -15 -10 -20l-197 -65q-15 -6 -20 9q-65 177 -235 177q-123 0 -187.5 -88.5t-64.5 -250.5
q0 -161 64.5 -249.5t187.5 -88.5q54 0 97 18t71 50t45.5 63.5t31.5 71.5q5 14 20 9l197 -66q15 -5 10 -21z" />
    <glyph glyph-name="Cdotaccent" unicode="&#x10a;" horiz-adv-x="1536" 
d="M1207 539q5 17 21 12l226 -67q16 -5 11 -17q-23 -80 -60.5 -151.5t-95 -135.5t-129.5 -110.5t-169 -73.5t-208 -27q-321 0 -514.5 206.5t-193.5 546.5q0 224 88 395t249.5 264.5t372.5 93.5q130 0 240 -34t188 -93.5t131 -134t81 -162.5q5 -14 -10 -19l-224 -71
q-14 -5 -19 9q-15 47 -43.5 91.5t-73.5 86.5t-114 67t-152 25q-203 0 -313 -134t-110 -383q0 -250 109.5 -384t312.5 -134q70 0 130 19.5t102 50.5t76 75.5t55 90.5t36 98zM678 1587v221q0 16 15 16h223q16 0 16 -16v-221q0 -15 -16 -15h-223q-15 0 -15 15z" />
    <glyph glyph-name="cdotaccent" unicode="&#x10b;" horiz-adv-x="1168" 
d="M1097 309q-17 -49 -42.5 -94.5t-67 -91t-92.5 -79t-123 -54.5t-154 -21q-235 0 -383.5 152.5t-148.5 400.5t148.5 400.5t383.5 152.5q174 0 296 -86t173 -229q5 -15 -10 -20l-197 -65q-15 -6 -20 9q-65 177 -235 177q-123 0 -187.5 -88.5t-64.5 -250.5
q0 -161 64.5 -249.5t187.5 -88.5q54 0 97 18t71 50t45.5 63.5t31.5 71.5q5 14 20 9l197 -66q15 -5 10 -21zM498 1188v221q0 15 15 15h223q16 0 16 -15v-221q0 -16 -16 -16h-223q-15 0 -15 16z" />
    <glyph glyph-name="Ccaron" unicode="&#x10c;" horiz-adv-x="1536" 
d="M1207 539q5 17 21 12l226 -67q16 -5 11 -17q-23 -80 -60.5 -151.5t-95 -135.5t-129.5 -110.5t-169 -73.5t-208 -27q-321 0 -514.5 206.5t-193.5 546.5q0 224 88 395t249.5 264.5t372.5 93.5q130 0 240 -34t188 -93.5t131 -134t81 -162.5q5 -14 -10 -19l-224 -71
q-14 -5 -19 9q-15 47 -43.5 91.5t-73.5 86.5t-114 67t-152 25q-203 0 -313 -134t-110 -383q0 -250 109.5 -384t312.5 -134q70 0 130 19.5t102 50.5t76 75.5t55 90.5t36 98zM466 1824q-5 8 -2 13t12 5h206q12 0 18 -9l59 -73q21 -27 48 -27t48 28l56 72q6 9 19 9h207
q9 0 11.5 -5t-2.5 -13l-174 -238q-6 -9 -19 -9h-295q-13 0 -18 9z" />
    <glyph glyph-name="ccaron" unicode="&#x10d;" horiz-adv-x="1168" 
d="M1097 309q-17 -49 -42.5 -94.5t-67 -91t-92.5 -79t-123 -54.5t-154 -21q-235 0 -383.5 152.5t-148.5 400.5t148.5 400.5t383.5 152.5q174 0 296 -86t173 -229q5 -15 -10 -20l-197 -65q-15 -6 -20 9q-65 177 -235 177q-123 0 -187.5 -88.5t-64.5 -250.5
q0 -161 64.5 -249.5t187.5 -88.5q54 0 97 18t71 50t45.5 63.5t31.5 71.5q5 14 20 9l197 -66q15 -5 10 -21zM286 1424q-5 8 -2 13.5t12 5.5h206q12 0 18 -9l59 -73q21 -27 48 -27t48 28l56 72q6 9 19 9h206q9 0 12 -5.5t-2 -13.5l-174 -237q-6 -9 -19 -9h-295q-13 0 -18 9z
" />
    <glyph glyph-name="Dcaron" unicode="&#x10e;" horiz-adv-x="1538" 
d="M186 0q-6 0 -10.5 4.5t-4.5 10.5v1413q0 6 4.5 11t10.5 5h546q336 0 523 -190t187 -527q0 -336 -188.5 -531.5t-517.5 -195.5h-550zM364 1824q-5 8 -2 13t12 5h206q12 0 18 -9l58 -73q21 -27 48.5 -27t48.5 28l56 72q6 9 18 9h207q9 0 11.5 -5t-2.5 -13l-174 -238
q-6 -9 -18 -9h-295q-13 0 -18 9zM453 310q0 -32 20.5 -52.5t52.5 -20.5h199q202 0 311.5 127t109.5 361q0 231 -109.5 356.5t-311.5 125.5h-199q-32 0 -52.5 -20.5t-20.5 -52.5v-824z" />
    <glyph glyph-name="dcaron" unicode="&#x10f;" horiz-adv-x="1487" 
d="M554 1075q54 0 101 -11.5t69 -22.5t56 -31q34 -19 65.5 -5t31.5 52l-1 371q0 6 4.5 11t10.5 5h247q6 0 10.5 -5t4.5 -11v-1413q0 -6 -4.5 -10.5t-10.5 -4.5h-187q-17 0 -25 12l-20 30q-18 26 -46 29.5t-54 -16.5q-107 -86 -252 -86q-208 0 -337.5 155.5t-129.5 395.5
q0 243 130.5 399t336.5 156zM374 523q0 -163 65.5 -251t186.5 -88t187 88t66 251q0 162 -66 250t-187 88t-186.5 -88t-65.5 -250zM1249 935l76 496q1 13 16 13h244q16 0 13 -17l-140 -495q-3 -12 -16 -12h-179q-15 0 -14 15z" />
    <glyph glyph-name="Dcroat" unicode="&#x110;" horiz-adv-x="1619" 
d="M268 0q-6 0 -10.5 4.5t-4.5 10.5v530q0 30 -20.5 48t-51.5 18h-87q-15 0 -15 16v199q0 16 15 16h87q32 0 52 17.5t20 48.5v520q0 6 4.5 11t10.5 5h551q330 0 517.5 -190.5t187.5 -526.5q0 -335 -188.5 -531t-512.5 -196h-555zM535 304q0 -31 20.5 -50.5t52.5 -19.5h204
q201 0 310.5 131t109.5 362q0 234 -111 358t-323 124h-190q-32 0 -52.5 -19t-20.5 -50v-244q0 -24 16 -39t43 -15h282q6 0 10.5 -5t4.5 -11v-199q0 -7 -4.5 -11.5t-10.5 -4.5h-282q-27 0 -43 -15.5t-16 -39.5v-252z" />
    <glyph glyph-name="dcroat" unicode="&#x111;" horiz-adv-x="1304" 
d="M550 1060q67 0 124.5 -17t95.5 -34.5t58 -17.5q49 0 49 37v85q0 15 -11 26t-33 11h-252q-6 0 -11 4.5t-5 10.5v144q0 6 5 10.5t11 4.5h246q21 0 35 13.5t14 33.5v57q0 6 4.5 11t10.5 5h247q6 0 10.5 -5t4.5 -11v-57q0 -20 13.5 -33.5t33.5 -13.5h81q6 0 10.5 -4.5
t4.5 -10.5v-144q0 -6 -4.5 -10.5t-10.5 -4.5h-73q-24 0 -39.5 -15.5t-15.5 -39.5v-1080q0 -6 -4.5 -10.5t-10.5 -4.5h-162q-29 0 -73 29.5t-66 29.5q-20 0 -58.5 -18.5t-96.5 -37t-124 -18.5q-210 0 -340 148t-130 387q0 240 129 390t333 150zM375 523q0 -156 65.5 -240
t186.5 -83q122 0 187 83.5t65 239.5q0 155 -65.5 239t-186.5 84t-186.5 -84t-65.5 -239z" />
    <glyph glyph-name="Emacron" unicode="&#x112;" horiz-adv-x="1313" 
d="M522 627q-28 0 -46.5 -19t-18.5 -47v-259q0 -28 18.5 -46.5t46.5 -18.5h676q15 0 15 -16v-206q0 -15 -15 -15h-1012q-6 0 -10.5 4.5t-4.5 10.5v1413q0 7 4.5 11.5t10.5 4.5h995q6 0 10.5 -4.5t4.5 -11.5v-205q0 -7 -4.5 -11.5t-10.5 -4.5h-668q-26 0 -43 -17t-17 -43
v-227q0 -26 17 -43t43 -17h590q15 0 15 -15v-205q0 -13 -15 -13h-581zM412 1663v144q0 6 4.5 11t10.5 5h524q6 0 11 -5t5 -11v-144q0 -6 -5 -10.5t-11 -4.5h-524q-6 0 -10.5 4.5t-4.5 10.5z" />
    <glyph glyph-name="emacron" unicode="&#x113;" horiz-adv-x="1202" 
d="M1122 479q0 -6 -4.5 -10.5t-10.5 -4.5h-675q-24 0 -37 -15t-13 -37q0 -93 67 -161.5t178 -68.5q155 0 249 147q9 14 21 5l166 -110q13 -9 5 -21q-66 -102 -177.5 -168t-275.5 -66q-241 0 -384.5 151.5t-143.5 402.5q0 247 144.5 399.5t376.5 152.5q230 0 372 -149.5
t142 -385.5v-61zM340 1264v144q0 6 4.5 10.5t10.5 4.5h525q6 0 10.5 -4.5t4.5 -10.5v-144q0 -6 -4.5 -11t-10.5 -5h-525q-6 0 -10.5 5t-4.5 11zM400 694q0 -20 13 -33t36 -13h326q22 0 34.5 13t12.5 33q0 78 -58.5 131t-152.5 53q-93 0 -152 -53t-59 -131z" />
    <glyph glyph-name="Edotaccent" unicode="&#x116;" horiz-adv-x="1313" 
d="M522 627q-28 0 -46.5 -19t-18.5 -47v-259q0 -28 18.5 -46.5t46.5 -18.5h676q15 0 15 -16v-206q0 -15 -15 -15h-1012q-6 0 -10.5 4.5t-4.5 10.5v1413q0 7 4.5 11.5t10.5 4.5h995q6 0 10.5 -4.5t4.5 -11.5v-205q0 -7 -4.5 -11.5t-10.5 -4.5h-668q-26 0 -43 -17t-17 -43
v-227q0 -26 17 -43t43 -17h590q15 0 15 -15v-205q0 -13 -15 -13h-581zM558 1587v221q0 16 15 16h224q15 0 15 -16v-221q0 -15 -15 -15h-224q-15 0 -15 15z" />
    <glyph glyph-name="edotaccent" unicode="&#x117;" horiz-adv-x="1202" 
d="M1122 479q0 -6 -4.5 -10.5t-10.5 -4.5h-675q-24 0 -37 -15t-13 -37q0 -93 67 -161.5t178 -68.5q155 0 249 147q9 14 21 5l166 -110q13 -9 5 -21q-66 -102 -177.5 -168t-275.5 -66q-241 0 -384.5 151.5t-143.5 402.5q0 247 144.5 399.5t376.5 152.5q230 0 372 -149.5
t142 -385.5v-61zM400 694q0 -20 13 -33t36 -13h326q22 0 34.5 13t12.5 33q0 78 -58.5 131t-152.5 53q-93 0 -152 -53t-59 -131zM486 1188v221q0 15 16 15h223q15 0 15 -15v-221q0 -16 -15 -16h-223q-16 0 -16 16z" />
    <glyph glyph-name="Eogonek" unicode="&#x118;" horiz-adv-x="1313" 
d="M522 627q-28 0 -46.5 -19t-18.5 -47v-259q0 -28 18.5 -46.5t46.5 -18.5h676q15 0 15 -16v-206q0 -13 -13 -15q-179 -93 -179 -204q0 -43 30 -64.5t82 -21.5h41q15 0 15 -15v-136q0 -14 -14 -17q-60 -12 -124 -12q-110 0 -179.5 57.5t-69.5 162.5q0 43 16 80.5t36 58
t36 40.5t16 32q0 39 -53 39h-667q-6 0 -10.5 4.5t-4.5 10.5v1413q0 7 4.5 11.5t10.5 4.5h995q6 0 10.5 -4.5t4.5 -11.5v-205q0 -7 -4.5 -11.5t-10.5 -4.5h-668q-26 0 -43 -17t-17 -43v-227q0 -26 17 -43t43 -17h590q15 0 15 -15v-205q0 -13 -15 -13h-581z" />
    <glyph glyph-name="eogonek" unicode="&#x119;" horiz-adv-x="1200" 
d="M1122 478q0 -6 -4.5 -10.5t-10.5 -4.5h-675q-22 0 -36 -15t-14 -36q0 -93 67 -161.5t178 -68.5q155 0 249 147q9 14 21 5l166 -110q13 -9 5 -21q-7 -11 -79 -97t-125 -169.5t-53 -135.5q0 -50 34 -73t88 -23h41q15 0 15 -15v-136q0 -14 -14 -17q-60 -12 -124 -12
q-111 0 -183.5 59t-73.5 164q0 45 21 87t41.5 71t20.5 41q0 25 -32 25q-3 0 -18 -1.5t-26 -1.5q-227 0 -370.5 152.5t-143.5 401.5q0 247 144.5 399.5t376.5 152.5q230 0 372 -149.5t142 -385.5v-62zM400 694q0 -20 13 -32.5t36 -12.5h326q23 0 35 12.5t12 32.5
q0 74 -60 125.5t-151 51.5t-151 -51t-60 -126z" />
    <glyph glyph-name="Ecaron" unicode="&#x11a;" horiz-adv-x="1313" 
d="M522 627q-28 0 -46.5 -19t-18.5 -47v-259q0 -28 18.5 -46.5t46.5 -18.5h676q15 0 15 -16v-206q0 -15 -15 -15h-1012q-6 0 -10.5 4.5t-4.5 10.5v1413q0 7 4.5 11.5t10.5 4.5h995q6 0 10.5 -4.5t4.5 -11.5v-205q0 -7 -4.5 -11.5t-10.5 -4.5h-668q-26 0 -43 -17t-17 -43
v-227q0 -26 17 -43t43 -17h590q15 0 15 -15v-205q0 -13 -15 -13h-581zM345 1824q-5 8 -2 13t12 5h206q13 0 19 -9l58 -73q21 -27 48 -27t48 28l57 72q6 9 18 9h207q9 0 11.5 -5t-2.5 -13l-174 -238q-6 -9 -18 -9h-295q-14 0 -19 9z" />
    <glyph glyph-name="ecaron" unicode="&#x11b;" horiz-adv-x="1202" 
d="M1122 479q0 -6 -4.5 -10.5t-10.5 -4.5h-675q-24 0 -37 -15t-13 -37q0 -93 67 -161.5t178 -68.5q155 0 249 147q9 14 21 5l166 -110q13 -9 5 -21q-66 -102 -177.5 -168t-275.5 -66q-241 0 -384.5 151.5t-143.5 402.5q0 247 144.5 399.5t376.5 152.5q230 0 372 -149.5
t142 -385.5v-61zM273 1424q-5 8 -1.5 13.5t12.5 5.5h205q13 0 19 -9l58 -73q21 -27 48.5 -27t48.5 28l56 72q6 9 18 9h207q9 0 11.5 -5.5t-2.5 -13.5l-174 -237q-6 -9 -18 -9h-295q-14 0 -19 9zM400 694q0 -20 13 -33t36 -13h326q22 0 34.5 13t12.5 33q0 78 -58.5 131
t-152.5 53q-93 0 -152 -53t-59 -131z" />
    <glyph glyph-name="Gcircumflex" unicode="&#x11c;" horiz-adv-x="1593" 
d="M777 -31q-196 0 -351 93.5t-243 265.5t-88 394q0 339 195.5 546t518.5 207q122 0 227 -31t182 -86t132.5 -123t90.5 -150q6 -14 -9 -21l-220 -83q-15 -7 -20 9q-18 47 -44.5 87.5t-70 79t-110.5 61t-150 22.5q-198 0 -314 -135.5t-116 -382.5q0 -244 111.5 -380.5
t316.5 -136.5q90 0 163 27.5t116 71t65.5 93t22.5 98.5q0 26 -17 43.5t-43 17.5h-344q-15 0 -15 15v196q0 15 15 15h676q15 0 15 -15v-752q0 -15 -15 -15h-175q-15 0 -25 12l-35 43q-18 21 -45 25.5t-55 -12.5q-147 -99 -342 -99z" />
    <glyph glyph-name="gcircumflex" unicode="&#x11d;" horiz-adv-x="1217" 
d="M105 719q1 105 63 186.5t166.5 125.5t232.5 44q69 0 127 -10q30 -6 50 7t27 38q22 74 87 120h-115q-12 0 -18 9l-58 73q-21 27 -48.5 27t-48.5 -28l-56 -72q-6 -9 -18 -9h-207q-9 0 -11.5 5t2.5 13l174 238q6 9 18 9h295q13 0 18 -9l159 -217q45 12 104 12l53 -1
q6 0 10.5 -4.5t4.5 -10.5l-1 -182q0 -6 -4.5 -10.5t-10.5 -4.5h-43q-72 1 -99 -22t-27 -62q0 -7 1.5 -13t5 -13.5t6 -11.5t9.5 -14t9 -14q0 -1 11 -17t15.5 -23.5t14 -27.5t13.5 -37t8 -42t4 -52q-1 -162 -130.5 -259.5t-330.5 -97.5q-48 0 -91 5t-53 5q-26 0 -45.5 -21
t-20.5 -52q-1 -38 27.5 -60t82.5 -22h324q165 0 260 -69t95 -197q0 -166 -152.5 -266t-430.5 -100q-246 0 -378.5 79t-132.5 209q0 97 78 177q18 18 22.5 44.5t-5.5 50.5q-23 52 -23 105q0 81 61 150q20 23 20 53t-20 51q-81 84 -80 215zM294 -86q0 -64 69.5 -102.5
t200.5 -38.5q144 0 222 40.5t78 103.5q0 41 -36.5 65.5t-98.5 24.5h-321q-48 0 -81 -25.5t-33 -67.5zM376 718q-1 -78 52 -123.5t139 -45.5q87 0 139.5 45.5t52.5 123.5q0 77 -53.5 123t-138.5 46q-84 0 -137 -45.5t-54 -123.5z" />
    <glyph glyph-name="Gbreve" unicode="&#x11e;" horiz-adv-x="1593" 
d="M777 -31q-196 0 -351 93.5t-243 265.5t-88 394q0 339 195.5 546t518.5 207q122 0 227 -31t182 -86t132.5 -123t90.5 -150q6 -14 -9 -21l-220 -83q-15 -7 -20 9q-18 47 -44.5 87.5t-70 79t-110.5 61t-150 22.5q-198 0 -314 -135.5t-116 -382.5q0 -244 111.5 -380.5
t316.5 -136.5q90 0 163 27.5t116 71t65.5 93t22.5 98.5q0 26 -17 43.5t-43 17.5h-344q-15 0 -15 15v196q0 15 15 15h676q15 0 15 -15v-752q0 -15 -15 -15h-175q-15 0 -25 12l-35 43q-18 21 -45 25.5t-55 -12.5q-147 -99 -342 -99zM495 1828q0 15 15 15h158q16 0 16 -15
q0 -44 34.5 -74t89.5 -30t92.5 30t37.5 74q0 15 16 15h157q15 0 15 -12q0 -117 -90.5 -193t-225.5 -76q-131 0 -223 75t-92 191z" />
    <glyph glyph-name="gbreve" unicode="&#x11f;" horiz-adv-x="1217" 
d="M105 719q1 105 63 186.5t166.5 125.5t232.5 44q69 0 127 -10q30 -6 50 7t27 38q10 32 29 60t51 54.5t82.5 41.5t114.5 15l53 -1q6 0 10.5 -4.5t4.5 -10.5l-1 -182q0 -6 -4.5 -10.5t-10.5 -4.5h-43q-72 1 -99 -22t-27 -62q0 -7 1.5 -13t5 -13.5t6 -11.5t9.5 -14t9 -14
q0 -1 11 -17t15.5 -23.5t14 -27.5t13.5 -37t8 -42t4 -52q-1 -162 -130.5 -259.5t-330.5 -97.5q-48 0 -91 5t-53 5q-26 0 -45.5 -21t-20.5 -52q-1 -38 27.5 -60t82.5 -22h324q165 0 260 -69t95 -197q0 -166 -152.5 -266t-430.5 -100q-246 0 -378.5 79t-132.5 209q0 97 78 177
q18 18 22.5 44.5t-5.5 50.5q-23 52 -23 105q0 81 61 150q20 23 20 53t-20 51q-81 84 -80 215zM294 -86q0 -64 69.5 -102.5t200.5 -38.5q144 0 222 40.5t78 103.5q0 41 -36.5 65.5t-98.5 24.5h-321q-48 0 -81 -25.5t-33 -67.5zM307 1467q0 16 16 16h157q17 0 17 -16
q0 -44 34.5 -73.5t89.5 -29.5q56 0 93 29.5t37 73.5q0 16 16 16h157q15 0 15 -13q0 -117 -90.5 -193t-225.5 -76q-131 0 -223.5 75t-92.5 191zM376 718q-1 -78 52 -123.5t139 -45.5q87 0 139.5 45.5t52.5 123.5q0 77 -53.5 123t-138.5 46q-84 0 -137 -45.5t-54 -123.5z" />
    <glyph glyph-name="Gdotaccent" unicode="&#x120;" horiz-adv-x="1593" 
d="M777 -31q-196 0 -351 93.5t-243 265.5t-88 394q0 339 195.5 546t518.5 207q122 0 227 -31t182 -86t132.5 -123t90.5 -150q6 -14 -9 -21l-220 -83q-15 -7 -20 9q-18 47 -44.5 87.5t-70 79t-110.5 61t-150 22.5q-198 0 -314 -135.5t-116 -382.5q0 -244 111.5 -380.5
t316.5 -136.5q90 0 163 27.5t116 71t65.5 93t22.5 98.5q0 26 -17 43.5t-43 17.5h-344q-15 0 -15 15v196q0 15 15 15h676q15 0 15 -15v-752q0 -15 -15 -15h-175q-15 0 -25 12l-35 43q-18 21 -45 25.5t-55 -12.5q-147 -99 -342 -99zM683 1587v221q0 16 15 16h224q15 0 15 -16
v-221q0 -15 -15 -15h-224q-15 0 -15 15z" />
    <glyph glyph-name="gdotaccent" unicode="&#x121;" horiz-adv-x="1217" 
d="M105 719q1 105 63 186.5t166.5 125.5t232.5 44q69 0 127 -10q30 -6 50 7t27 38q10 32 29 60t51 54.5t82.5 41.5t114.5 15l53 -1q6 0 10.5 -4.5t4.5 -10.5l-1 -182q0 -6 -4.5 -10.5t-10.5 -4.5h-43q-72 1 -99 -22t-27 -62q0 -7 1.5 -13t5 -13.5t6 -11.5t9.5 -14t9 -14
q0 -1 11 -17t15.5 -23.5t14 -27.5t13.5 -37t8 -42t4 -52q-1 -162 -130.5 -259.5t-330.5 -97.5q-48 0 -91 5t-53 5q-26 0 -45.5 -21t-20.5 -52q-1 -38 27.5 -60t82.5 -22h324q165 0 260 -69t95 -197q0 -166 -152.5 -266t-430.5 -100q-246 0 -378.5 79t-132.5 209q0 97 78 177
q18 18 22.5 44.5t-5.5 50.5q-23 52 -23 105q0 81 61 150q20 23 20 53t-20 51q-81 84 -80 215zM294 -86q0 -64 69.5 -102.5t200.5 -38.5q144 0 222 40.5t78 103.5q0 41 -36.5 65.5t-98.5 24.5h-321q-48 0 -81 -25.5t-33 -67.5zM376 718q-1 -78 52 -123.5t139 -45.5
q87 0 139.5 45.5t52.5 123.5q0 77 -53.5 123t-138.5 46q-84 0 -137 -45.5t-54 -123.5zM496 1226v221q0 15 15 15h223q16 0 16 -15v-221q0 -16 -16 -16h-223q-15 0 -15 16z" />
    <glyph glyph-name="uni0122" unicode="&#x122;" horiz-adv-x="1593" 
d="M777 -31q-196 0 -351 93.5t-243 265.5t-88 394q0 339 195.5 546t518.5 207q122 0 227 -31t182 -86t132.5 -123t90.5 -150q6 -14 -9 -21l-220 -83q-15 -7 -20 9q-18 47 -44.5 87.5t-70 79t-110.5 61t-150 22.5q-198 0 -314 -135.5t-116 -382.5q0 -244 111.5 -380.5
t316.5 -136.5q90 0 163 27.5t116 71t65.5 93t22.5 98.5q0 26 -17 43.5t-43 17.5h-344q-15 0 -15 15v196q0 15 15 15h676q15 0 15 -15v-752q0 -15 -15 -15h-175q-15 0 -25 12l-35 43q-18 21 -45 25.5t-55 -12.5q-147 -99 -342 -99zM600 -366l64 274q3 14 16 14h224
q8 0 12.5 -4.5t1.5 -12.5l-107 -274q-5 -13 -16 -13h-181q-17 0 -14 16z" />
    <glyph glyph-name="uni0123" unicode="&#x123;" horiz-adv-x="1217" 
d="M105 719q1 105 63 186.5t166.5 125.5t232.5 44q69 0 127 -10q30 -6 50 7t27 38q10 32 29 60t51 54.5t82.5 41.5t114.5 15l53 -1q6 0 10.5 -4.5t4.5 -10.5l-1 -182q0 -6 -4.5 -10.5t-10.5 -4.5h-43q-72 1 -99 -22t-27 -62q0 -7 1.5 -13t5 -13.5t6 -11.5t9.5 -14t9 -14
q0 -1 11 -17t15.5 -23.5t14 -27.5t13.5 -37t8 -42t4 -52q-1 -162 -130.5 -259.5t-330.5 -97.5q-48 0 -91 5t-53 5q-26 0 -45.5 -21t-20.5 -52q-1 -38 27.5 -60t82.5 -22h324q165 0 260 -69t95 -197q0 -166 -152.5 -266t-430.5 -100q-246 0 -378.5 79t-132.5 209q0 97 78 177
q18 18 22.5 44.5t-5.5 50.5q-23 52 -23 105q0 81 61 150q20 23 20 53t-20 51q-81 84 -80 215zM294 -86q0 -64 69.5 -102.5t200.5 -38.5q144 0 222 40.5t78 103.5q0 41 -36.5 65.5t-98.5 24.5h-321q-48 0 -81 -25.5t-33 -67.5zM376 718q-1 -78 52 -123.5t139 -45.5
q87 0 139.5 45.5t52.5 123.5q0 77 -53.5 123t-138.5 46q-84 0 -137 -45.5t-54 -123.5zM499 1210l106 274q5 13 17 13h180q17 0 14 -16l-63 -274q-3 -14 -17 -14h-224q-19 0 -13 17z" />
    <glyph glyph-name="Hcircumflex" unicode="&#x124;" horiz-adv-x="1558" 
d="M1035 863q30 0 50.5 20t20.5 51v494q0 6 4.5 11t10.5 5l251 1q6 0 11 -4.5t5 -10.5v-1415q0 -6 -5 -10.5t-11 -4.5h-251q-6 0 -10.5 4.5t-4.5 10.5v541q0 30 -20.5 50.5t-50.5 20.5h-512q-30 0 -50 -20.5t-20 -50.5v-541q0 -6 -5 -10.5t-11 -4.5h-251q-6 0 -10.5 4.5
t-4.5 10.5v1413q0 6 4.5 11t10.5 5h251q6 0 11 -5t5 -11v-494q0 -31 20 -51t50 -20h512z" />
    <glyph glyph-name="hcircumflex" unicode="&#x125;" 
d="M1117 15q0 -6 -4.5 -10.5t-10.5 -4.5h-246q-6 0 -10.5 4.5t-4.5 10.5v630q0 105 -47 160.5t-135 55.5q-96 0 -163.5 -69.5t-67.5 -209.5v-567q0 -6 -4.5 -10.5t-10.5 -4.5h-246q-6 0 -10.5 4.5t-4.5 10.5v1413q0 6 4.5 11t10.5 5h246q6 0 10.5 -5t4.5 -11v-373
q0 -24 16 -40t41 -16q15 0 40 12t51.5 26t75 26t105.5 12q173 0 266.5 -102t93.5 -274v-684z" />
    <glyph glyph-name="Hbar" unicode="&#x126;" horiz-adv-x="1675" 
d="M1101 850q27 0 45 13t18 37v87q0 21 -15.5 34.5t-37.5 13.5h-547q-22 0 -37.5 -13.5t-15.5 -34.5v-87q0 -24 18 -37t45 -13h527zM71 1051v179q0 6 4.5 10.5t10.5 4.5h93q22 0 36 14t14 36v133q0 6 5 11t11 5h251q6 0 10.5 -5t4.5 -11v-128q0 -24 16 -40t40 -16h541
q25 0 40.5 16t15.5 40v128q0 6 5 11t11 5l251 1q6 0 10.5 -4.5t4.5 -10.5v-135q0 -22 14 -36t36 -14h93q7 0 11.5 -4.5t4.5 -10.5v-179q0 -6 -4.5 -11t-11.5 -5h-93q-22 0 -36 -14t-14 -36v-970q0 -6 -4.5 -10.5t-10.5 -4.5h-251q-6 0 -11 4.5t-5 10.5v531q0 30 -20 50
t-50 20h-512q-30 0 -50.5 -20t-20.5 -50v-531q0 -6 -4.5 -10.5t-10.5 -4.5h-251q-6 0 -11 4.5t-5 10.5v970q0 22 -14 36t-36 14h-93q-6 0 -10.5 5t-4.5 11z" />
    <glyph glyph-name="hbar" unicode="&#x127;" horiz-adv-x="1258" 
d="M1117 15q0 -6 -4.5 -10.5t-10.5 -4.5h-246q-6 0 -10.5 4.5t-4.5 10.5v617q0 105 -45 159.5t-131 54.5q-45 0 -86 -15.5t-75.5 -47.5t-55 -87.5t-20.5 -127.5v-553q0 -6 -4.5 -10.5t-10.5 -4.5h-246q-6 0 -10.5 4.5t-4.5 10.5v1074q0 25 -17 43.5t-41 18.5h-88
q-6 0 -10.5 4.5t-4.5 10.5v145q0 6 4.5 10.5t10.5 4.5h103q19 0 31 12t12 31v59q0 6 4.5 11t10.5 5h246q6 0 10.5 -5t4.5 -11v-59q0 -19 12 -31t31 -12h234q6 0 10.5 -4.5t4.5 -10.5v-145q0 -6 -4.5 -10.5t-10.5 -4.5h-232q-20 0 -32.5 -9.5t-12.5 -27.5v-84q0 -38 47 -38
q20 0 57.5 17t96 34t128.5 17q167 0 263.5 -102t96.5 -263v-680z" />
    <glyph glyph-name="Itilde" unicode="&#x128;" horiz-adv-x="623" 
d="M171 1428q0 6 4.5 11t10.5 5h251q6 0 11 -5t5 -11v-1413q0 -6 -5 -10.5t-11 -4.5h-251q-6 0 -10.5 4.5t-4.5 10.5v1413zM-63 1627q0 106 61.5 172t156.5 66q84 0 166 -56l44 -29q29 -19 39 -25.5t23.5 -11.5t28.5 -5q64 0 64 77q0 15 16 15h138q15 0 15 -15
q0 -103 -62 -170t-165 -67q-86 0 -174 62l-42 29q-4 2 -15 10t-15.5 10.5t-12.5 7t-14.5 6t-13.5 1.5q-32 0 -51 -22.5t-19 -54.5q0 -15 -16 -15h-137q-15 0 -15 15z" />
    <glyph glyph-name="itilde" unicode="&#x129;" horiz-adv-x="579" 
d="M152 1029q0 6 4.5 10.5t10.5 4.5h246q6 0 10.5 -4.5t4.5 -10.5v-1014q0 -6 -4.5 -10.5t-10.5 -4.5h-246q-6 0 -10.5 4.5t-4.5 10.5v1014zM-85 1228q0 106 61.5 171.5t156.5 65.5q85 0 166 -55l44 -30q29 -19 39 -25.5t23.5 -11.5t28.5 -5q31 0 48 20t17 57q0 16 15 16
h138q16 0 16 -16q0 -102 -62.5 -169t-165.5 -67q-86 0 -174 62l-42 29q-5 3 -15 10t-15 10l-12.5 7.5t-14 6t-13.5 1.5q-32 0 -51 -22.5t-19 -54.5q0 -16 -16 -16h-138q-15 0 -15 16z" />
    <glyph glyph-name="Imacron" unicode="&#x12a;" horiz-adv-x="623" 
d="M171 1428q0 6 4.5 11t10.5 5h251q6 0 11 -5t5 -11v-1413q0 -6 -5 -10.5t-11 -4.5h-251q-6 0 -10.5 4.5t-4.5 10.5v1413zM39 1663v144q0 6 4.5 11t10.5 5h525q6 0 10.5 -5t4.5 -11v-144q0 -6 -4.5 -10.5t-10.5 -4.5h-525q-6 0 -10.5 4.5t-4.5 10.5z" />
    <glyph glyph-name="imacron" unicode="&#x12b;" horiz-adv-x="579" 
d="M152 1029q0 6 4.5 10.5t10.5 4.5h246q6 0 10.5 -4.5t4.5 -10.5v-1014q0 -6 -4.5 -10.5t-10.5 -4.5h-246q-6 0 -10.5 4.5t-4.5 10.5v1014zM16 1264v144q0 6 5 10.5t11 4.5h524q6 0 10.5 -4.5t4.5 -10.5v-144q0 -6 -4.5 -11t-10.5 -5h-524q-6 0 -11 5t-5 11z" />
    <glyph glyph-name="Iogonek" unicode="&#x12e;" horiz-adv-x="624" 
d="M172 1428q0 6 4.5 11t10.5 5h251q6 0 11 -5t5 -11v-1413q0 -12 -13 -14q-104 -32 -154.5 -82.5t-50.5 -111.5q0 -50 33.5 -73t88.5 -23h40q16 0 16 -15v-136q0 -14 -14 -17q-62 -12 -125 -12q-110 0 -179 58.5t-69 164.5q0 45 15 85.5t36 69t42.5 55t36.5 56t15 59.5
v1349z" />
    <glyph glyph-name="iogonek" unicode="&#x12f;" horiz-adv-x="580" 
d="M153 1029q0 6 4.5 10.5t10.5 4.5h246q6 0 10.5 -4.5t4.5 -10.5v-1014q0 -11 -12 -14q-109 -35 -156.5 -89t-47.5 -112q0 -91 116 -91h41q15 0 15 -15v-136q0 -14 -14 -17q-60 -12 -124 -12q-110 0 -179.5 58.5t-69.5 164.5q0 46 16 86t38.5 68t45.5 53.5t39 53.5t16 55
v961zM145 1207v237q0 6 5 10.5t11 4.5h260q6 0 10.5 -4.5t4.5 -10.5v-237q0 -6 -4.5 -10.5t-10.5 -4.5h-260q-6 0 -11 4.5t-5 10.5z" />
    <glyph glyph-name="Idotaccent" unicode="&#x130;" horiz-adv-x="623" 
d="M171 1428q0 6 4.5 11t10.5 5h251q6 0 11 -5t5 -11v-1413q0 -6 -5 -10.5t-11 -4.5h-251q-6 0 -10.5 4.5t-4.5 10.5v1413zM185 1587v221q0 16 16 16h223q15 0 15 -16v-221q0 -15 -15 -15h-223q-16 0 -16 15z" />
    <glyph glyph-name="dotlessi" unicode="&#x131;" horiz-adv-x="579" 
d="M152 1029q0 6 4.5 10.5t10.5 4.5h246q6 0 10.5 -4.5t4.5 -10.5v-1014q0 -6 -4.5 -10.5t-10.5 -4.5h-246q-6 0 -10.5 4.5t-4.5 10.5v1014z" />
    <glyph glyph-name="IJ" unicode="&#x132;" horiz-adv-x="1883" 
d="M171 1428q0 6 4.5 11t10.5 5h251q6 0 11 -5t5 -11v-1413q0 -6 -5 -10.5t-11 -4.5h-251q-6 0 -10.5 4.5t-4.5 10.5v1413zM715 499v83q0 6 4.5 10.5t10.5 4.5h246q6 0 10.5 -4.5t4.5 -10.5v-77q0 -152 56 -226.5t171 -74.5t170.5 74t55.5 227v923q0 7 4.5 11.5t10.5 4.5
h251q15 0 15 -16v-929q0 -254 -131 -392t-374 -138t-374 138t-131 392z" />
    <glyph glyph-name="ij" unicode="&#x133;" horiz-adv-x="579" 
d="M152 1029q0 6 4.5 10.5t10.5 4.5h246q6 0 10.5 -4.5t4.5 -10.5v-1014q0 -6 -4.5 -10.5t-10.5 -4.5h-246q-6 0 -10.5 4.5t-4.5 10.5v1014zM144 1207v237q0 6 5 10.5t11 4.5h260q6 0 10.5 -4.5t4.5 -10.5v-237q0 -6 -4.5 -10.5t-10.5 -4.5h-260q-6 0 -11 4.5t-5 10.5z" />
    <glyph glyph-name="Jcircumflex" unicode="&#x134;" horiz-adv-x="1223" 
d="M55 582q0 6 5 10.5t11 4.5h245q6 0 11 -4.5t5 -10.5v-77q0 -153 55.5 -227t170.5 -74t170.5 74t55.5 227v923q0 7 5 11.5t11 4.5h251q15 0 15 -16v-929q0 -254 -131.5 -392t-374.5 -138t-374 138t-131 392v83z" />
    <glyph glyph-name="jcircumflex" unicode="&#x135;" horiz-adv-x="579" 
d="M428 -84q0 -155 -83.5 -235t-246.5 -80h-171q-14 2 -14 15v202q0 15 15 15h112q112 0 112 107v1089q0 15 15 15h246q15 0 15 -15v-1113z" />
    <glyph glyph-name="uni0136" unicode="&#x136;" horiz-adv-x="1415" 
d="M759 798q-25 -26 -24.5 -57t25.5 -57l661 -664q6 -6 3 -13t-11 -7h-341q-12 0 -21 10l-499 517q-30 31 -64.5 17.5t-34.5 -57.5v-472q0 -15 -16 -15h-251q-15 0 -15 15v1413q0 16 15 16h251q16 0 16 -16v-439q0 -45 35 -58.5t66 19.5l454 484q10 10 22 10h328q8 0 11 -7
t-3 -13zM503 -366l63 274q3 14 17 14h224q19 0 13 -17l-106 -274q-5 -13 -17 -13h-180q-17 0 -14 16z" />
    <glyph glyph-name="uni0137" unicode="&#x137;" horiz-adv-x="1210" 
d="M428 15q0 -6 -4.5 -10.5t-10.5 -4.5h-246q-6 0 -10.5 4.5t-4.5 10.5v1413q0 7 4.5 11.5t10.5 4.5h246q6 0 10.5 -4.5t4.5 -11.5v-617q0 -46 37 -61t69 19l264 265q9 10 23 10h308q8 0 11.5 -7t-2.5 -13l-412 -408q-24 -24 -24 -54.5t24 -54.5l496 -487q6 -6 2 -13t-12 -7
h-323q-14 0 -24 10l-330 339q-32 34 -69.5 19.5t-37.5 -61.5v-292zM421 -366l63 274q3 14 17 14h224q19 0 13 -17l-106 -274q-5 -13 -17 -13h-180q-17 0 -14 16z" />
    <glyph glyph-name="Lacute" unicode="&#x139;" horiz-adv-x="1199" 
d="M437 1444q16 0 16 -16v-1119q0 -31 20.5 -51.5t51.5 -20.5h620q15 0 15 -16v-206q0 -15 -15 -15h-959q-15 0 -15 15v1413q0 16 15 16h251zM189 1596l169 238q5 9 19 9h294q10 0 12.5 -5.5t-4.5 -12.5l-236 -240q-7 -7 -19 -7h-225q-9 0 -12 5t2 13z" />
    <glyph glyph-name="lacute" unicode="&#x13a;" horiz-adv-x="579" 
d="M152 1428q0 6 4.5 11t10.5 5h246q6 0 10.5 -5t4.5 -11v-1413q0 -6 -4.5 -10.5t-10.5 -4.5h-246q-6 0 -10.5 4.5t-4.5 10.5v1413zM162 1596l169 238q5 9 18 9h294q10 0 12.5 -5.5t-4.5 -12.5l-235 -240q-7 -7 -20 -7h-225q-9 0 -11.5 5t2.5 13z" />
    <glyph glyph-name="uni013B" unicode="&#x13b;" horiz-adv-x="1199" 
d="M437 1444q16 0 16 -16v-1119q0 -31 20.5 -51.5t51.5 -20.5h620q15 0 15 -16v-206q0 -15 -15 -15h-959q-15 0 -15 15v1413q0 16 15 16h251zM472 -366l64 274q3 14 16 14h224q8 0 12.5 -4.5t1.5 -12.5l-107 -274q-5 -13 -16 -13h-181q-17 0 -14 16z" />
    <glyph glyph-name="uni013C" unicode="&#x13c;" horiz-adv-x="579" 
d="M152 1428q0 6 4.5 11t10.5 5h246q6 0 10.5 -5t4.5 -11v-1413q0 -6 -4.5 -10.5t-10.5 -4.5h-246q-6 0 -10.5 4.5t-4.5 10.5v1413zM112 -366l63 274q3 14 16 14h225q19 0 13 -17l-106 -274q-5 -13 -17 -13h-180q-17 0 -14 16z" />
    <glyph glyph-name="Lcaron" unicode="&#x13d;" horiz-adv-x="1202" 
d="M437 1444q16 0 16 -16v-1119q0 -31 20.5 -51.5t51.5 -20.5h620q15 0 15 -16v-206q0 -15 -15 -15h-959q-15 0 -15 15v1413q0 16 15 16h251zM554 935l76 496q1 13 16 13h244q16 0 13 -17l-140 -495q-3 -12 -17 -12h-179q-15 0 -13 15z" />
    <glyph glyph-name="lcaron" unicode="&#x13e;" horiz-adv-x="764" 
d="M152 1428q0 6 4.5 11t10.5 5h246q6 0 10.5 -5t4.5 -11v-1413q0 -6 -4.5 -10.5t-10.5 -4.5h-246q-6 0 -10.5 4.5t-4.5 10.5v1413zM526 935l76 496q1 13 16 13h244q17 0 14 -17l-141 -495q-3 -12 -16 -12h-179q-16 0 -14 15z" />
    <glyph glyph-name="Ldot" unicode="&#x13f;" horiz-adv-x="1205" 
d="M437 1444q16 0 16 -16v-1119q0 -31 20.5 -51.5t51.5 -20.5h620q15 0 15 -16v-206q0 -15 -15 -15h-959q-15 0 -15 15v1413q0 16 15 16h251zM724 562v277q0 15 15 15h267q15 0 15 -15v-277q0 -15 -15 -15h-267q-15 0 -15 15z" />
    <glyph glyph-name="ldot" unicode="&#x140;" horiz-adv-x="892" 
d="M152 1428q0 6 4.5 11t10.5 5h246q6 0 10.5 -5t4.5 -11v-1413q0 -6 -4.5 -10.5t-10.5 -4.5h-246q-6 0 -10.5 4.5t-4.5 10.5v1413zM589 513v277q0 15 15 15h266q16 0 16 -15v-277q0 -15 -16 -15h-266q-15 0 -15 15z" />
    <glyph glyph-name="Lslash" unicode="&#x141;" horiz-adv-x="1308" 
d="M544 1444q15 0 15 -16v-450q0 -41 28.5 -59t61.5 0l341 171q7 4 13 0t6 -12v-207q0 -10 -12 -17l-394 -198q-44 -22 -44 -71v-276q0 -31 20.5 -51.5t52.5 -20.5h618q16 0 16 -16v-206q0 -15 -16 -15h-957q-15 0 -15 15v382q0 37 -27.5 53.5t-60.5 0.5l-95 -48
q-7 -4 -12.5 -0.5t-5.5 12.5v206q0 12 11 18l138 69q52 26 52 82v638q0 16 15 16h251z" />
    <glyph glyph-name="lslash" unicode="&#x142;" horiz-adv-x="786" 
d="M259 1428q0 6 4.5 11t10.5 5h246q6 0 11 -5t5 -11v-393q0 -29 21.5 -42t48.5 3l99 67q7 5 12.5 2t5.5 -12v-223q0 -12 -9 -18l-136 -92q-42 -26 -42 -77v-628q0 -6 -5 -10.5t-11 -4.5h-246q-6 0 -10.5 4.5t-4.5 10.5v415q0 27 -22.5 40.5t-48.5 -2.5l-98 -66
q-8 -5 -13 -1.5t-5 12.5v222q0 12 10 18l135 91q42 27 42 78v606z" />
    <glyph glyph-name="Nacute" unicode="&#x143;" horiz-adv-x="1622" 
d="M171 1428q0 16 15 16h311q12 0 18 -10l571 -920q20 -31 54.5 -21t34.5 47v888q0 16 15 16h245q16 0 16 -16v-1413q0 -15 -16 -15h-311q-12 0 -18 10l-570 920q-20 31 -54.5 21.5t-34.5 -46.5v-890q0 -15 -15 -15h-246q-15 0 -15 15v1413zM705 1596l168 238q5 9 19 9h294
q10 0 12.5 -5.5t-4.5 -12.5l-236 -240q-7 -7 -19 -7h-225q-9 0 -11.5 5t2.5 13z" />
    <glyph glyph-name="nacute" unicode="&#x144;" 
d="M758 1075q169 0 264 -100t95 -276v-684q0 -6 -4.5 -10.5t-10.5 -4.5h-246q-15 0 -15 15v631q0 105 -45 160t-132 55q-46 0 -86.5 -15t-75 -45.5t-54.5 -85.5t-20 -127v-573q0 -15 -15 -15h-246q-6 0 -10.5 4.5t-4.5 10.5v1014q0 15 15 15h179q24 0 37 -16l18 -23
q18 -22 45 -25.5t54 14.5q111 81 258 81zM498 1197l169 238q5 9 18 9h294q10 0 12.5 -6t-4.5 -13l-235 -239q-7 -7 -20 -7h-225q-9 0 -11.5 5.5t2.5 12.5z" />
    <glyph glyph-name="uni0145" unicode="&#x145;" horiz-adv-x="1622" 
d="M171 1428q0 16 15 16h311q12 0 18 -10l571 -920q20 -31 54.5 -21t34.5 47v888q0 16 15 16h245q16 0 16 -16v-1413q0 -15 -16 -15h-311q-12 0 -18 10l-570 920q-20 31 -54.5 21.5t-34.5 -46.5v-890q0 -15 -15 -15h-246q-15 0 -15 15v1413zM626 -366l63 274q3 14 17 14h224
q19 0 13 -17l-106 -274q-5 -13 -17 -13h-180q-17 0 -14 16z" />
    <glyph glyph-name="uni0146" unicode="&#x146;" 
d="M758 1075q169 0 264 -100t95 -276v-684q0 -6 -4.5 -10.5t-10.5 -4.5h-246q-15 0 -15 15v631q0 105 -45 160t-132 55q-46 0 -86.5 -15t-75 -45.5t-54.5 -85.5t-20 -127v-573q0 -15 -15 -15h-246q-6 0 -10.5 4.5t-4.5 10.5v1014q0 15 15 15h179q24 0 37 -16l18 -23
q18 -22 45 -25.5t54 14.5q111 81 258 81zM435 -366l64 274q3 14 16 14h224q8 0 12.5 -4.5t1.5 -12.5l-107 -274q-5 -13 -16 -13h-180q-18 0 -15 16z" />
    <glyph glyph-name="Ncaron" unicode="&#x147;" horiz-adv-x="1622" 
d="M171 1428q0 16 15 16h311q12 0 18 -10l571 -920q20 -31 54.5 -21t34.5 47v888q0 16 15 16h245q16 0 16 -16v-1413q0 -15 -16 -15h-311q-12 0 -18 10l-570 920q-20 31 -54.5 21.5t-34.5 -46.5v-890q0 -15 -15 -15h-246q-15 0 -15 15v1413zM495 1824q-5 8 -2 13t12 5h206
q12 0 18 -9l58 -73q21 -27 48.5 -27t48.5 28l56 72q6 9 18 9h207q9 0 12 -5t-2 -13l-175 -238q-6 -9 -18 -9h-295q-13 0 -18 9z" />
    <glyph glyph-name="ncaron" unicode="&#x148;" 
d="M758 1075q169 0 264 -100t95 -276v-684q0 -6 -4.5 -10.5t-10.5 -4.5h-246q-15 0 -15 15v631q0 105 -45 160t-132 55q-46 0 -86.5 -15t-75 -45.5t-54.5 -85.5t-20 -127v-573q0 -15 -15 -15h-246q-6 0 -10.5 4.5t-4.5 10.5v1014q0 15 15 15h179q24 0 37 -16l18 -23
q18 -22 45 -25.5t54 14.5q111 81 258 81zM288 1424q-5 8 -2 13.5t12 5.5h206q12 0 18 -9l59 -73q21 -27 48 -27t48 28l56 72q6 9 19 9h206q9 0 12 -5.5t-2 -13.5l-174 -237q-6 -9 -19 -9h-295q-13 0 -18 9z" />
    <glyph glyph-name="Eng" unicode="&#x14a;" horiz-adv-x="1622" 
d="M1451 -99q0 -155 -84 -235.5t-246 -80.5q-77 0 -181 9q-15 2 -15 16v193q0 6 4.5 11t10.5 5q68 -5 104 -5q62 0 89 45t-9 114l-38 68l-550 889q-20 31 -54.5 21.5t-34.5 -46.5v-890q0 -15 -15 -15h-246q-15 0 -15 15v1413q0 16 15 16h311q12 0 18 -10l571 -920
q20 -31 54.5 -21t34.5 47v888q0 16 15 16h245q16 0 16 -16v-1527z" />
    <glyph glyph-name="eng" unicode="&#x14b;" 
d="M1117 -99q0 -155 -84 -235.5t-246 -80.5q-67 0 -171 9q-15 2 -15 16v193q0 6 4.5 11t10.5 5q68 -5 108 -5q117 0 117 106v726q0 105 -45 160t-132 55q-46 0 -86.5 -15t-75 -45.5t-54.5 -85.5t-20 -127v-573q0 -15 -15 -15h-246q-6 0 -10.5 4.5t-4.5 10.5v1014q0 15 15 15
h179q24 0 37 -16l18 -23q18 -22 45 -25.5t54 14.5q111 81 258 81q169 0 264 -100t95 -276v-798z" />
    <glyph glyph-name="Omacron" unicode="&#x14c;" horiz-adv-x="1629" 
d="M816 1475q323 0 521 -207t198 -546t-198 -546t-521 -207q-214 0 -378 93.5t-254 264.5t-90 395t90 395t254 264.5t378 93.5zM390 723q0 -249 110.5 -383.5t314.5 -134.5t314 134t110 384q0 249 -110 383t-314 134t-314.5 -134t-110.5 -383zM543 1663v144q0 6 4.5 11
t10.5 5h524q6 0 11 -5t5 -11v-144q0 -6 -5 -10.5t-11 -4.5h-524q-6 0 -10.5 4.5t-4.5 10.5z" />
    <glyph glyph-name="omacron" unicode="&#x14d;" horiz-adv-x="1239" 
d="M865 522q0 -163 -63 -250.5t-182 -87.5q-118 0 -182 87.5t-64 250.5t64 251t182 88q119 0 182 -88t63 -251zM86 522q0 -249 147 -401t385 -152q239 0 387 152.5t148 400.5q0 249 -148 401t-387 152q-238 0 -385 -152t-147 -401zM345 1264v144q0 6 4.5 10.5t10.5 4.5h525
q6 0 10.5 -4.5t4.5 -10.5v-144q0 -6 -4.5 -11t-10.5 -5h-525q-6 0 -10.5 5t-4.5 11z" />
    <glyph glyph-name="Ohungarumlaut" unicode="&#x150;" horiz-adv-x="1629" 
d="M816 1475q323 0 521 -207t198 -546t-198 -546t-521 -207q-214 0 -378 93.5t-254 264.5t-90 395t90 395t254 264.5t378 93.5zM390 723q0 -249 110.5 -383.5t314.5 -134.5t314 134t110 384q0 249 -110 383t-314 134t-314.5 -134t-110.5 -383zM466 1596l169 238q5 9 18 9
h294q10 0 12.5 -5.5t-4.5 -12.5l-235 -240q-7 -7 -20 -7h-225q-9 0 -11.5 5t2.5 13zM901 1596l169 238q5 9 19 9h293q10 0 13 -5.5t-4 -12.5l-236 -240q-7 -7 -19 -7h-226q-9 0 -11.5 5t2.5 13z" />
    <glyph glyph-name="ohungarumlaut" unicode="&#x151;" horiz-adv-x="1239" 
d="M865 522q0 -163 -63 -250.5t-182 -87.5q-118 0 -182 87.5t-64 250.5t64 251t182 88q119 0 182 -88t63 -251zM86 522q0 -249 147 -401t385 -152q239 0 387 152.5t148 400.5q0 249 -148 401t-387 152q-238 0 -385 -152t-147 -401zM269 1197l169 238q5 9 19 9h294
q10 0 12.5 -6t-4.5 -13l-236 -239q-7 -7 -19 -7h-225q-9 0 -12 5.5t2 12.5zM703 1197l169 238q5 9 19 9h294q10 0 12.5 -6t-4.5 -13l-236 -239q-7 -7 -19 -7h-225q-9 0 -12 5.5t2 12.5z" />
    <glyph glyph-name="OE" unicode="&#x152;" horiz-adv-x="2099" 
d="M1324 628q-28 0 -46 -18.5t-18 -47.5v-260q0 -28 18 -46.5t46 -18.5h659q6 0 11 -5t5 -11v-206q0 -6 -5 -10.5t-11 -4.5h-880q-33 0 -123.5 -15.5t-163.5 -15.5q-214 0 -378 93.5t-254 264.5t-90 395t90 395t254 264.5t378 93.5q73 0 162.5 -15.5t121.5 -15.5h866
q6 0 10.5 -4.5t4.5 -11.5v-205q0 -6 -4.5 -11t-10.5 -5h-647q-25 0 -42 -16.5t-17 -42.5v-228q0 -26 16.5 -43t42.5 -17h569q6 0 11 -4.5t5 -10.5v-202q0 -15 -16 -15h-564zM385 723q0 -249 111.5 -383.5t318.5 -134.5q73 0 120 27.5t47 69.5v843q0 44 -51.5 69.5
t-115.5 25.5q-206 0 -318 -134t-112 -383z" />
    <glyph glyph-name="oe" unicode="&#x153;" horiz-adv-x="1933" 
d="M1151 694q0 -21 13 -34t37 -13h317q24 0 37 12.5t13 34.5q0 74 -58.5 129t-149.5 55q-90 0 -149.5 -55.5t-59.5 -128.5zM86 522q0 249 146 401t384 152q83 0 152.5 -20t105.5 -43.5t68.5 -43.5t50.5 -20q17 0 48 20t65.5 43.5t103 43.5t152.5 20q149 0 260.5 -70
t169 -190.5t57.5 -274.5v-61q0 -6 -4.5 -10.5t-10.5 -4.5h-673q-13 0 -22 -9t-9 -21q0 -105 71 -179.5t185 -74.5q82 0 135 40t98 111q9 14 22 4l168 -111q13 -9 6 -21q-150 -234 -439 -234q-68 0 -127 14.5t-96.5 34.5t-67 40.5t-52.5 35t-39 14.5q-15 0 -37.5 -14.5
t-52 -34.5t-67.5 -40.5t-96 -35t-125 -14.5q-238 0 -384 152t-146 401zM374 522q0 -164 62 -251t181 -87q118 0 180.5 87.5t62.5 250.5t-62.5 251t-180.5 88q-119 0 -181 -87.5t-62 -251.5z" />
    <glyph glyph-name="Racute" unicode="&#x154;" horiz-adv-x="1409" 
d="M890 621q-31 -8 -37.5 -34t14.5 -48l518 -521q5 -5 2.5 -11.5t-10.5 -6.5h-336q-11 0 -20 10l-479 510q-25 26 -46 26h-1q-19 0 -31.5 -13.5t-12.5 -34.5v-483q0 -15 -16 -15h-249q-15 0 -15 15v1413q0 16 15 16h607q224 0 354 -114.5t130 -308.5q0 -156 -90.5 -258.5
t-241.5 -130.5zM451 871q0 -32 18.5 -50.5t50.5 -18.5h247q106 0 163 54.5t57 156.5q0 100 -57 154t-163 54h-247q-32 0 -50.5 -19t-18.5 -51v-280zM528 1596l169 238q5 9 19 9h294q10 0 12.5 -5.5t-4.5 -12.5l-236 -240q-7 -7 -19 -7h-225q-9 0 -12 5t2 13z" />
    <glyph glyph-name="racute" unicode="&#x155;" horiz-adv-x="876" 
d="M804 1063q15 0 15 -15v-247q0 -7 -4.5 -11.5t-10.5 -4.5h-108q-268 0 -268 -322v-448q0 -15 -15 -15h-246q-6 0 -10.5 4.5t-4.5 10.5v1014q0 15 15 15h185q18 0 26 -11l25 -34q19 -24 48 -26t54 18q28 22 51 35.5t67 25t98 11.5h83zM361 1197l169 238q5 9 19 9h294
q10 0 12.5 -6t-4.5 -13l-236 -239q-7 -7 -19 -7h-225q-9 0 -12 5.5t2 12.5z" />
    <glyph glyph-name="uni0156" unicode="&#x156;" horiz-adv-x="1409" 
d="M890 621q-31 -8 -37.5 -34t14.5 -48l518 -521q5 -5 2.5 -11.5t-10.5 -6.5h-336q-11 0 -20 10l-479 510q-25 26 -46 26h-1q-19 0 -31.5 -13.5t-12.5 -34.5v-483q0 -15 -16 -15h-249q-15 0 -15 15v1413q0 16 15 16h607q224 0 354 -114.5t130 -308.5q0 -156 -90.5 -258.5
t-241.5 -130.5zM451 871q0 -32 18.5 -50.5t50.5 -18.5h247q106 0 163 54.5t57 156.5q0 100 -57 154t-163 54h-247q-32 0 -50.5 -19t-18.5 -51v-280zM528 -366l64 274q3 14 16 14h225q19 0 13 -17l-107 -274q-5 -13 -16 -13h-180q-18 0 -15 16z" />
    <glyph glyph-name="uni0157" unicode="&#x157;" horiz-adv-x="876" 
d="M804 1063q15 0 15 -15v-247q0 -7 -4.5 -11.5t-10.5 -4.5h-108q-268 0 -268 -322v-448q0 -15 -15 -15h-246q-6 0 -10.5 4.5t-4.5 10.5v1014q0 15 15 15h185q18 0 26 -11l25 -34q19 -24 48 -26t54 18q28 22 51 35.5t67 25t98 11.5h83zM98 -366l64 274q3 14 16 14h224
q8 0 12.5 -4.5t1.5 -12.5l-107 -274q-5 -13 -16 -13h-180q-18 0 -15 16z" />
    <glyph glyph-name="Rcaron" unicode="&#x158;" horiz-adv-x="1409" 
d="M890 621q-31 -8 -37.5 -34t14.5 -48l518 -521q5 -5 2.5 -11.5t-10.5 -6.5h-336q-11 0 -20 10l-479 510q-25 26 -46 26h-1q-19 0 -31.5 -13.5t-12.5 -34.5v-483q0 -15 -16 -15h-249q-15 0 -15 15v1413q0 16 15 16h607q224 0 354 -114.5t130 -308.5q0 -156 -90.5 -258.5
t-241.5 -130.5zM318 1824q-5 8 -1.5 13t12.5 5h206q12 0 18 -9l58 -73q21 -27 48.5 -27t48.5 28l56 72q6 9 18 9h207q9 0 11.5 -5t-2.5 -13l-174 -238q-6 -9 -18 -9h-295q-13 0 -18 9zM451 871q0 -32 18.5 -50.5t50.5 -18.5h247q106 0 163 54.5t57 156.5q0 100 -57 154
t-163 54h-247q-32 0 -50.5 -19t-18.5 -51v-280z" />
    <glyph glyph-name="rcaron" unicode="&#x159;" horiz-adv-x="876" 
d="M804 1063q15 0 15 -15v-247q0 -7 -4.5 -11.5t-10.5 -4.5h-108q-268 0 -268 -322v-448q0 -15 -15 -15h-246q-6 0 -10.5 4.5t-4.5 10.5v1014q0 15 15 15h185q18 0 26 -11l25 -34q19 -24 48 -26t54 18q28 22 51 35.5t67 25t98 11.5h83zM152 1424q-5 8 -2 13.5t12 5.5h206
q12 0 18 -9l58 -73q21 -27 48.5 -27t48.5 28l56 72q6 9 18 9h207q9 0 11.5 -5.5t-2.5 -13.5l-174 -237q-6 -9 -18 -9h-295q-13 0 -18 9z" />
    <glyph glyph-name="Sacute" unicode="&#x15a;" horiz-adv-x="1346" 
d="M672 -31q-121 0 -221 30t-172 86t-122 129t-81 165q-5 14 9 19l225 68q17 4 21 -9q37 -116 125.5 -187t221.5 -71q125 0 211 54.5t86 152.5q0 130 -163 171l-338 80q-177 42 -268 147.5t-91 247.5q0 126 75 224t199.5 149t275.5 51q211 0 358.5 -100t204.5 -264
q5 -14 -10 -19l-218 -74q-14 -5 -19 10q-31 91 -108 154.5t-205 63.5q-116 0 -192.5 -52.5t-76.5 -134.5q0 -59 43 -99.5t116 -58.5l343 -82q160 -38 259.5 -138.5t99.5 -258.5q0 -105 -46 -191.5t-126 -143.5t-187 -88t-229 -31zM536 1596l169 238q5 9 18 9h294
q10 0 12.5 -5.5t-4.5 -12.5l-235 -240q-7 -7 -20 -7h-225q-9 0 -11.5 5t2.5 13z" />
    <glyph glyph-name="sacute" unicode="&#x15b;" horiz-adv-x="1087" 
d="M545 1075q93 0 170.5 -22.5t130 -61t87 -82.5t53.5 -94q5 -14 -8 -20l-186 -74q-14 -6 -20 7q-23 60 -83 104t-146 44q-77 0 -125.5 -32t-48.5 -79q0 -73 105 -97l220 -51q159 -35 233 -111.5t74 -196.5q0 -85 -36 -151t-99 -106.5t-144 -61t-176 -20.5q-189 0 -308 81.5
t-167 218.5q-6 15 9 21l191 68q15 6 21 -9q64 -179 253 -179q89 0 140.5 34t51.5 91q0 41 -33 72t-93 44l-207 47q-296 67 -296 299q0 144 124 230.5t313 86.5zM406 1197l168 238q5 9 19 9h294q10 0 12.5 -6t-4.5 -13l-236 -239q-7 -7 -19 -7h-225q-9 0 -11.5 5.5t2.5 12.5z
" />
    <glyph glyph-name="Scircumflex" unicode="&#x15c;" horiz-adv-x="1346" 
d="M672 -31q-121 0 -221 30t-172 86t-122 129t-81 165q-5 14 9 19l225 68q17 4 21 -9q37 -116 125.5 -187t221.5 -71q125 0 211 54.5t86 152.5q0 130 -163 171l-338 80q-177 42 -268 147.5t-91 247.5q0 126 75 224t199.5 149t275.5 51q211 0 358.5 -100t204.5 -264
q5 -14 -10 -19l-218 -74q-14 -5 -19 10q-31 91 -108 154.5t-205 63.5q-116 0 -192.5 -52.5t-76.5 -134.5q0 -59 43 -99.5t116 -58.5l343 -82q160 -38 259.5 -138.5t99.5 -258.5q0 -105 -46 -191.5t-126 -143.5t-187 -88t-229 -31z" />
    <glyph glyph-name="scircumflex" unicode="&#x15d;" horiz-adv-x="1087" 
d="M545 1075q93 0 170.5 -22.5t130 -61t87 -82.5t53.5 -94q5 -14 -8 -20l-186 -74q-14 -6 -20 7q-23 60 -83 104t-146 44q-77 0 -125.5 -32t-48.5 -79q0 -73 105 -97l220 -51q159 -35 233 -111.5t74 -196.5q0 -85 -36 -151t-99 -106.5t-144 -61t-176 -20.5q-189 0 -308 81.5
t-167 218.5q-6 15 9 21l191 68q15 6 21 -9q64 -179 253 -179q89 0 140.5 34t51.5 91q0 41 -33 72t-93 44l-207 47q-296 67 -296 299q0 144 124 230.5t313 86.5z" />
    <glyph glyph-name="Scedilla" unicode="&#x15e;" horiz-adv-x="1342" 
d="M531 -384q-15 0 -15 15v98q0 15 15 15h44q52 0 88 14t36 42q0 56 -86 56h-40q-18 0 -12 17q2 5 5.5 17t5 17.5t4 15t2.5 14.5t-0.5 12.5t-3.5 11.5t-7.5 8.5t-12 7t-17.5 4.5q-177 31 -292.5 135t-169.5 262q-5 14 10 18l229 70q17 4 21 -9q37 -115 126.5 -186.5
t218.5 -71.5q127 0 210 58t83 149q0 133 -167 174l-338 80q-174 41 -263.5 146t-89.5 248q0 125 72.5 222.5t195 148.5t272.5 51q217 0 360 -101t199 -265q6 -13 -10 -19l-223 -76q-14 -5 -19 10q-14 40 -36.5 76t-58 70.5t-90.5 55t-122 20.5q-116 0 -186 -51t-70 -136
q0 -57 40.5 -97t112.5 -58l343 -82q163 -39 263 -140.5t100 -259.5q0 -180 -117.5 -293.5t-307.5 -145.5q-50 -9 -50 -33q0 -10 16 -24.5t34.5 -29t34.5 -43t16 -63.5q0 -87 -73 -131t-193 -44h-87z" />
    <glyph glyph-name="scedilla" unicode="&#x15f;" horiz-adv-x="1087" 
d="M545 1075q93 0 170.5 -22.5t130 -61t87 -82.5t53.5 -94q5 -14 -8 -20l-186 -74q-14 -6 -20 7q-23 60 -83 104t-146 44q-77 0 -125.5 -32t-48.5 -79q0 -73 105 -97l220 -51q159 -35 233 -111.5t74 -196.5q0 -77 -29.5 -138.5t-82.5 -102t-121.5 -64.5t-150.5 -31
q-4 -14 8.5 -26t33 -24t41.5 -27.5t36 -42.5t15 -62q0 -87 -73 -131t-194 -44h-87q-15 0 -15 15v98q0 15 15 15h44q52 0 88 14t36 42q0 56 -86 56h-39q-18 0 -13 17l33 102q-152 18 -249.5 96.5t-139.5 198.5q-6 15 9 21l191 68q15 6 21 -9q64 -179 253 -179q89 0 140.5 34
t51.5 91q0 41 -33 72t-93 44l-207 47q-296 67 -296 299q0 144 124 230.5t313 86.5z" />
    <glyph glyph-name="Scaron" unicode="&#x160;" horiz-adv-x="1346" 
d="M672 -31q-121 0 -221 30t-172 86t-122 129t-81 165q-5 14 9 19l225 68q17 4 21 -9q37 -116 125.5 -187t221.5 -71q125 0 211 54.5t86 152.5q0 130 -163 171l-338 80q-177 42 -268 147.5t-91 247.5q0 126 75 224t199.5 149t275.5 51q211 0 358.5 -100t204.5 -264
q5 -14 -10 -19l-218 -74q-14 -5 -19 10q-31 91 -108 154.5t-205 63.5q-116 0 -192.5 -52.5t-76.5 -134.5q0 -59 43 -99.5t116 -58.5l343 -82q160 -38 259.5 -138.5t99.5 -258.5q0 -105 -46 -191.5t-126 -143.5t-187 -88t-229 -31zM326 1824q-5 8 -2 13t12 5h206q12 0 18 -9
l58 -73q21 -27 48.5 -27t48.5 28l56 72q6 9 19 9h206q9 0 12 -5t-2 -13l-175 -238q-6 -9 -18 -9h-295q-13 0 -18 9z" />
    <glyph glyph-name="scaron" unicode="&#x161;" horiz-adv-x="1087" 
d="M545 1075q93 0 170.5 -22.5t130 -61t87 -82.5t53.5 -94q5 -14 -8 -20l-186 -74q-14 -6 -20 7q-23 60 -83 104t-146 44q-77 0 -125.5 -32t-48.5 -79q0 -73 105 -97l220 -51q159 -35 233 -111.5t74 -196.5q0 -85 -36 -151t-99 -106.5t-144 -61t-176 -20.5q-189 0 -308 81.5
t-167 218.5q-6 15 9 21l191 68q15 6 21 -9q64 -179 253 -179q89 0 140.5 34t51.5 91q0 41 -33 72t-93 44l-207 47q-296 67 -296 299q0 144 124 230.5t313 86.5zM195 1424q-5 8 -2 13.5t12 5.5h206q12 0 18 -9l58 -73q21 -27 48.5 -27t48.5 28l56 72q6 9 18 9h207
q9 0 11.5 -5.5t-2.5 -13.5l-174 -237q-6 -9 -18 -9h-295q-13 0 -18 9z" />
    <glyph glyph-name="uni0162" unicode="&#x162;" horiz-adv-x="1286" 
d="M429 -384q-15 0 -15 15v98q0 15 15 15h44q52 0 88 14t36 42q0 56 -86 56h-39q-18 0 -13 17q5 15 17.5 46t19.5 54.5t7 40.5v1120q0 31 -21 52t-53 21h-373q-6 0 -10.5 5t-4.5 11v205q0 6 4.5 11t10.5 5l1175 1q6 0 10.5 -4.5t4.5 -10.5v-206q0 -6 -4.5 -11t-10.5 -5h-373
q-32 0 -53 -21t-21 -52v-1120q0 -13 -24 -17.5t-51 -11t-31 -23.5l-3 -9q-4 -15 11.5 -29t37 -26.5t40 -40.5t18.5 -67q0 -87 -72.5 -131t-193.5 -44h-87z" />
    <glyph glyph-name="uni0163" unicode="&#x163;" horiz-adv-x="854" 
d="M242 766q0 25 -17 41.5t-43 16.5h-123q-6 0 -10.5 5t-4.5 11v189q0 6 4.5 10.5t10.5 4.5h83q52 0 80.5 29t28.5 82v170q0 6 4.5 10.5t10.5 4.5h237q6 0 10.5 -4.5t4.5 -10.5v-221q0 -26 17 -43t42 -17h185q6 0 10.5 -4.5t4.5 -10.5v-189q0 -6 -4.5 -11t-10.5 -5h-185
q-25 0 -42 -17t-17 -42v-426q0 -107 114 -107h103q17 0 17 -15v-202q0 -15 -13 -15h-123l-8 -26q-5 -16 14.5 -32.5t46 -30.5t49.5 -45.5t23 -74.5q0 -87 -72.5 -131t-193.5 -44h-87q-15 0 -15 15v98q0 15 15 15h44q52 0 88 14t36 42q0 56 -86 56h-39q-18 0 -13 17l44 136
q-112 23 -166 96t-54 207v454z" />
    <glyph glyph-name="Tcaron" unicode="&#x164;" horiz-adv-x="1286" 
d="M41 1428q0 6 4.5 11t10.5 5l1175 1q6 0 10.5 -4.5t4.5 -10.5v-206q0 -6 -4.5 -11t-10.5 -5h-373q-32 0 -53 -21t-21 -52v-1120q0 -6 -4.5 -10.5t-10.5 -4.5h-251q-6 0 -10.5 4.5t-4.5 10.5v1119q0 31 -21 52t-53 21h-373q-6 0 -10.5 5t-4.5 11v205zM304 1824q-5 8 -2 13
t12 5h206q13 0 19 -9l58 -73q21 -27 48 -27t48 28l57 72q6 9 18 9h207q9 0 11.5 -5t-2.5 -13l-174 -238q-6 -9 -18 -9h-295q-14 0 -19 9z" />
    <glyph glyph-name="tcaron" unicode="&#x165;" horiz-adv-x="852" 
d="M241 766q0 25 -17 41.5t-43 16.5h-123q-6 0 -10.5 5t-4.5 11v189q0 6 4.5 10.5t10.5 4.5h83q52 0 80.5 29t28.5 82v170q0 6 4.5 10.5t10.5 4.5h237q6 0 10.5 -4.5t4.5 -10.5v-221q0 -26 16.5 -43t41.5 -17h186q6 0 10.5 -4.5t4.5 -10.5v-189q0 -6 -4.5 -11t-10.5 -5h-186
q-25 0 -41.5 -16.5t-16.5 -42.5v-426q0 -107 114 -107h103q17 0 17 -15v-202q0 -15 -13 -15h-163q-172 0 -253 74t-81 238v454zM628 1184l75 495q2 14 17 14h244q16 0 13 -17l-140 -495q-3 -13 -17 -13h-179q-15 0 -13 16z" />
    <glyph glyph-name="Tbar" unicode="&#x166;" horiz-adv-x="1326" 
d="M60 1428q0 6 5 11t11 5l1174 1q6 0 11 -4.5t5 -10.5v-206q0 -6 -5 -11t-11 -5h-372q-32 0 -53 -21t-21 -52v-221q0 -27 18 -45t45 -18h268q6 0 10.5 -4.5t4.5 -10.5v-180q0 -6 -4.5 -10.5t-10.5 -4.5h-268q-27 0 -45 -18t-18 -45v-563q0 -6 -5 -10.5t-11 -4.5h-250
q-6 0 -11 4.5t-5 10.5v563q0 27 -17.5 45t-44.5 18h-269q-6 0 -10.5 4.5t-4.5 10.5v180q0 6 4.5 10.5t10.5 4.5h269q27 0 44.5 18t17.5 45v220q0 32 -21 52.5t-52 20.5h-373q-6 0 -11 5t-5 11v205z" />
    <glyph glyph-name="tbar" unicode="&#x167;" horiz-adv-x="862" 
d="M248 436q0 18 -11.5 29.5t-30.5 11.5h-101q-6 0 -10.5 5t-4.5 11v139q0 6 4.5 10.5t10.5 4.5h102q17 0 29 11.5t12 29.5v78q0 25 -15.5 39t-41.5 14l-125 1q-6 0 -11 5t-5 11v193q0 6 5 10.5t11 4.5h85q44 0 73 29.5t29 73.5v178q0 6 4.5 10.5t10.5 4.5h241
q6 0 10.5 -4.5t4.5 -10.5v-221q0 -26 17 -43t43 -17h184q6 0 10.5 -4.5t4.5 -10.5v-193q0 -6 -4.5 -11.5t-10.5 -5.5h-187q-26 0 -41.5 -14t-15.5 -39v-78q0 -18 11.5 -29.5t29.5 -11.5h160q6 0 10.5 -4.5t4.5 -10.5v-139q0 -6 -4.5 -11t-10.5 -5h-165q-15 0 -25.5 -10.5
t-10.5 -25.5v-110q0 -99 120 -99h96q6 0 11 -4.5t5 -10.5v-202q0 -6 -5 -10.5t-11 -4.5h-163q-165 0 -247 74t-82 229v133z" />
    <glyph glyph-name="Utilde" unicode="&#x168;" horiz-adv-x="1471" 
d="M735 -31q-275 0 -426.5 144.5t-151.5 410.5v904q0 16 15 16h251q6 0 10.5 -4.5t4.5 -11.5v-897q0 -160 76.5 -243t220.5 -83t221.5 83t77.5 243v897q0 16 16 16h250q6 0 11 -4.5t5 -11.5v-904q0 -265 -152.5 -410t-428.5 -145zM360 1627q0 106 62 172t157 66
q83 0 165 -56l44 -29q39 -26 55 -34t37 -8q64 0 64 77q0 15 15 15h139q15 0 15 -15q0 -103 -62 -170t-165 -67q-86 0 -174 62l-42 29q-4 2 -15 10t-15.5 10.5t-12.5 7t-14.5 6t-13.5 1.5q-32 0 -51 -22.5t-19 -54.5q0 -15 -16 -15h-137q-16 0 -16 15z" />
    <glyph glyph-name="utilde" unicode="&#x169;" 
d="M500 -31q-169 0 -264.5 100t-95.5 276v684q0 6 5 10.5t11 4.5h245q7 0 11.5 -4.5t4.5 -10.5v-631q0 -105 45 -160t132 -55q46 0 86 15t74.5 46t54.5 86t20 127v572q0 6 4.5 10.5t11.5 4.5h246q6 0 10.5 -4.5t4.5 -10.5v-1014q0 -15 -15 -15h-180q-24 0 -37 16l-18 24
q-18 22 -44.5 25t-53.5 -15q-111 -81 -258 -81zM244 1228q0 106 61.5 171.5t156.5 65.5q85 0 166 -55l44 -30q29 -19 39 -25.5t23.5 -11.5t28.5 -5q64 0 64 77q0 16 16 16h138q15 0 15 -16q0 -103 -62 -169.5t-165 -66.5q-86 0 -174 62l-42 29q-4 2 -15 10t-15.5 10.5
t-12.5 7t-14.5 6t-13.5 1.5q-32 0 -50.5 -22.5t-18.5 -54.5q0 -16 -17 -16h-137q-15 0 -15 16z" />
    <glyph glyph-name="Umacron" unicode="&#x16a;" horiz-adv-x="1471" 
d="M735 -31q-275 0 -426.5 144.5t-151.5 410.5v904q0 16 15 16h251q6 0 10.5 -4.5t4.5 -11.5v-897q0 -160 76.5 -243t220.5 -83t221.5 83t77.5 243v897q0 16 16 16h250q6 0 11 -4.5t5 -11.5v-904q0 -265 -152.5 -410t-428.5 -145zM462 1663v144q0 6 4.5 11t10.5 5h524
q6 0 11 -5t5 -11v-144q0 -6 -5 -10.5t-11 -4.5h-524q-6 0 -10.5 4.5t-4.5 10.5z" />
    <glyph glyph-name="umacron" unicode="&#x16b;" 
d="M500 -31q-169 0 -264.5 100t-95.5 276v684q0 6 5 10.5t11 4.5h245q7 0 11.5 -4.5t4.5 -10.5v-631q0 -105 45 -160t132 -55q46 0 86 15t74.5 46t54.5 86t20 127v572q0 6 4.5 10.5t11.5 4.5h246q6 0 10.5 -4.5t4.5 -10.5v-1014q0 -15 -15 -15h-180q-24 0 -37 16l-18 24
q-18 22 -44.5 25t-53.5 -15q-111 -81 -258 -81zM345 1264v144q0 6 4.5 10.5t10.5 4.5h525q6 0 10.5 -4.5t4.5 -10.5v-144q0 -6 -4.5 -11t-10.5 -5h-525q-6 0 -10.5 5t-4.5 11z" />
    <glyph glyph-name="Ubreve" unicode="&#x16c;" horiz-adv-x="1471" 
d="M735 -31q-275 0 -426.5 144.5t-151.5 410.5v904q0 16 15 16h251q6 0 10.5 -4.5t4.5 -11.5v-897q0 -160 76.5 -243t220.5 -83t221.5 83t77.5 243v897q0 16 16 16h250q6 0 11 -4.5t5 -11.5v-904q0 -265 -152.5 -410t-428.5 -145zM420 1828q0 15 15 15h158q16 0 16 -15
q0 -44 34.5 -74t89.5 -30t92.5 30t37.5 74q0 15 17 15h156q16 0 16 -12q0 -117 -91 -193t-226 -76q-131 0 -223 75t-92 191z" />
    <glyph glyph-name="ubreve" unicode="&#x16d;" 
d="M500 -31q-169 0 -264.5 100t-95.5 276v684q0 6 5 10.5t11 4.5h245q7 0 11.5 -4.5t4.5 -10.5v-631q0 -105 45 -160t132 -55q46 0 86 15t74.5 46t54.5 86t20 127v572q0 6 4.5 10.5t11.5 4.5h246q6 0 10.5 -4.5t4.5 -10.5v-1014q0 -15 -15 -15h-180q-24 0 -37 16l-18 24
q-18 22 -44.5 25t-53.5 -15q-111 -81 -258 -81zM303 1428q0 16 15 16h158q17 0 17 -16q0 -44 34 -73.5t89 -29.5q56 0 93 29.5t37 73.5q0 16 17 16h157q15 0 15 -12q0 -117 -91 -193.5t-226 -76.5q-131 0 -223 75t-92 191z" />
    <glyph glyph-name="Uring" unicode="&#x16e;" horiz-adv-x="1471" 
d="M735 -31q-275 0 -426.5 144.5t-151.5 410.5v904q0 16 15 16h251q6 0 10.5 -4.5t4.5 -11.5v-897q0 -160 76.5 -243t220.5 -83t221.5 83t77.5 243v897q0 16 16 16h250q6 0 11 -4.5t5 -11.5v-904q0 -265 -152.5 -410t-428.5 -145zM521 1749q0 87 61.5 145.5t151.5 58.5
q91 0 153 -58.5t62 -145.5q0 -88 -62 -147t-153 -59q-90 0 -151.5 59t-61.5 147zM662 1748q0 -31 21 -52.5t51 -21.5q33 0 54 21t21 53t-21.5 53.5t-53.5 21.5q-30 0 -51 -21.5t-21 -53.5z" />
    <glyph glyph-name="uring" unicode="&#x16f;" 
d="M500 -31q-169 0 -264.5 100t-95.5 276v684q0 6 5 10.5t11 4.5h245q7 0 11.5 -4.5t4.5 -10.5v-631q0 -105 45 -160t132 -55q46 0 86 15t74.5 46t54.5 86t20 127v572q0 6 4.5 10.5t11.5 4.5h246q6 0 10.5 -4.5t4.5 -10.5v-1014q0 -15 -15 -15h-180q-24 0 -37 16l-18 24
q-18 22 -44.5 25t-53.5 -15q-111 -81 -258 -81zM404 1350q0 87 61.5 145t151.5 58q91 0 153.5 -58t62.5 -145q0 -88 -62.5 -147t-153.5 -59q-90 0 -151.5 59t-61.5 147zM545 1349q0 -31 21 -52.5t51 -21.5q33 0 54 21t21 53q0 31 -21.5 52.5t-53.5 21.5q-30 0 -51 -21
t-21 -53z" />
    <glyph glyph-name="Uhungarumlaut" unicode="&#x170;" horiz-adv-x="1471" 
d="M735 -31q-275 0 -426.5 144.5t-151.5 410.5v904q0 16 15 16h251q6 0 10.5 -4.5t4.5 -11.5v-897q0 -160 76.5 -243t220.5 -83t221.5 83t77.5 243v897q0 16 16 16h250q6 0 11 -4.5t5 -11.5v-904q0 -265 -152.5 -410t-428.5 -145zM386 1596l169 238q5 9 18 9h294
q10 0 13 -5.5t-4 -12.5l-236 -240q-7 -7 -19 -7h-226q-9 0 -11.5 5t2.5 13zM820 1596l169 238q5 9 19 9h294q10 0 12.5 -5.5t-4.5 -12.5l-236 -240q-7 -7 -19 -7h-226q-9 0 -11.5 5t2.5 13z" />
    <glyph glyph-name="uhungarumlaut" unicode="&#x171;" 
d="M500 -31q-169 0 -264.5 100t-95.5 276v684q0 6 5 10.5t11 4.5h245q7 0 11.5 -4.5t4.5 -10.5v-631q0 -105 45 -160t132 -55q46 0 86 15t74.5 46t54.5 86t20 127v572q0 6 4.5 10.5t11.5 4.5h246q6 0 10.5 -4.5t4.5 -10.5v-1014q0 -15 -15 -15h-180q-24 0 -37 16l-18 24
q-18 22 -44.5 25t-53.5 -15q-111 -81 -258 -81zM269 1197l169 238q5 9 19 9h294q10 0 12.5 -6t-4.5 -13l-236 -239q-7 -7 -19 -7h-225q-9 0 -12 5.5t2 12.5zM703 1197l169 238q5 9 19 9h294q10 0 12.5 -6t-4.5 -13l-236 -239q-7 -7 -19 -7h-225q-9 0 -12 5.5t2 12.5z" />
    <glyph glyph-name="Uogonek" unicode="&#x172;" horiz-adv-x="1471" 
d="M157 524v904q0 16 15 16h251q6 0 10.5 -4.5t4.5 -11.5v-897q0 -160 76.5 -243t220.5 -83t221.5 83t77.5 243v897q0 16 16 16h250q6 0 11 -4.5t5 -11.5v-904q0 -203 -91 -337t-261 -187q-89 -38 -132.5 -94.5t-43.5 -109.5q0 -43 30 -64.5t82 -21.5h41q15 0 15 -15v-136
q0 -14 -14 -17q-60 -12 -124 -12q-111 0 -180 56.5t-69 161.5q0 47 19.5 86t38.5 63.5t19 37.5q0 27 -35 42q-218 31 -336 172t-118 375z" />
    <glyph glyph-name="uogonek" unicode="&#x173;" 
d="M506 -15q-166 0 -266 101t-100 270v673q0 15 16 15h245q16 0 16 -15v-614q0 -105 45 -160t132 -55q46 0 86 15t74.5 45.5t54.5 85.5t20 127v556q0 15 16 15h246q15 0 15 -15v-1014q0 -9 -10 -14q-90 -47 -134 -101.5t-44 -108.5q0 -86 111 -86h41q15 0 15 -15v-136
q0 -14 -14 -17q-60 -12 -124 -12q-110 0 -179.5 58.5t-69.5 164.5q0 45 17 84.5t38 61.5t38 42.5t17 32.5q0 22 -21 53t-43 31q-5 0 -23 -10.5t-41.5 -23.5t-70.5 -23.5t-103 -10.5z" />
    <glyph glyph-name="Wcircumflex" unicode="&#x174;" horiz-adv-x="2075" 
d="M1172 1445q15 0 18 -13l245 -880q7 -25 28 -34t42 1t27 35l200 878q3 13 17 13h260q17 0 13 -18l-358 -1414q-3 -13 -16 -13h-294q-15 0 -18 13l-252 902q-10 36 -46 36t-46 -36l-253 -902q-3 -13 -16 -13h-296q-13 0 -16 13l-357 1414q-2 8 2.5 13t11.5 5h260
q14 0 17 -13l200 -877q6 -25 27 -35.5t42 -1t28 34.5l245 879q3 13 16 13h269z" />
    <glyph glyph-name="wcircumflex" unicode="&#x175;" horiz-adv-x="1723" 
d="M981 1044q13 0 16 -12l149 -529q10 -38 47.5 -38t48.5 38l155 529q3 12 16 12h249q18 0 13 -17l-310 -1014q-4 -13 -17 -13h-263q-14 0 -17 13l-157 552q-11 38 -48.5 38.5t-48.5 -37.5l-158 -553q-4 -13 -17 -13h-263q-14 0 -18 13l-309 1014q-5 17 13 17h249
q14 0 17 -12l154 -530q11 -38 48.5 -37.5t48.5 38.5l148 529q5 12 17 12h237z" />
    <glyph glyph-name="Ycircumflex" unicode="&#x176;" horiz-adv-x="1347" 
d="M610 924q24 -43 64.5 -43t63.5 43l278 510q6 10 18 10h281q9 0 12 -5.5t-1 -13.5l-491 -842q-21 -36 -21 -74v-494q0 -15 -15 -15h-251q-16 0 -16 15v494q0 41 -19 74l-491 842q-10 19 10 19h281q14 0 19 -10zM336 1596l174 238q6 9 18 9h295q14 0 19 -9l174 -238
q5 -8 2 -13t-12 -5h-206q-13 0 -19 9l-58 73q-21 27 -48 27t-48 -28l-57 -72q-6 -9 -18 -9h-207q-9 0 -11.5 5t2.5 13z" />
    <glyph glyph-name="ycircumflex" unicode="&#x177;" horiz-adv-x="1149" 
d="M42 1027q-5 17 12 17h258q15 0 18 -12l189 -577q14 -44 55.5 -43.5t55.5 44.5l189 576q3 12 18 12h260q18 0 12 -17l-440 -1169q-52 -140 -142.5 -191t-240.5 -51h-112q-13 0 -13 16v201q0 15 15 15h89q53 0 83.5 17t47.5 59l17 44q13 33 -1 70z" />
    <glyph glyph-name="Ydieresis" unicode="&#x178;" horiz-adv-x="1347" 
d="M610 924q24 -43 64.5 -43t63.5 43l278 510q6 10 18 10h281q9 0 12 -5.5t-1 -13.5l-491 -842q-21 -36 -21 -74v-494q0 -15 -15 -15h-251q-16 0 -16 15v494q0 41 -19 74l-491 842q-10 19 10 19h281q14 0 19 -10zM351 1587v221q0 16 16 16h223q15 0 15 -16v-221
q0 -15 -15 -15h-223q-16 0 -16 15zM744 1587v221q0 16 16 16h223q15 0 15 -16v-221q0 -15 -15 -15h-223q-16 0 -16 15z" />
    <glyph glyph-name="Zacute" unicode="&#x179;" horiz-adv-x="1299" 
d="M1217 15q0 -15 -16 -15h-1105q-15 0 -15 15v185q0 13 9 27l648 862q33 43 14.5 80.5t-70.5 37.5h-559q-15 0 -15 16v205q0 16 15 16h1057q15 0 15 -16v-188q0 -15 -10 -28l-643 -857q-32 -43 -13 -80.5t70 -37.5h602q16 0 16 -16v-206zM520 1596l169 238q5 9 19 9h293
q10 0 13 -5.5t-4 -12.5l-236 -240q-7 -7 -19 -7h-226q-9 0 -11.5 5t2.5 13z" />
    <glyph glyph-name="zacute" unicode="&#x17a;" horiz-adv-x="1068" 
d="M968 220q15 0 15 -15v-190q0 -15 -15 -15h-862q-15 0 -15 15v201q0 12 7 20l461 502q26 28 14 57t-50 29h-402q-16 0 -16 16v189q0 15 16 15h819q15 0 15 -15v-205q0 -11 -7 -19l-453 -497q-27 -28 -15 -58t49 -30h439zM396 1197l169 238q5 9 19 9h294q10 0 12.5 -6
t-4.5 -13l-236 -239q-7 -7 -19 -7h-225q-9 0 -12 5.5t2 12.5z" />
    <glyph glyph-name="Zdotaccent" unicode="&#x17b;" horiz-adv-x="1299" 
d="M1217 15q0 -15 -16 -15h-1105q-15 0 -15 15v185q0 13 9 27l648 862q33 43 14.5 80.5t-70.5 37.5h-559q-15 0 -15 16v205q0 16 15 16h1057q15 0 15 -16v-188q0 -15 -10 -28l-643 -857q-32 -43 -13 -80.5t70 -37.5h602q16 0 16 -16v-206zM522 1587v221q0 16 16 16h223
q15 0 15 -16v-221q0 -15 -15 -15h-223q-16 0 -16 15z" />
    <glyph glyph-name="zdotaccent" unicode="&#x17c;" horiz-adv-x="1068" 
d="M968 220q15 0 15 -15v-190q0 -15 -15 -15h-862q-15 0 -15 15v201q0 12 7 20l461 502q26 28 14 57t-50 29h-402q-16 0 -16 16v189q0 15 16 15h819q15 0 15 -15v-205q0 -11 -7 -19l-453 -497q-27 -28 -15 -58t49 -30h439zM398 1188v221q0 15 16 15h223q15 0 15 -15v-221
q0 -16 -15 -16h-223q-16 0 -16 16z" />
    <glyph glyph-name="Zcaron" unicode="&#x17d;" horiz-adv-x="1299" 
d="M1217 15q0 -15 -16 -15h-1105q-15 0 -15 15v185q0 13 9 27l648 862q33 43 14.5 80.5t-70.5 37.5h-559q-15 0 -15 16v205q0 16 15 16h1057q15 0 15 -16v-188q0 -15 -10 -28l-643 -857q-32 -43 -13 -80.5t70 -37.5h602q16 0 16 -16v-206zM310 1824q-5 8 -1.5 13t12.5 5h205
q13 0 19 -9l58 -73q21 -27 48 -27t48 28l57 72q6 9 18 9h207q9 0 11.5 -5t-2.5 -13l-174 -238q-6 -9 -18 -9h-295q-14 0 -19 9z" />
    <glyph glyph-name="zcaron" unicode="&#x17e;" horiz-adv-x="1068" 
d="M968 220q15 0 15 -15v-190q0 -15 -15 -15h-862q-15 0 -15 15v201q0 12 7 20l461 502q26 28 14 57t-50 29h-402q-16 0 -16 16v189q0 15 16 15h819q15 0 15 -15v-205q0 -11 -7 -19l-453 -497q-27 -28 -15 -58t49 -30h439zM185 1424q-5 8 -1.5 13.5t12.5 5.5h205q13 0 19 -9
l58 -73q21 -27 48 -27t48 28l57 72q6 9 18 9h207q9 0 11.5 -5.5t-2.5 -13.5l-174 -237q-6 -9 -18 -9h-295q-14 0 -19 9z" />
    <glyph glyph-name="florin" unicode="&#x192;" horiz-adv-x="1012" 
d="M68 -251q-7 0 -11.5 4.5t-4.5 10.5v195q0 15 16 15h79q122 -1 144 127l85 465q6 34 -14 57.5t-54 23.5h-144q-16 0 -16 16v179q0 15 16 15h206q27 0 46.5 16t23.5 43l48 267q24 126 101 193.5t196 67.5h142q6 0 10.5 -4.5t4.5 -11.5v-193q0 -16 -16 -16l-60 1
q-123 1 -143 -126l-29 -162q-5 -32 14.5 -53.5t53.5 -21.5h157q15 0 15 -15v-179q0 -7 -4.5 -11.5t-10.5 -4.5h-218q-27 0 -46 -16t-24 -43l-106 -578q-24 -127 -102.5 -194t-206.5 -67h-148z" />
    <glyph glyph-name="uni01CD" unicode="&#x1cd;" horiz-adv-x="1472" 
d="M906 1444q14 0 18 -12l520 -1415q5 -17 -12 -17h-263q-13 0 -17 12l-97 275q-16 52 -75 52h-487q-59 0 -74 -52l-97 -275q-4 -12 -19 -12h-261q-19 0 -12 17l519 1415q4 12 18 12h339zM396 1824q-5 8 -1.5 13t12.5 5h205q13 0 19 -9l58 -73q21 -27 48 -27t48 28l57 72
q6 9 18 9h207q9 0 11.5 -5t-2.5 -13l-174 -238q-6 -9 -18 -9h-295q-14 0 -19 9zM538 631q-9 -32 8.5 -55.5t51.5 -23.5h276q34 0 52.5 23.5t8.5 55.5l-145 425q-8 25 -31 35t-46 0t-30 -35z" />
    <glyph glyph-name="uni01CE" unicode="&#x1ce;" horiz-adv-x="1167" 
d="M578 1075q207 0 327.5 -103.5t121.5 -292.5l2 -664q0 -15 -15 -15h-185q-19 0 -28 13l-16 20q-19 24 -46.5 26.5t-52.5 -16.5q-100 -74 -241 -74q-95 0 -174.5 36t-131 111.5t-51.5 176.5q0 269 372 328l224 37q66 10 66 76v1q0 50 -47 92t-133 42q-161 0 -211 -140
q-5 -14 -20 -9l-206 75q-16 6 -9 20q49 115 165 187.5t289 72.5zM240 1424q-5 8 -2 13.5t12 5.5h206q12 0 18 -9l58 -73q21 -27 48.5 -27t48.5 28l56 72q6 9 18 9h207q9 0 12 -5.5t-2 -13.5l-175 -237q-6 -9 -18 -9h-295q-13 0 -18 9zM365 299q0 -59 47.5 -95.5t121.5 -36.5
q99 0 162.5 64.5t63.5 158.5v38q0 31 -20.5 47t-53.5 9l-159 -34q-77 -17 -119.5 -56t-42.5 -95z" />
    <glyph glyph-name="Gcaron" unicode="&#x1e6;" horiz-adv-x="1593" 
d="M777 -31q-196 0 -351 93.5t-243 265.5t-88 394q0 339 195.5 546t518.5 207q122 0 227 -31t182 -86t132.5 -123t90.5 -150q6 -14 -9 -21l-220 -83q-15 -7 -20 9q-18 47 -44.5 87.5t-70 79t-110.5 61t-150 22.5q-198 0 -314 -135.5t-116 -382.5q0 -244 111.5 -380.5
t316.5 -136.5q90 0 163 27.5t116 71t65.5 93t22.5 98.5q0 26 -17 43.5t-43 17.5h-344q-15 0 -15 15v196q0 15 15 15h676q15 0 15 -15v-752q0 -15 -15 -15h-175q-15 0 -25 12l-35 43q-18 21 -45 25.5t-55 -12.5q-147 -99 -342 -99zM471 1824q-5 8 -2 13t12 5h206q13 0 19 -9
l58 -73q21 -27 48 -27t48 28l56 72q6 9 19 9h207q9 0 11.5 -5t-2.5 -13l-174 -238q-6 -9 -19 -9h-294q-14 0 -19 9z" />
    <glyph glyph-name="gcaron" unicode="&#x1e7;" horiz-adv-x="1217" 
d="M105 719q1 105 63 186.5t166.5 125.5t232.5 44q69 0 127 -10q30 -6 50 7t27 38q10 32 29 60t51 54.5t82.5 41.5t114.5 15l53 -1q6 0 10.5 -4.5t4.5 -10.5l-1 -182q0 -6 -4.5 -10.5t-10.5 -4.5h-43q-72 1 -99 -22t-27 -62q0 -7 1.5 -13t5 -13.5t6 -11.5t9.5 -14t9 -14
q0 -1 11 -17t15.5 -23.5t14 -27.5t13.5 -37t8 -42t4 -52q-1 -162 -130.5 -259.5t-330.5 -97.5q-48 0 -91 5t-53 5q-26 0 -45.5 -21t-20.5 -52q-1 -38 27.5 -60t82.5 -22h324q165 0 260 -69t95 -197q0 -166 -152.5 -266t-430.5 -100q-246 0 -378.5 79t-132.5 209q0 97 78 177
q18 18 22.5 44.5t-5.5 50.5q-23 52 -23 105q0 81 61 150q20 23 20 53t-20 51q-81 84 -80 215zM284 1460q-5 8 -2 13.5t12 5.5h206q11 0 18 -10l59 -72q21 -27 48 -27t48 28l56 71q7 10 19 10h206q9 0 12 -5.5t-2 -13.5l-174 -237q-7 -10 -19 -10h-295q-12 0 -18 10zM294 -86
q0 -64 69.5 -102.5t200.5 -38.5q144 0 222 40.5t78 103.5q0 41 -36.5 65.5t-98.5 24.5h-321q-48 0 -81 -25.5t-33 -67.5zM376 718q-1 -78 52 -123.5t139 -45.5q87 0 139.5 45.5t52.5 123.5q0 77 -53.5 123t-138.5 46q-84 0 -137 -45.5t-54 -123.5z" />
    <glyph glyph-name="uni01E8" unicode="&#x1e8;" horiz-adv-x="1415" 
d="M759 798q-25 -26 -24.5 -57t25.5 -57l661 -664q6 -6 3 -13t-11 -7h-341q-12 0 -21 10l-499 517q-30 31 -64.5 17.5t-34.5 -57.5v-472q0 -15 -16 -15h-251q-15 0 -15 15v1413q0 16 15 16h251q16 0 16 -16v-439q0 -45 35 -58.5t66 19.5l454 484q10 10 22 10h328q8 0 11 -7
t-3 -13zM329 1824q-5 8 -2 13t12 5h206q12 0 18 -9l59 -73q21 -27 48 -27t48 28l56 72q6 9 19 9h206q9 0 12 -5t-2 -13l-174 -238q-6 -9 -19 -9h-295q-13 0 -18 9z" />
    <glyph glyph-name="uni01E9" unicode="&#x1e9;" horiz-adv-x="1210" 
d="M428 15q0 -6 -4.5 -10.5t-10.5 -4.5h-246q-6 0 -10.5 4.5t-4.5 10.5v1413q0 7 4.5 11.5t10.5 4.5h246q6 0 10.5 -4.5t4.5 -11.5v-617q0 -46 37 -61t69 19l264 265q9 10 23 10h308q8 0 11.5 -7t-2.5 -13l-412 -408q-24 -24 -24 -54.5t24 -54.5l496 -487q6 -6 2 -13t-12 -7
h-323q-14 0 -24 10l-330 339q-32 34 -69.5 19.5t-37.5 -61.5v-292zM-48 1803q-5 7 -2 13t12 6h206q11 0 18 -10l59 -72q21 -27 48 -27t48 28l56 71q7 10 19 10h207q9 0 11.5 -6t-2.5 -13l-174 -237q-7 -10 -19 -10h-295q-12 0 -18 10z" />
    <glyph glyph-name="uni0218" unicode="&#x218;" horiz-adv-x="1346" 
d="M672 -31q-121 0 -221 30t-172 86t-122 129t-81 165q-5 14 9 19l225 68q17 4 21 -9q37 -116 125.5 -187t221.5 -71q125 0 211 54.5t86 152.5q0 130 -163 171l-338 80q-177 42 -268 147.5t-91 247.5q0 126 75 224t199.5 149t275.5 51q211 0 358.5 -100t204.5 -264
q5 -14 -10 -19l-218 -74q-14 -5 -19 10q-31 91 -108 154.5t-205 63.5q-116 0 -192.5 -52.5t-76.5 -134.5q0 -59 43 -99.5t116 -58.5l343 -82q160 -38 259.5 -138.5t99.5 -258.5q0 -105 -46 -191.5t-126 -143.5t-187 -88t-229 -31zM505 -366l63 274q3 14 17 14h224
q19 0 13 -17l-106 -274q-5 -13 -17 -13h-180q-17 0 -14 16z" />
    <glyph glyph-name="uni0219" unicode="&#x219;" horiz-adv-x="1087" 
d="M545 1075q93 0 170.5 -22.5t130 -61t87 -82.5t53.5 -94q5 -14 -8 -20l-186 -74q-14 -6 -20 7q-23 60 -83 104t-146 44q-77 0 -125.5 -32t-48.5 -79q0 -73 105 -97l220 -51q159 -35 233 -111.5t74 -196.5q0 -85 -36 -151t-99 -106.5t-144 -61t-176 -20.5q-189 0 -308 81.5
t-167 218.5q-6 15 9 21l191 68q15 6 21 -9q64 -179 253 -179q89 0 140.5 34t51.5 91q0 41 -33 72t-93 44l-207 47q-296 67 -296 299q0 144 124 230.5t313 86.5zM365 -366l63 274q3 14 16 14h225q19 0 13 -17l-107 -274q-5 -13 -16 -13h-180q-17 0 -14 16z" />
    <glyph glyph-name="uni021A" unicode="&#x21a;" horiz-adv-x="1286" 
d="M41 1428q0 6 4.5 11t10.5 5l1175 1q6 0 10.5 -4.5t4.5 -10.5v-206q0 -6 -4.5 -11t-10.5 -5h-373q-32 0 -53 -21t-21 -52v-1120q0 -6 -4.5 -10.5t-10.5 -4.5h-251q-6 0 -10.5 4.5t-4.5 10.5v1119q0 31 -21 52t-53 21h-373q-6 0 -10.5 5t-4.5 11v205zM450 -366l63 274
q3 14 16 14h225q19 0 13 -17l-107 -274q-5 -13 -16 -13h-180q-17 0 -14 16z" />
    <glyph glyph-name="uni021B" unicode="&#x21b;" horiz-adv-x="852" 
d="M241 766q0 25 -17 41.5t-43 16.5h-123q-6 0 -10.5 5t-4.5 11v189q0 6 4.5 10.5t10.5 4.5h83q52 0 80.5 29t28.5 82v170q0 6 4.5 10.5t10.5 4.5h237q6 0 10.5 -4.5t4.5 -10.5v-221q0 -26 16.5 -43t41.5 -17h186q6 0 10.5 -4.5t4.5 -10.5v-189q0 -6 -4.5 -11t-10.5 -5h-186
q-25 0 -41.5 -16.5t-16.5 -42.5v-426q0 -107 114 -107h103q17 0 17 -15v-202q0 -15 -13 -15h-163q-172 0 -253 74t-81 238v454zM329 -366l63 274q3 14 17 14h224q19 0 13 -17l-106 -274q-5 -13 -17 -13h-180q-17 0 -14 16z" />
    <glyph glyph-name="uni0237" unicode="&#x237;" horiz-adv-x="579" 
d="M428 -84q0 -155 -83.5 -235t-246.5 -80h-171q-14 2 -14 15v202q0 15 15 15h112q112 0 112 107v1089q0 15 15 15h246q15 0 15 -15v-1113z" />
    <glyph glyph-name="uni02C4" unicode="&#x2c4;" horiz-adv-x="1646" 
d="M1355 270q-5 -4 -11.5 -4t-10.5 4l-461 460q-23 23 -53 23.5t-52 -22.5l-455 -455q-10 -11 -21 0l-123 123q-4 5 -4 11.5t4 10.5l641 641q10 11 21 0l648 -647q11 -11 0 -22z" />
    <glyph glyph-name="uni02C5" unicode="&#x2c5;" horiz-adv-x="1646" 
d="M292 1074q10 10 21 0l460 -461q23 -23 53.5 -23.5t52.5 22.5l454 455q5 5 11.5 5t10.5 -5l123 -123q11 -10 0 -21l-640 -641q-12 -10 -23 0l-647 647q-9 11 0 22z" />
    <glyph glyph-name="circumflex" unicode="&#x2c6;" horiz-adv-x="1228" 
d="M364 1435q6 9 18 9h295q13 0 18 -9l174 -238q5 -7 2 -12.5t-12 -5.5h-206q-12 0 -18 9l-58 73q-21 27 -48.5 27t-48.5 -28l-56 -72q-6 -9 -18 -9h-207q-9 0 -12 5.5t2 12.5z" />
    <glyph glyph-name="caron" unicode="&#x2c7;" horiz-adv-x="1228" 
d="M865 1187q-6 -9 -18 -9h-295q-13 0 -18 9l-175 237q-5 8 -1.5 13.5t12.5 5.5h205q13 0 19 -9l58 -73q21 -27 48.5 -27t48.5 28l56 72q6 9 18 9h207q9 0 11.5 -5.5t-2.5 -13.5z" />
    <glyph glyph-name="uni02D6" unicode="&#x2d6;" horiz-adv-x="1646" 
d="M102 822q0 5 4.5 9t9.5 4h529q32 0 54 21t22 53v523q0 12 12 12h180q5 0 9 -4t4 -8v-523q0 -32 21 -53t53 -21h532q4 0 8 -4t4 -9v-180q0 -12 -12 -12h-532q-32 0 -53 -22t-21 -54v-541q0 -5 -4 -9t-9 -4h-180q-12 0 -12 13v541q0 32 -22 54t-54 22h-529q-14 0 -14 12
v180z" />
    <glyph glyph-name="breve" unicode="&#x2d8;" horiz-adv-x="1228" 
d="M563 1162q-131 0 -223 75t-92 191q0 16 15 16h158q16 0 16 -16q0 -44 34.5 -73.5t89.5 -29.5q56 0 93 29.5t37 73.5q0 16 17 16h156q16 0 16 -12q0 -117 -91 -193.5t-226 -76.5z" />
    <glyph glyph-name="dotaccent" unicode="&#x2d9;" horiz-adv-x="576" 
d="M427 1424q15 0 15 -15v-221q0 -16 -15 -16h-223q-16 0 -16 16v221q0 15 16 15h223z" />
    <glyph glyph-name="ring" unicode="&#x2da;" horiz-adv-x="851" 
d="M429 1144q-90 0 -151.5 59t-61.5 147q0 87 61.5 145t151.5 58q91 0 153 -58t62 -145q0 -88 -62 -147t-153 -59zM356 1349q0 -31 21.5 -52.5t51.5 -21.5q33 0 54 21t21 53q0 31 -21.5 52.5t-53.5 21.5q-30 0 -51.5 -21t-21.5 -53z" />
    <glyph glyph-name="tilde" unicode="&#x2dc;" horiz-adv-x="1228" 
d="M652 1179q-86 0 -174 62l-42 29q-5 3 -15 10t-15 10l-12.5 7.5t-14 6t-13.5 1.5q-32 0 -51 -22.5t-19 -54.5q0 -16 -16 -16h-138q-15 0 -15 16q0 106 61.5 171.5t156.5 65.5q85 0 166 -55l44 -30q29 -19 39 -25.5t23.5 -11.5t28.5 -5q31 0 48 20t17 57q0 16 15 16h138
q16 0 16 -16q0 -102 -62.5 -169t-165.5 -67z" />
    <glyph glyph-name="hungarumlaut" unicode="&#x2dd;" horiz-adv-x="1000" 
d="M950 1444q10 0 12.5 -6t-4.5 -13l-235 -239q-7 -7 -20 -7h-225q-9 0 -11.5 5.5t2.5 12.5l169 238q5 9 18 9h294zM35 1197l169 238q5 9 18 9h294q10 0 12.5 -6t-4.5 -13l-235 -239q-7 -7 -20 -7h-225q-9 0 -11.5 5.5t2.5 12.5z" />
    <glyph glyph-name="uni02DF" unicode="&#x2df;" horiz-adv-x="1646" 
d="M822 1475q218 0 389.5 -95.5t267 -267.5t95.5 -390t-95.5 -390t-267 -267.5t-389.5 -95.5q-217 0 -388 95.5t-266 267.5t-95 390t95 390t266 267.5t388 95.5zM283 722q0 -260 145.5 -412t394.5 -152q250 0 396 152t146 412t-146 412t-396 152t-395 -152t-145 -412z
M449 962q-9 7 0 16l122 124q10 7 17 0l188 -191q19 -19 43.5 -19t43.5 19l194 195q8 6 15 -1l121 -121q3 -3 3.5 -8t-1.5 -7l-196 -194q-19 -19 -19 -43.5t19 -43.5l189 -188q9 -9 1 -17l-123 -123q-8 -8 -17 0l-188 189q-19 19 -43.5 19t-43.5 -19l-183 -183q-8 -8 -17 0
l-120 120q-8 9 0 17l183 183q19 19 19 43t-19 44z" />
    <glyph glyph-name="gravecomb" unicode="&#x300;" horiz-adv-x="0" 
d="M344 1444q13 0 18 -9l169 -238q5 -7 2.5 -12.5t-11.5 -5.5h-225q-12 0 -19 7l-236 239q-7 7 -4.5 13t12.5 6h294z" />
    <glyph glyph-name="acutecomb" unicode="&#x301;" horiz-adv-x="0" 
d="M516 1444q10 0 12.5 -6t-4.5 -13l-235 -239q-7 -7 -20 -7h-225q-9 0 -11.5 5.5t2.5 12.5l169 238q5 9 18 9h294z" />
    <glyph glyph-name="uni0302" unicode="&#x302;" horiz-adv-x="0" 
d="M364 1435q6 9 18 9h295q13 0 18 -9l174 -238q5 -7 2 -12.5t-12 -5.5h-206q-12 0 -18 9l-58 73q-21 27 -48.5 27t-48.5 -28l-56 -72q-6 -9 -18 -9h-207q-9 0 -12 5.5t2 12.5z" />
    <glyph glyph-name="tildecomb" unicode="&#x303;" horiz-adv-x="0" 
d="M652 1179q-86 0 -174 62l-42 29q-5 3 -15 10t-15 10l-12.5 7.5t-14 6t-13.5 1.5q-32 0 -51 -22.5t-19 -54.5q0 -16 -16 -16h-138q-15 0 -15 16q0 106 61.5 171.5t156.5 65.5q85 0 166 -55l44 -30q29 -19 39 -25.5t23.5 -11.5t28.5 -5q31 0 48 20t17 57q0 16 15 16h138
q16 0 16 -16q0 -102 -62.5 -169t-165.5 -67z" />
    <glyph glyph-name="uni0304" unicode="&#x304;" horiz-adv-x="0" 
d="M219 1408q0 6 4.5 10.5t10.5 4.5h525q6 0 10.5 -4.5t4.5 -10.5v-144q0 -6 -4.5 -11t-10.5 -5h-525q-6 0 -10.5 5t-4.5 11v144z" />
    <glyph glyph-name="uni0306" unicode="&#x306;" horiz-adv-x="0" 
d="M563 1162q-131 0 -223 75t-92 191q0 16 15 16h158q16 0 16 -16q0 -44 34.5 -73.5t89.5 -29.5q56 0 93 29.5t37 73.5q0 16 17 16h156q16 0 16 -12q0 -117 -91 -193.5t-226 -76.5z" />
    <glyph glyph-name="uni0307" unicode="&#x307;" horiz-adv-x="0" 
d="M427 1424q15 0 15 -15v-221q0 -16 -15 -16h-223q-16 0 -16 16v221q0 15 16 15h223z" />
    <glyph glyph-name="uni0308" unicode="&#x308;" horiz-adv-x="0" 
d="M428 1424q15 0 15 -15v-221q0 -16 -15 -16h-223q-16 0 -16 16v221q0 15 16 15h223zM583 1188v221q0 15 15 15h223q16 0 16 -15v-221q0 -16 -16 -16h-223q-15 0 -15 16z" />
    <glyph glyph-name="uni030A" unicode="&#x30a;" horiz-adv-x="0" 
d="M429 1144q-90 0 -151.5 59t-61.5 147q0 87 61.5 145t151.5 58q91 0 153 -58t62 -145q0 -88 -62 -147t-153 -59zM356 1349q0 -31 21.5 -52.5t51.5 -21.5q33 0 54 21t21 53q0 31 -21.5 52.5t-53.5 21.5q-30 0 -51.5 -21t-21.5 -53z" />
    <glyph glyph-name="uni030B" unicode="&#x30b;" horiz-adv-x="0" 
d="M950 1444q10 0 12.5 -6t-4.5 -13l-235 -239q-7 -7 -20 -7h-225q-9 0 -11.5 5.5t2.5 12.5l169 238q5 9 18 9h294zM35 1197l169 238q5 9 18 9h294q10 0 12.5 -6t-4.5 -13l-235 -239q-7 -7 -20 -7h-225q-9 0 -11.5 5.5t2.5 12.5z" />
    <glyph glyph-name="uni030C" unicode="&#x30c;" horiz-adv-x="0" 
d="M865 1187q-6 -9 -18 -9h-295q-13 0 -18 9l-175 237q-5 8 -1.5 13.5t12.5 5.5h205q13 0 19 -9l58 -73q21 -27 48.5 -27t48.5 28l56 72q6 9 18 9h207q9 0 11.5 -5.5t-2.5 -13.5z" />
    <glyph glyph-name="uni0312" unicode="&#x312;" horiz-adv-x="0" 
 />
    <glyph glyph-name="uni0326" unicode="&#x326;" horiz-adv-x="0" 
d="M74 -92q3 14 16 14h224q8 0 12.5 -4.5t1.5 -12.5l-107 -274q-5 -13 -16 -13h-180q-18 0 -15 16z" />
    <glyph glyph-name="uni0327" unicode="&#x327;" horiz-adv-x="0" 
d="M70 -384q-16 0 -16 15v98q0 15 16 15h44q52 0 88 14t36 42q0 56 -86 56h-39q-19 0 -14 17l45 139h158l-12 -38q-5 -16 14.5 -32.5t46 -30.5t49.5 -45.5t23 -74.5q0 -87 -72.5 -131t-193.5 -44h-87z" />
    <glyph glyph-name="uni1E20" unicode="&#x1e20;" horiz-adv-x="1593" 
d="M777 -31q-196 0 -351 93.5t-243 265.5t-88 394q0 339 195.5 546t518.5 207q122 0 227 -31t182 -86t132.5 -123t90.5 -150q6 -14 -9 -21l-220 -83q-15 -7 -20 9q-18 47 -44.5 87.5t-70 79t-110.5 61t-150 22.5q-198 0 -314 -135.5t-116 -382.5q0 -244 111.5 -380.5
t316.5 -136.5q90 0 163 27.5t116 71t65.5 93t22.5 98.5q0 26 -17 43.5t-43 17.5h-344q-15 0 -15 15v196q0 15 15 15h676q15 0 15 -15v-752q0 -15 -15 -15h-175q-15 0 -25 12l-35 43q-18 21 -45 25.5t-55 -12.5q-147 -99 -342 -99zM537 1663v144q0 6 4.5 11t10.5 5h524
q6 0 11 -5t5 -11v-144q0 -6 -5 -10.5t-11 -4.5h-524q-6 0 -10.5 4.5t-4.5 10.5z" />
    <glyph glyph-name="uni1E21" unicode="&#x1e21;" horiz-adv-x="1217" 
d="M105 719q1 105 63 186.5t166.5 125.5t232.5 44q69 0 127 -10q30 -6 50 7t27 38q10 32 29 60t51 54.5t82.5 41.5t114.5 15l53 -1q6 0 10.5 -4.5t4.5 -10.5l-1 -182q0 -6 -4.5 -10.5t-10.5 -4.5h-43q-72 1 -99 -22t-27 -62q0 -7 1.5 -13t5 -13.5t6 -11.5t9.5 -14t9 -14
q0 -1 11 -17t15.5 -23.5t14 -27.5t13.5 -37t8 -42t4 -52q-1 -162 -130.5 -259.5t-330.5 -97.5q-48 0 -91 5t-53 5q-26 0 -45.5 -21t-20.5 -52q-1 -38 27.5 -60t82.5 -22h324q165 0 260 -69t95 -197q0 -166 -152.5 -266t-430.5 -100q-246 0 -378.5 79t-132.5 209q0 97 78 177
q18 18 22.5 44.5t-5.5 50.5q-23 52 -23 105q0 81 61 150q20 23 20 53t-20 51q-81 84 -80 215zM294 -86q0 -64 69.5 -102.5t200.5 -38.5q144 0 222 40.5t78 103.5q0 41 -36.5 65.5t-98.5 24.5h-321q-48 0 -81 -25.5t-33 -67.5zM347 1287v145q0 6 4.5 10.5t10.5 4.5h525
q6 0 10.5 -4.5t4.5 -10.5v-145q0 -6 -4.5 -10.5t-10.5 -4.5h-525q-6 0 -10.5 4.5t-4.5 10.5zM376 718q-1 -78 52 -123.5t139 -45.5q87 0 139.5 45.5t52.5 123.5q0 77 -53.5 123t-138.5 46q-84 0 -137 -45.5t-54 -123.5z" />
    <glyph glyph-name="Wgrave" unicode="&#x1e80;" horiz-adv-x="2075" 
d="M1172 1445q15 0 18 -13l245 -880q7 -25 28 -34t42 1t27 35l200 878q3 13 17 13h260q17 0 13 -18l-358 -1414q-3 -13 -16 -13h-294q-15 0 -18 13l-252 902q-10 36 -46 36t-46 -36l-253 -902q-3 -13 -16 -13h-296q-13 0 -16 13l-357 1414q-2 8 2.5 13t11.5 5h260
q14 0 17 -13l200 -877q6 -25 27 -35.5t42 -1t28 34.5l245 879q3 13 16 13h269zM678 1825q-7 7 -4.5 12.5t12.5 5.5h294q13 0 18 -9l169 -238q5 -8 2.5 -13t-11.5 -5h-225q-13 0 -20 7z" />
    <glyph glyph-name="wgrave" unicode="&#x1e81;" horiz-adv-x="1723" 
d="M981 1044q13 0 16 -12l149 -529q10 -38 47.5 -38t48.5 38l155 529q3 12 16 12h249q18 0 13 -17l-310 -1014q-4 -13 -17 -13h-263q-14 0 -17 13l-157 552q-11 38 -48.5 38.5t-48.5 -37.5l-158 -553q-4 -13 -17 -13h-263q-14 0 -18 13l-309 1014q-5 17 13 17h249
q14 0 17 -12l154 -530q11 -38 48.5 -37.5t48.5 38.5l148 529q5 12 17 12h237zM510 1425q-7 7 -4.5 13t12.5 6h294q13 0 18 -9l169 -238q5 -7 2.5 -12.5t-11.5 -5.5h-225q-13 0 -20 7z" />
    <glyph glyph-name="Wacute" unicode="&#x1e82;" horiz-adv-x="2075" 
d="M1172 1445q15 0 18 -13l245 -880q7 -25 28 -34t42 1t27 35l200 878q3 13 17 13h260q17 0 13 -18l-358 -1414q-3 -13 -16 -13h-294q-15 0 -18 13l-252 902q-10 36 -46 36t-46 -36l-253 -902q-3 -13 -16 -13h-296q-13 0 -16 13l-357 1414q-2 8 2.5 13t11.5 5h260
q14 0 17 -13l200 -877q6 -25 27 -35.5t42 -1t28 34.5l245 879q3 13 16 13h269zM909 1596l169 238q5 9 19 9h294q10 0 12.5 -5.5t-4.5 -12.5l-236 -240q-7 -7 -19 -7h-225q-9 0 -12 5t2 13z" />
    <glyph glyph-name="wacute" unicode="&#x1e83;" horiz-adv-x="1723" 
d="M981 1044q13 0 16 -12l149 -529q10 -38 47.5 -38t48.5 38l155 529q3 12 16 12h249q18 0 13 -17l-310 -1014q-4 -13 -17 -13h-263q-14 0 -17 13l-157 552q-11 38 -48.5 38.5t-48.5 -37.5l-158 -553q-4 -13 -17 -13h-263q-14 0 -18 13l-309 1014q-5 17 13 17h249
q14 0 17 -12l154 -530q11 -38 48.5 -37.5t48.5 38.5l148 529q5 12 17 12h237zM741 1197l169 238q5 9 19 9h294q10 0 12.5 -6t-4.5 -13l-236 -239q-7 -7 -19 -7h-225q-9 0 -12 5.5t2 12.5z" />
    <glyph glyph-name="Wdieresis" unicode="&#x1e84;" horiz-adv-x="2075" 
d="M1172 1445q15 0 18 -13l245 -880q7 -25 28 -34t42 1t27 35l200 878q3 13 17 13h260q17 0 13 -18l-358 -1414q-3 -13 -16 -13h-294q-15 0 -18 13l-252 902q-10 36 -46 36t-46 -36l-253 -902q-3 -13 -16 -13h-296q-13 0 -16 13l-357 1414q-2 8 2.5 13t11.5 5h260
q14 0 17 -13l200 -877q6 -25 27 -35.5t42 -1t28 34.5l245 879q3 13 16 13h269zM715 1587v221q0 16 15 16h223q16 0 16 -16v-221q0 -15 -16 -15h-223q-15 0 -15 15zM1108 1587v221q0 16 15 16h224q15 0 15 -16v-221q0 -15 -15 -15h-224q-15 0 -15 15z" />
    <glyph glyph-name="wdieresis" unicode="&#x1e85;" horiz-adv-x="1723" 
d="M981 1044q13 0 16 -12l149 -529q10 -38 47.5 -38t48.5 38l155 529q3 12 16 12h249q18 0 13 -17l-310 -1014q-4 -13 -17 -13h-263q-14 0 -17 13l-157 552q-11 38 -48.5 38.5t-48.5 -37.5l-158 -553q-4 -13 -17 -13h-263q-14 0 -18 13l-309 1014q-5 17 13 17h249
q14 0 17 -12l154 -530q11 -38 48.5 -37.5t48.5 38.5l148 529q5 12 17 12h237zM547 1188v221q0 15 15 15h223q16 0 16 -15v-221q0 -16 -16 -16h-223q-15 0 -15 16zM940 1188v221q0 15 15 15h224q15 0 15 -15v-221q0 -16 -15 -16h-224q-15 0 -15 16z" />
    <glyph glyph-name="uni1E9E" unicode="&#x1e9e;" horiz-adv-x="1454" 
d="M1051 978q-32 -35 -32 -70q0 -15 19 -30t49 -31.5t66.5 -37.5t73.5 -52t67 -69.5t49 -97t19 -128.5q0 -211 -147.5 -338t-385.5 -127q-117 0 -215 12q-14 2 -14 17v203q0 17 16 15q102 -13 187 -13q128 0 201.5 63.5t73.5 178.5q0 51 -20 89.5t-54.5 63t-85.5 40t-107 22
t-125 6.5q-16 0 -16 15v172q0 12 7 19l204 224q26 28 12.5 57t-51.5 29h-319q-31 0 -50.5 -19.5t-19.5 -49.5v-1126q0 -15 -16 -15h-251q-15 0 -15 15v1415q0 15 15 15h1080q15 0 15 -15l-1 -193q0 -12 -7 -19z" />
    <glyph glyph-name="uni1EBC" unicode="&#x1ebc;" horiz-adv-x="1313" 
d="M522 627q-28 0 -46.5 -19t-18.5 -47v-259q0 -28 18.5 -46.5t46.5 -18.5h676q15 0 15 -16v-206q0 -15 -15 -15h-1012q-6 0 -10.5 4.5t-4.5 10.5v1413q0 7 4.5 11.5t10.5 4.5h995q6 0 10.5 -4.5t4.5 -11.5v-205q0 -7 -4.5 -11.5t-10.5 -4.5h-668q-26 0 -43 -17t-17 -43
v-227q0 -26 17 -43t43 -17h590q15 0 15 -15v-205q0 -13 -15 -13h-581zM309 1627q0 106 61.5 172t156.5 66q84 0 166 -56l44 -29q29 -19 39 -25.5t23.5 -11.5t28.5 -5q31 0 48 20t17 57q0 15 15 15h139q15 0 15 -15q0 -103 -62 -170t-165 -67q-87 0 -175 62l-42 29
q-5 3 -15 10t-15 10l-12.5 7.5t-14 6t-13.5 1.5q-32 0 -51 -22.5t-19 -54.5q0 -15 -16 -15h-137q-16 0 -16 15z" />
    <glyph glyph-name="uni1EBD" unicode="&#x1ebd;" horiz-adv-x="1202" 
d="M1122 479q0 -6 -4.5 -10.5t-10.5 -4.5h-675q-24 0 -37 -15t-13 -37q0 -93 67 -161.5t178 -68.5q155 0 249 147q9 14 21 5l166 -110q13 -9 5 -21q-66 -102 -177.5 -168t-275.5 -66q-241 0 -384.5 151.5t-143.5 402.5q0 247 144.5 399.5t376.5 152.5q230 0 372 -149.5
t142 -385.5v-61zM238 1228q0 106 61.5 171.5t156.5 65.5q85 0 166 -55l44 -30q29 -19 39 -25.5t23.5 -11.5t28.5 -5q64 0 64 77q0 16 16 16h138q15 0 15 -16q0 -103 -62 -169.5t-165 -66.5q-86 0 -174 62l-42 29q-4 2 -15 10t-15.5 10.5t-12.5 7t-14.5 6t-13.5 1.5
q-32 0 -50.5 -22.5t-18.5 -54.5q0 -16 -17 -16h-137q-15 0 -15 16zM400 694q0 -20 13 -33t36 -13h326q22 0 34.5 13t12.5 33q0 78 -58.5 131t-152.5 53q-93 0 -152 -53t-59 -131z" />
    <glyph glyph-name="Ygrave" unicode="&#x1ef2;" horiz-adv-x="1347" 
d="M610 924q24 -43 64.5 -43t63.5 43l278 510q6 10 18 10h281q9 0 12 -5.5t-1 -13.5l-491 -842q-21 -36 -21 -74v-494q0 -15 -15 -15h-251q-16 0 -16 15v494q0 41 -19 74l-491 842q-10 19 10 19h281q14 0 19 -10zM314 1825q-7 7 -4 12.5t13 5.5h293q14 0 19 -9l169 -238
q5 -8 2.5 -13t-11.5 -5h-226q-12 0 -19 7z" />
    <glyph glyph-name="ygrave" unicode="&#x1ef3;" horiz-adv-x="1149" 
d="M42 1027q-5 17 12 17h258q15 0 18 -12l189 -577q14 -44 55.5 -43.5t55.5 44.5l189 576q3 12 18 12h260q18 0 12 -17l-440 -1169q-52 -140 -142.5 -191t-240.5 -51h-112q-13 0 -13 16v201q0 15 15 15h89q53 0 83.5 17t47.5 59l17 44q13 33 -1 70zM214 1425q-7 7 -4.5 13
t12.5 6h294q14 0 19 -9l168 -238q5 -7 2.5 -12.5t-11.5 -5.5h-225q-12 0 -19 7z" />
    <glyph glyph-name="uni1EF8" unicode="&#x1ef8;" horiz-adv-x="1347" 
d="M610 924q24 -43 64.5 -43t63.5 43l278 510q6 10 18 10h281q9 0 12 -5.5t-1 -13.5l-491 -842q-21 -36 -21 -74v-494q0 -15 -15 -15h-251q-16 0 -16 15v494q0 41 -19 74l-491 842q-10 19 10 19h281q14 0 19 -10zM299 1627q0 106 61.5 172t156.5 66q84 0 166 -56l44 -29
q29 -19 39 -25.5t23.5 -11.5t28.5 -5q31 0 48 20t17 57q0 15 15 15h138q16 0 16 -15q0 -103 -62.5 -170t-165.5 -67q-86 0 -174 62l-42 29q-5 3 -15 10t-15 10l-12.5 7.5t-14 6t-13.5 1.5q-32 0 -51 -22.5t-19 -54.5q0 -15 -16 -15h-138q-15 0 -15 15z" />
    <glyph glyph-name="uni1EF9" unicode="&#x1ef9;" horiz-adv-x="1149" 
d="M42 1027q-5 17 12 17h258q15 0 18 -12l189 -577q14 -44 55.5 -43.5t55.5 44.5l189 576q3 12 18 12h260q18 0 12 -17l-440 -1169q-52 -140 -142.5 -191t-240.5 -51h-112q-13 0 -13 16v201q0 15 15 15h89q53 0 83.5 17t47.5 59l17 44q13 33 -1 70zM200 1228
q0 106 61.5 171.5t156.5 65.5q85 0 166 -55l44 -30q29 -19 39 -25.5t23.5 -11.5t28.5 -5q64 0 64 77q0 16 16 16h138q15 0 15 -16q0 -103 -62 -169.5t-165 -66.5q-86 0 -174 62l-42 29q-4 2 -15 10t-15.5 10.5t-12.5 7t-14.5 6t-13.5 1.5q-32 0 -50.5 -22.5t-18.5 -54.5
q0 -16 -17 -16h-137q-15 0 -15 16z" />
    <glyph glyph-name="uni2000" unicode="&#x2000;" horiz-adv-x="512" 
 />
    <glyph glyph-name="uni2003" unicode="&#x2003;" horiz-adv-x="1024" 
 />
    <glyph glyph-name="uni2007" unicode="&#x2007;" horiz-adv-x="1466" 
 />
    <glyph glyph-name="endash" unicode="&#x2013;" horiz-adv-x="1219" 
d="M1090 646q6 0 10.5 -4.5t4.5 -10.5v-202q0 -6 -4.5 -10.5t-10.5 -4.5h-960q-6 0 -10.5 4.5t-4.5 10.5v202q0 6 4.5 10.5t10.5 4.5h960z" />
    <glyph glyph-name="emdash" unicode="&#x2014;" horiz-adv-x="1853" 
d="M1723 646q6 0 11 -4.5t5 -10.5v-202q0 -6 -5 -10.5t-11 -4.5h-1593q-6 0 -10.5 4.5t-4.5 10.5v202q0 6 4.5 10.5t10.5 4.5h1593z" />
    <glyph glyph-name="quoteleft" unicode="&#x2018;" horiz-adv-x="559" 
d="M383 904q-1 -14 -16 -14h-259q-19 0 -14 17l149 524q3 13 16 13h191q16 0 13 -17z" />
    <glyph glyph-name="quoteright" unicode="&#x2019;" horiz-adv-x="548" 
d="M190 1430q1 14 17 14h259q18 0 13 -18l-148 -523q-3 -13 -17 -13h-190q-16 0 -13 16z" />
    <glyph glyph-name="quotesinglbase" unicode="&#x201a;" horiz-adv-x="565" 
d="M158 293q1 14 16 14h259q18 0 13 -17l-148 -523q-4 -14 -16 -14h-191q-16 0 -13 17z" />
    <glyph glyph-name="quotedblleft" unicode="&#x201c;" horiz-adv-x="951" 
d="M383 904q-1 -14 -16 -14h-259q-19 0 -14 17l149 524q3 13 16 13h191q16 0 13 -17zM487 907l149 524q3 13 16 13h191q16 0 13 -17l-80 -523q-1 -14 -16 -14h-259q-19 0 -14 17z" />
    <glyph glyph-name="quotedblright" unicode="&#x201d;" horiz-adv-x="940" 
d="M582 1428q2 15 16 15h259q18 0 13 -18l-148 -523q-3 -13 -16 -13h-191q-16 0 -13 16zM110 905l79 523q1 15 17 15h259q18 0 13 -18l-148 -523q-3 -13 -17 -13h-190q-16 0 -13 16z" />
    <glyph glyph-name="quotedblbase" unicode="&#x201e;" horiz-adv-x="565" 
d="M158 293q1 14 16 14h259q18 0 13 -17l-148 -523q-4 -14 -16 -14h-191q-16 0 -13 17z" />
    <glyph glyph-name="dagger" unicode="&#x2020;" horiz-adv-x="1117" 
d="M673 1444q15 0 15 -16v-295q0 -31 21 -52t52 -21h293q15 0 15 -16v-194q0 -15 -15 -15h-300q-28 0 -47 -18.5t-19 -47.5v-923q0 -15 -15 -15h-226q-15 0 -15 15v923q0 29 -19 47.5t-47 18.5h-303q-6 0 -10.5 4.5t-4.5 10.5v194q0 7 4.5 11.5t10.5 4.5h296q31 0 52 21
t21 52v295q0 16 15 16h226z" />
    <glyph glyph-name="daggerdbl" unicode="&#x2021;" horiz-adv-x="1224" 
d="M727 1444q6 0 10.5 -4.5t4.5 -11.5v-295q0 -32 20.5 -52.5t51.5 -20.5h294q6 0 10.5 -4.5t4.5 -11.5v-194q0 -6 -4.5 -10.5t-10.5 -4.5h-300q-28 0 -47 -18.5t-19 -47.5v-263q0 -28 19 -47t47 -19h300q15 0 15 -15v-195q0 -6 -4.5 -10.5t-10.5 -4.5h-294
q-31 0 -51.5 -20.5t-20.5 -51.5v-297q0 -6 -4.5 -10.5t-10.5 -4.5h-226q-6 0 -11 4.5t-5 10.5v297q0 31 -20 51.5t-51 20.5h-296q-7 0 -11.5 4.5t-4.5 10.5v195q0 15 16 15h302q28 0 46.5 18.5t18.5 47.5v263q0 29 -18.5 47.5t-46.5 18.5h-302q-7 0 -11.5 4.5t-4.5 10.5v194
q0 16 16 16h296q31 0 51 20.5t20 52.5v295q0 7 5 11.5t11 4.5h226z" />
    <glyph glyph-name="bullet" unicode="&#x2022;" horiz-adv-x="697" 
d="M349 424q-71 0 -121.5 50t-50.5 121t50.5 121.5t121.5 50.5q70 0 120.5 -51t50.5 -121t-50.5 -120.5t-120.5 -50.5z" />
    <glyph glyph-name="ellipsis" unicode="&#x2026;" horiz-adv-x="1481" 
d="M132 292q0 15 15 15h267q15 0 15 -15v-277q0 -15 -15 -15h-267q-15 0 -15 15v277zM593 15v277q0 15 15 15h266q16 0 16 -15v-277q0 -15 -16 -15h-266q-15 0 -15 15zM1054 15v277q0 15 15 15h266q16 0 16 -15v-277q0 -15 -16 -15h-266q-15 0 -15 15z" />
    <glyph glyph-name="guilsinglleft" unicode="&#x2039;" horiz-adv-x="747" 
d="M625 937q9 0 12 -5.5t-2 -12.5l-239 -345q-30 -46 0 -90l239 -344q5 -8 2 -13t-12 -5h-247q-13 0 -20 10l-259 387q-7 11 0 21l259 387q7 10 20 10h247z" />
    <glyph glyph-name="guilsinglright" unicode="&#x203a;" horiz-adv-x="747" 
d="M370 937q12 0 19 -10l259 -387q8 -10 0 -21l-259 -387q-7 -10 -19 -10h-247q-9 0 -12 5t2 13l238 344q30 44 0 90l-238 345q-5 7 -2 12.5t12 5.5h247z" />
    <glyph glyph-name="fraction" unicode="&#x2044;" horiz-adv-x="1097" 
d="M1053 1444q9 0 12 -5.5t-1 -13.5l-760 -1414q-6 -11 -18 -11h-240q-19 0 -11 18l762 1416q6 10 18 10h238z" />
    <glyph glyph-name="uni2060" unicode="&#x2060;" horiz-adv-x="0" 
 />
    <glyph glyph-name="Euro" unicode="&#x20ac;" horiz-adv-x="1470" 
d="M1381 351q15 -7 9 -20q-73 -167 -205 -264.5t-325 -97.5q-200 0 -342.5 113.5t-205.5 320.5q-15 46 -32 64.5t-47 18.5h-101q-15 0 -15 16v153q0 16 15 16h105q15 0 25 10.5t10 25.5v42q0 15 -10 24.5t-25 9.5h-105q-15 0 -15 16v153q0 16 15 16h109q28 0 44.5 21
t30.5 64q63 201 204.5 311.5t339.5 110.5q173 0 304.5 -84t195.5 -236q6 -14 -8 -20l-205 -92q-15 -7 -20 9q-73 185 -267 185q-114 0 -185 -69.5t-71 -149.5q0 -21 14 -35.5t38 -14.5h333q16 0 16 -16v-153q0 -16 -16 -16h-383q-15 0 -25 -9.5t-10 -24.5v-42
q0 -15 10 -25.5t25 -10.5h383q16 0 16 -16v-153q0 -16 -16 -16h-347q-23 0 -35 -13t-12 -34q0 -92 74.5 -162t187.5 -70q59 0 106.5 17.5t81.5 51t57 70t45 86.5q7 15 20 9z" />
    <glyph glyph-name="uni20DE" unicode="&#x20de;" horiz-adv-x="1646" 
d="M97 1428q0 6 5 11t11 5h1421q6 0 10.5 -5t4.5 -11v-1413q0 -6 -4.5 -10.5t-10.5 -4.5h-1421q-6 0 -11 4.5t-5 10.5v1413zM306 281q0 -33 22 -55t55 -22h883q33 0 54.5 22t21.5 55v882q0 33 -21.5 55t-54.5 22h-883q-33 0 -55 -22t-22 -55v-882z" />
    <glyph glyph-name="trademark" unicode="&#x2122;" horiz-adv-x="1807" 
d="M60 1436q0 8 9 8h643q8 0 8 -8v-136q0 -8 -8 -8h-166q-26 0 -43.5 -17.5t-17.5 -43.5v-521q0 -9 -8 -9h-173q-7 0 -7 9v521q0 26 -17.5 43t-43.5 17h-167q-9 0 -9 8v137zM790 710v726q0 8 8 8h242q7 0 10 -6l132 -433q10 -34 41.5 -34t41.5 34l133 433q3 6 9 6h243
q7 0 7 -8v-726q0 -9 -7 -9h-156q-8 0 -8 9v292q0 23 -16.5 34.5t-35 5.5t-25.5 -27l-94 -307q-2 -7 -8 -7h-168q-8 0 -10 7l-93 311q-6 20 -24.5 26t-34.5 -5t-16 -34v-296q0 -9 -8 -9h-155q-8 0 -8 9z" />
    <glyph glyph-name="uni2139" unicode="&#x2139;" horiz-adv-x="1732" 
d="M743 845q0 12 13 12h181q12 0 12 -12v-549q0 -4 -3.5 -8t-8.5 -4h-181q-5 0 -9 4t-4 8v549zM116 722q0 218 95 390t266 267.5t388 95.5q218 0 389.5 -95.5t267 -267.5t95.5 -390t-95.5 -390t-267 -267.5t-389.5 -95.5q-217 0 -388 95.5t-266 267.5t-95 390zM326 722
q0 -260 145.5 -412t394.5 -152q250 0 396 152t146 412t-146 412t-396 152t-395 -152t-145 -412zM736 986v179q0 5 4 9t9 4h195q11 0 11 -13v-179q0 -12 -11 -12h-195q-13 0 -13 12z" />
    <glyph glyph-name="arrowleft" unicode="&#x2190;" horiz-adv-x="1521" 
d="M648 792q-40 -42 -20 -88.5t79 -46.5h693q15 0 15 -15v-235q0 -16 -15 -16h-694q-59 0 -78.5 -45.5t20.5 -88.5l225 -237q7 -7 4.5 -12.5t-12.5 -5.5h-265q-11 0 -19 8l-478 503q-10 11 0 23l478 501q9 9 19 9h265q10 0 12 -6t-5 -13z" />
    <glyph glyph-name="arrowup" unicode="&#x2191;" horiz-adv-x="1240" 
d="M888 702q-42 40 -88 20.5t-46 -78.5v-693q0 -16 -16 -16h-235q-16 0 -16 16v694q0 59 -45.5 78t-88.5 -21l-236 -225q-7 -7 -13 -4.5t-6 12.5v266q0 11 8 19l503 477q12 10 23 0l502 -477q8 -8 8 -19v-266q0 -10 -6 -12t-13 5z" />
    <glyph glyph-name="arrowright" unicode="&#x2192;" horiz-adv-x="1521" 
d="M872 255q40 42 20.5 88t-78.5 46h-693q-16 0 -16 15v236q0 15 16 15h694q59 0 78 46t-21 89l-225 236q-7 7 -4.5 12.5t12.5 5.5h266q11 0 19 -8l477 -502q10 -11 0 -23l-477 -502q-8 -8 -19 -8h-266q-10 0 -12 5.5t5 12.5z" />
    <glyph glyph-name="arrowdown" unicode="&#x2193;" horiz-adv-x="1238" 
d="M351 477q42 -40 88 -20t46 79v693q0 15 16 15h235q16 0 16 -15v-694q0 -59 45.5 -78.5t88.5 20.5l236 225q7 7 13 4.5t6 -12.5v-265q0 -11 -8 -19l-503 -478q-12 -10 -23 0l-502 478q-8 8 -8 19v265q0 10 6 12t13 -5z" />
    <glyph glyph-name="arrowboth" unicode="&#x2194;" horiz-adv-x="2056" 
d="M646 791q-40 -42 -20 -88.5t79 -46.5h664q51 7 65 50.5t-23 83.5l-225 236q-7 7 -4.5 12.5t12.5 5.5h265q12 0 20 -8l477 -502q10 -11 0 -23l-477 -502q-8 -8 -20 -8h-265q-10 0 -12 5.5t5 12.5l224 236q40 42 20.5 88t-78.5 46h-665q-51 -7 -65 -50t23 -83l225 -237
q7 -7 4.5 -12.5t-12.5 -5.5h-265q-11 0 -19 8l-478 503q-10 12 0 23l478 501q8 8 19 8h265q10 0 12 -5.5t-5 -12.5z" />
    <glyph glyph-name="arrowupdn" unicode="&#x2195;" horiz-adv-x="1266" 
d="M900 896q-39 37 -82.5 22.5t-50.5 -65.5v-630q0 -59 45.5 -78t88.5 21l237 225q7 7 12.5 4.5t5.5 -12.5v-265q0 -12 -8 -20l-503 -477q-11 -9 -22 0l-502 477q-8 8 -8 20v265q0 10 5.5 12t12.5 -5l236 -224q39 -37 82.5 -22.5t50.5 65.5v630q0 59 -45.5 78t-88.5 -21
l-237 -225q-7 -7 -12.5 -4.5t-5.5 12.5v265q0 12 8 20l503 477q11 9 22 0l502 -477q8 -8 8 -20v-265q0 -10 -5.5 -12t-12.5 5z" />
    <glyph glyph-name="uni2196" unicode="&#x2196;" horiz-adv-x="1238" 
d="M720 835q-58 -1 -76.5 -48.5t22.5 -88.5l490 -490q11 -11 0 -22l-167 -167q-11 -11 -21 0l-491 492q-41 41 -87.5 23t-48.5 -77l-7 -327q0 -10 -6.5 -12t-13.5 5l-187 187q-8 8 -8 20l18 693q1 13 17 15l692 18q11 0 19 -8l188 -188q7 -7 4 -12.5t-13 -5.5z" />
    <glyph glyph-name="uni2197" unicode="&#x2197;" horiz-adv-x="1236" 
d="M896 455q-2 58 -48.5 76t-87.5 -23l-491 -491q-11 -11 -21 0l-167 167q-11 11 0 22l491 491q27 26 28.5 58t-21.5 54.5t-61 23.5l-327 8q-10 0 -12 5.5t5 12.5l188 188q8 8 19 8l693 -19q16 -2 16 -15l17 -692q0 -13 -7 -20l-188 -188q-7 -7 -12.5 -4.5t-5.5 12.5z" />
    <glyph glyph-name="uni2198" unicode="&#x2198;" horiz-adv-x="1238" 
d="M518 212q58 2 76 48t-23 88l-490 490q-9 11 0 22l167 166q10 12 21 0l492 -490q26 -27 58 -28.5t54 21.5t23 61l8 326q0 10 6 12.5t13 -4.5l187 -188q8 -8 8 -19l-18 -693q-2 -15 -16 -17l-692 -17q-11 0 -19 8l-189 187q-7 7 -4 13t13 6z" />
    <glyph glyph-name="uni2199" unicode="&#x2199;" horiz-adv-x="1236" 
d="M341 588q2 -59 48 -77t88 23l490 490q11 11 22 0l166 -166q11 -11 0 -22l-490 -491q-41 -41 -23 -87.5t77 -47.5l327 -8q10 0 12 -6t-5 -13l-188 -188q-7 -7 -19 -7l-693 17q-15 2 -17 17l-17 692q0 11 8 19l187 188q8 7 13.5 4t5.5 -13z" />
    <glyph glyph-name="partialdiff" unicode="&#x2202;" horiz-adv-x="1251" 
d="M1157 601q0 -284 -147 -457.5t-409 -173.5q-152 0 -272 64t-191.5 192.5t-71.5 304.5q0 235 142 389.5t357 154.5q49 0 87 -12.5t56.5 -25.5t21.5 -13q18 0 28.5 9.5t10.5 26.5q1 55 -122 157.5t-290 175.5q-14 6 -8 20l84 180q6 13 23 6q365 -158 533 -406.5t168 -591.5
zM351 530q0 -167 67.5 -256.5t193.5 -89.5q122 0 187.5 90t65.5 256q0 159 -65.5 245t-187.5 86q-126 0 -193.5 -86t-67.5 -245z" />
    <glyph glyph-name="uni2206" unicode="&#x2206;" horiz-adv-x="1455" 
d="M48 0q-19 0 -13 19l522 1414q4 11 16 11h304q12 0 16 -11l527 -1414q6 -19 -13 -19h-1359zM406 329q-16 -43 7 -76t69 -33h490q46 0 69 33t8 76l-254 698q-12 34 -39.5 47t-55 0.5t-40.5 -46.5z" />
    <glyph glyph-name="product" unicode="&#x220f;" horiz-adv-x="1529" 
d="M51 1428q0 6 5 11t11 5h1396q6 0 11 -5t5 -11v-194q0 -6 -5 -10.5t-11 -4.5h-144q-30 0 -50 -20t-20 -50l1 -1410q0 -15 -15 -15h-224q-6 0 -11 4.5t-5 10.5l-2 1410q0 30 -19.5 50t-49.5 20h-318q-30 0 -49.5 -20t-19.5 -50v-1410q0 -6 -5 -10.5t-11 -4.5h-225
q-6 0 -10.5 4.5t-4.5 10.5l-1 1410q0 30 -20 50t-50 20h-143q-6 0 -11 4.5t-5 10.5v194z" />
    <glyph glyph-name="summation" unicode="&#x2211;" horiz-adv-x="1224" 
d="M1126 -51q16 0 16 -16v-194q0 -15 -16 -15h-1023q-15 0 -15 15v174q0 10 6 19l430 650q25 43 -2 82l-427 572q-7 10 -7 18v174q0 16 15 16h1023q16 0 16 -16v-194q0 -15 -16 -15h-575q-50 0 -69 -37.5t10 -78.5l351 -469q7 -11 0 -22l-369 -553q-25 -40 -6 -75t66 -35
h592z" />
    <glyph glyph-name="minus" unicode="&#x2212;" horiz-adv-x="1085" 
d="M1009 780q15 0 15 -15v-184q0 -16 -15 -16h-932q-16 0 -16 16v184q0 15 16 15h932z" />
    <glyph glyph-name="radical" unicode="&#x221a;" horiz-adv-x="1540" 
d="M1470 1444q16 0 16 -16v-193q0 -15 -16 -15h-232q-53 0 -70 -50l-408 -1158q-4 -12 -18 -12h-266q-13 0 -17 12l-367 1015q-6 17 12 17h233q14 0 17 -12l188 -556q11 -35 39 -48t56 0t40 48l322 956q4 12 18 12h453z" />
    <glyph glyph-name="infinity" unicode="&#x221e;" horiz-adv-x="1622" 
d="M460 206q-158 0 -257.5 112t-99.5 260q0 150 102.5 258t254.5 108q58 0 110.5 -17.5t87.5 -42t64 -49t53 -42t42 -17.5q17 0 40 17.5t51 42t62.5 49t84.5 42t107 17.5q154 0 255.5 -106.5t101.5 -262.5q0 -159 -102 -264t-255 -105q-57 0 -108 17.5t-85.5 42.5t-62.5 50
t-50.5 42.5t-38.5 17.5q-15 0 -38.5 -17.5t-52.5 -42.5t-65 -50t-89 -42.5t-112 -17.5zM319 575q0 -72 42.5 -120.5t113.5 -48.5q78 0 131 60.5t53 107.5q0 25 -20.5 63t-65 72t-98.5 34q-70 0 -113 -48.5t-43 -119.5zM974 574q0 -27 20.5 -65t62.5 -70.5t90 -32.5
q71 0 114.5 49t43.5 120t-43 119.5t-115 48.5q-49 0 -91 -34t-62 -72t-20 -63z" />
    <glyph glyph-name="integral" unicode="&#x222b;" horiz-adv-x="963" 
d="M53 -251q-15 0 -15 15v195q0 15 15 15h80q121 -1 143 127l198 1082q24 126 101 193.5t196 67.5h141q6 0 11 -4.5t5 -11.5v-193q0 -7 -5 -11.5t-12 -4.5l-59 1q-119 1 -143 -127l-198 -1083q-24 -127 -102.5 -194t-206.5 -67h-149z" />
    <glyph glyph-name="approxequal" unicode="&#x2248;" horiz-adv-x="1085" 
d="M681 622q-86 0 -174 62l-42 29q-4 2 -15 10t-15.5 10.5t-12.5 7t-14.5 6t-13.5 1.5q-32 0 -50.5 -22.5t-18.5 -54.5q0 -16 -17 -16h-137q-15 0 -15 16q0 106 61.5 171.5t156.5 65.5q85 0 166 -55l44 -30q29 -19 39 -25.5t23.5 -11.5t28.5 -5q64 0 64 77q0 15 16 15h138
q15 0 15 -15q0 -103 -62 -169.5t-165 -66.5zM180 297q0 106 61.5 172t156.5 66q84 0 166 -56l44 -29q29 -19 39 -25.5t23.5 -11.5t28.5 -5q65 0 65 76q0 16 15 16h139q15 0 15 -16q0 -103 -62 -169.5t-165 -66.5q-87 0 -175 62l-42 29q-5 3 -15 10t-15 10l-12.5 7.5t-14 6
t-13.5 1.5q-32 0 -51 -22.5t-19 -54.5q0 -15 -16 -15h-137q-16 0 -16 15z" />
    <glyph glyph-name="notequal" unicode="&#x2260;" horiz-adv-x="1085" 
d="M1009 563q15 0 15 -15v-184q0 -16 -15 -16h-480q-48 0 -70 -44l-81 -164q-6 -11 -18 -11h-161q-9 0 -12.5 5t0.5 13l62 126q14 30 0.5 52.5t-45.5 22.5h-127q-16 0 -16 16v184q0 15 16 15h272q48 0 66 44l50 102q11 30 -2.5 50t-48.5 20h-337q-16 0 -16 16v184
q0 15 16 15h480q50 0 71 44l79 156q6 11 17 11h162q19 0 11 -18l-59 -119q-14 -31 0 -53t48 -22l123 1q15 0 15 -15v-184q0 -16 -15 -16h-263q-48 0 -66 -43l-50 -101q-13 -32 2 -52t49 -20h328z" />
    <glyph glyph-name="lessequal" unicode="&#x2264;" horiz-adv-x="1085" 
d="M68 924q0 14 11 18l887 310q18 7 18 -12v-190q0 -14 -12 -19l-428 -148q-30 -11 -41.5 -36t0.5 -50.5t42 -36.5l427 -146q12 -5 12 -18v-190q0 -19 -17 -13l-888 308q-11 4 -11 18v205zM61 138v185q0 15 16 15h932q15 0 15 -15v-185q0 -15 -15 -15h-932q-16 0 -16 15z
" />
    <glyph glyph-name="greaterequal" unicode="&#x2265;" horiz-adv-x="1085" 
d="M1018 719q0 -14 -11 -18l-888 -308q-8 -3 -13 1t-5 12v190q0 13 13 18l427 146q30 11 42 36.5t0.5 50.5t-41.5 36l-428 148q-13 5 -13 19v190q0 19 19 12l887 -310q11 -4 11 -18v-205zM61 138v185q0 15 16 15h932q15 0 15 -15v-185q0 -15 -15 -15h-932q-16 0 -16 15z" />
    <glyph glyph-name="lozenge" unicode="&#x25ca;" horiz-adv-x="1301" 
d="M790 10q-6 -10 -19 -10h-240q-12 0 -18 10l-410 702q-5 11 0 20l409 702q5 10 18 10h240q13 0 18 -10l410 -704q5 -9 0 -20zM379 677l214 -382q21 -40 59.5 -40t60.5 40l210 371q26 48 1 97l-214 381q-21 40 -59 40t-60 -40l-211 -370q-26 -47 -1 -97z" />
    <glyph glyph-name="circle" unicode="&#x25cb;" horiz-adv-x="1646" 
d="M822 1475q218 0 389.5 -95.5t267 -267.5t95.5 -390t-95.5 -390t-267 -267.5t-389.5 -95.5q-217 0 -388 95.5t-266 267.5t-95 390t95 390t266 267.5t388 95.5zM283 722q0 -260 145.5 -412t394.5 -152q250 0 396 152t146 412t-146 412t-396 152t-395 -152t-145 -412z" />
    <glyph glyph-name="uni2611" unicode="&#x2611;" horiz-adv-x="1646" 
d="M97 1428q0 6 5 11t11 5h1421q6 0 10.5 -5t4.5 -11v-1413q0 -6 -4.5 -10.5t-10.5 -4.5h-1421q-6 0 -11 4.5t-5 10.5v1413zM306 281q0 -33 22 -55t55 -22h883q33 0 54.5 22t21.5 55v882q0 33 -21.5 55t-54.5 22h-883q-33 0 -55 -22t-22 -55v-882zM397 726q-5 4 -5 11t5 11
l123 122q4 4 11 4t12 -4l148 -148q23 -22 53 -22t52 22l329 330q10 10 22 0l124 -124q11 -12 0 -23l-516 -515q-4 -4 -10.5 -4t-11.5 4z" />
    <glyph glyph-name="uni2713" unicode="&#x2713;" horiz-adv-x="1646" 
d="M295 796q11 11 22 0l246 -246q23 -23 53.5 -23.5t52.5 22.5l657 657q4 4 11 4t11 -4l122 -123q11 -11 0 -21l-843 -844q-4 -4 -10.5 -4t-11.5 4l-433 433q-10 10 0 22z" />
    <glyph glyph-name="uni2715" unicode="&#x2715;" horiz-adv-x="1646" 
d="M173 211q-3 3 -3 8.5t4 8.5l447 448q23 23 23.5 53t-22.5 53l-442 442q-9 8 0 17l127 127q3 4 9 4t9 -4l441 -441q23 -23 53 -23t53 23l448 448q3 3 8.5 3t8.5 -3l128 -128q8 -8 0 -17l-448 -448q-23 -23 -22.5 -53t23.5 -53l455 -455q10 -10 0 -18l-127 -127
q-10 -10 -19 0l-455 454q-23 23 -53.5 23t-52.5 -23l-448 -446q-9 -9 -17 -1z" />
    <glyph glyph-name="uni274E" unicode="&#x274e;" horiz-adv-x="1646" 
d="M97 1428q0 6 5 11t11 5h1421q6 0 10.5 -5t4.5 -11v-1413q0 -6 -4.5 -10.5t-10.5 -4.5h-1421q-6 0 -11 4.5t-5 10.5v1413zM306 281q0 -33 22 -55t55 -22h883q33 0 54.5 22t21.5 55v882q0 33 -21.5 55t-54.5 22h-883q-33 0 -55 -22t-22 -55v-882zM449 953q-9 8 0 17
l122 124q10 7 17 0l188 -191q19 -19 43.5 -19t43.5 19l194 195q8 6 15 -1l121 -121q3 -3 3.5 -8t-1.5 -7l-196 -194q-19 -19 -19 -43.5t19 -43.5l189 -188q9 -9 1 -17l-123 -123q-8 -8 -17 0l-188 189q-19 19 -43.5 19t-43.5 -19l-183 -184q-8 -8 -17 0l-120 121q-8 9 0 17
l183 183q19 19 19 43t-19 44z" />
    <glyph glyph-name="uni2796" unicode="&#x2796;" horiz-adv-x="1646" 
d="M102 822q0 5 4.5 9t9.5 4h1416q4 0 8 -4t4 -9v-180q0 -12 -12 -12h-1416q-14 0 -14 12v180z" />
    <glyph glyph-name="uni2B60" unicode="&#x2b60;" horiz-adv-x="1326" 
d="M621 981q10 -11 -1 -22l-103 -95q-28 -28 -16 -58.5t51 -30.5h669q15 0 15 -15v-176q0 -16 -15 -16h-671q-38 0 -50.5 -30.5t15.5 -57.5l105 -98q11 -11 1 -22l-116 -117q-12 -12 -23 -1l-423 418q-11 12 0 23l424 416q12 12 22 0z" />
    <glyph glyph-name="uni2B61" unicode="&#x2b61;" horiz-adv-x="1011" 
d="M816 634q-11 -9 -21 1l-96 102q-28 28 -58.5 16t-30.5 -51v-668q0 -16 -15 -16h-176q-16 0 -16 16v671q0 38 -30.5 50t-57.5 -16l-98 -104q-10 -10 -21 -1l-118 116q-12 12 -1 22l419 423q11 11 22 0l416 -424q11 -11 0 -21z" />
    <glyph glyph-name="uni2B62" unicode="&#x2b62;" horiz-adv-x="1361" 
d="M706 365q-9 11 1 21l102 95q28 28 16 58.5t-51 30.5h-669q-15 0 -15 16v176q0 15 15 15h671q38 0 50.5 30.5t-15.5 57.5l-104 99q-10 10 -1 21l115 118q12 12 23 1l423 -419q11 -11 0 -22l-424 -416q-12 -12 -22 0z" />
    <glyph glyph-name="uni2B63" unicode="&#x2b63;" horiz-adv-x="1011" 
d="M196 531q11 9 21 -1l95 -102q28 -28 58.5 -16t30.5 51v669q0 15 16 15h176q15 0 15 -15v-671q0 -38 30.5 -50.5t57.5 15.5l99 104q10 10 21 1l118 -115q12 -12 1 -23l-419 -423q-11 -11 -22 0l-416 424q-12 12 0 22z" />
    <glyph glyph-name="u1F354" unicode="&#x1f354;" horiz-adv-x="1646" 
d="M102 822q0 5 4.5 9t9.5 4h1416q4 0 8 -4t4 -9v-180q0 -12 -12 -12h-1416q-14 0 -14 12v180zM102 80v180q0 4 4.5 8t9.5 4h1416q4 0 8 -4t4 -8v-180q0 -12 -12 -12h-1416q-14 0 -14 12zM102 1205v180q0 5 4.5 9t9.5 4h1416q4 0 8 -4t4 -9v-180q0 -12 -12 -12h-1416
q-14 0 -14 12z" />
    <glyph glyph-name="u1F4C5" unicode="&#x1f4c5;" horiz-adv-x="1646" 
d="M461 1612q0 15 15 15h169q15 0 15 -15v-111q0 -25 16.5 -41t41.5 -16h216q24 0 40 16t16 41v111q0 15 16 15h169q15 0 15 -15v-106q0 -27 17.5 -44.5t44.5 -17.5h315q15 0 15 -16v-1413q0 -15 -15 -15h-1487q-6 0 -10.5 4.5t-4.5 10.5v1413q0 7 4.5 11.5t10.5 4.5h319
q26 0 44 17.5t18 44.5v106zM269 268q0 -28 18 -45.5t46 -17.5h981q28 0 45.5 17.5t17.5 45.5v328q0 28 -17.5 45.5t-45.5 17.5h-981q-28 0 -46 -17.5t-18 -45.5v-328zM269 928q0 -28 18 -46t46 -18h981q28 0 45.5 18t17.5 46v266q0 23 -15 38t-39 15h-79q-23 0 -38.5 -15
t-15.5 -38v-136q0 -16 -15 -16h-169q-6 0 -11 4.5t-5 11.5v130q0 26 -16.5 42.5t-42.5 16.5h-211q-26 0 -43 -16.5t-17 -42.5v-130q0 -16 -15 -16h-169q-6 0 -10.5 4.5t-4.5 11.5v136q0 23 -15 38t-39 15h-83q-23 0 -39 -15t-16 -38v-266z" />
    <glyph glyph-name="u1F4CD" unicode="&#x1f4cd;" horiz-adv-x="1646" 
d="M941 -20q-6 -11 -18 -11h-195q-12 0 -18 11l-392 602q-106 162 -106 327q0 153 80 283t220.5 206.5t309.5 76.5q160 0 300.5 -74t226.5 -204.5t86 -284.5q0 -162 -109 -330zM429 903q0 -114 96 -268l229 -360q26 -40 67.5 -40t67.5 40l233 365q95 148 95 263
q0 158 -113 270t-282 112q-170 0 -281.5 -111.5t-111.5 -270.5zM558 902q0 108 77.5 185.5t186.5 77.5q108 0 185.5 -77.5t77.5 -185.5t-77.5 -185.5t-185.5 -77.5q-109 0 -186.5 77.5t-77.5 185.5zM714 902q0 -44 32 -76t76 -32t76.5 32t32.5 76t-32.5 76.5t-76.5 32.5
t-76 -32.5t-32 -76.5z" />
    <glyph glyph-name="u1F4E7" unicode="&#x1f4e7;" horiz-adv-x="1646" 
d="M-79 1428q0 16 16 16h1773q15 0 15 -16v-1413q0 -15 -15 -15h-1773q-16 0 -16 15v1413zM121 450q0 -36 28.5 -47.5t53.5 14.5l258 268q19 21 19 46.5t-19 45.5l-258 267q-25 26 -53.5 14.5t-28.5 -47.5v-561zM317 267q-24 -25 -12.5 -51.5t45.5 -26.5h946q35 0 46.5 26.5
t-12.5 52.5l-272 289q-19 20 -43.5 20t-44.5 -20l-135 -140q-11 -11 -23 0l-135 140q-20 20 -44.5 19.5t-43.5 -20.5zM365 1157l408 -427q22 -22 50 -22t50 22l408 427q28 30 15 61t-54 31h-839q-41 0 -53.5 -31t15.5 -61zM1186 686l258 -268q26 -26 54 -14t28 48v560
q0 36 -28 47.5t-54 -13.5l-258 -268q-20 -20 -20 -45.5t20 -46.5z" />
    <glyph glyph-name="u1F552" unicode="&#x1f552;" horiz-adv-x="1646" 
d="M849 1185q15 0 15 -16v-332q0 -25 17 -42.5t43 -17.5h263q15 0 15 -15v-158q0 -15 -15 -15h-507q-15 0 -15 15v565q0 16 15 16h169zM73 722q0 218 95 390t266 267.5t388 95.5q218 0 389.5 -95.5t267 -267.5t95.5 -390t-95.5 -390t-267 -267.5t-389.5 -95.5
q-217 0 -388 95.5t-266 267.5t-95 390zM283 722q0 -260 145.5 -412t394.5 -152q250 0 396 152t146 412t-146 412t-396 152t-395 -152t-145 -412z" />
    <glyph glyph-name="u1F5F8" unicode="&#x1f5f8;" horiz-adv-x="1646" 
d="M822 1475q218 0 389.5 -95.5t267 -267.5t95.5 -390t-95.5 -390t-267 -267.5t-389.5 -95.5q-217 0 -388 95.5t-266 267.5t-95 390t95 390t266 267.5t388 95.5zM283 722q0 -260 145.5 -412t394.5 -152q250 0 396 152t146 412t-146 412t-396 152t-395 -152t-145 -412z
M359 712q-11 11 0 21l123 123q11 11 22 0l149 -148q23 -22 53 -22t52 22l328 329q12 10 23 0l123 -124q11 -11 0 -22l-515 -515q-5 -4 -11.5 -4t-10.5 4z" />
    <glyph glyph-name="u1F6AB" unicode="&#x1f6ab;" horiz-adv-x="1646" 
d="M822 1475q218 0 389.5 -95.5t267 -267.5t95.5 -390t-95.5 -390t-267 -267.5t-389.5 -95.5q-217 0 -388 95.5t-266 267.5t-95 390t95 390t266 267.5t388 95.5zM285 715q0 -255 143 -404t387 -149q92 0 166 32t93.5 71t-2.5 71l-614 615q-34 24 -72 10t-69.5 -83
t-31.5 -163zM585 1098l614 -616q40 -40 88 13q53 59 70 169q5 32 5 64q0 256 -144.5 406t-390.5 150q-98 0 -168.5 -35.5t-82.5 -77t9 -73.5z" />
    <glyph glyph-name="uni004A0301" horiz-adv-x="1223" 
d="M55 582q0 6 5 10.5t11 4.5h245q6 0 11 -4.5t5 -10.5v-77q0 -153 55.5 -227t170.5 -74t170.5 74t55.5 227v923q0 7 5 11.5t11 4.5h251q15 0 15 -16v-929q0 -254 -131.5 -392t-374.5 -138t-374 138t-131 392v83zM411 1596l169 238q5 9 18 9h294q10 0 12.5 -5.5t-4.5 -12.5
l-235 -240q-7 -7 -20 -7h-225q-9 0 -11.5 5t2.5 13z" />
    <glyph glyph-name="R.001" horiz-adv-x="1412" 
d="M992 628q-30 -14 -34 -46.5t17 -59.5l382 -505q5 -7 2 -12.5t-12 -5.5h-307q-12 0 -18 9l-371 506q-22 29 -56 29l-90 1q-26 0 -44 -17.5t-18 -43.5l1 -469q0 -15 -15 -15h-249q-15 0 -15 15v1414q0 16 15 16h612q219 0 349 -117t130 -321q0 -147 -73.5 -243t-205.5 -135
zM444 872q0 -31 20 -50.5t51 -19.5h241q108 0 166.5 51.5t58.5 154.5q0 102 -59 154.5t-166 52.5h-241q-31 0 -51 -20t-20 -50v-273z" />
    <glyph glyph-name="uni013B.loclMAH" horiz-adv-x="1199" 
d="M437 1444q16 0 16 -16v-1119q0 -31 20.5 -51.5t51.5 -20.5h620q15 0 15 -16v-206q0 -15 -15 -15h-959q-15 0 -15 15v1413q0 16 15 16h251zM472 -366l64 274q3 14 16 14h224q8 0 12.5 -4.5t1.5 -12.5l-107 -274q-5 -13 -16 -13h-181q-17 0 -14 16z" />
    <glyph glyph-name="uni0145.loclMAH" horiz-adv-x="1622" 
d="M171 1428q0 16 15 16h311q12 0 18 -10l571 -920q20 -31 54.5 -21t34.5 47v888q0 16 15 16h245q16 0 16 -16v-1413q0 -15 -16 -15h-311q-12 0 -18 10l-570 920q-20 31 -54.5 21.5t-34.5 -46.5v-890q0 -15 -15 -15h-246q-15 0 -15 15v1413zM626 -366l63 274q3 14 17 14h224
q19 0 13 -17l-106 -274q-5 -13 -17 -13h-180q-17 0 -14 16z" />
    <glyph glyph-name="Cacute.loclPLK" horiz-adv-x="1536" 
d="M1207 539q5 17 21 12l226 -67q16 -5 11 -17q-23 -80 -60.5 -151.5t-95 -135.5t-129.5 -110.5t-169 -73.5t-208 -27q-321 0 -514.5 206.5t-193.5 546.5q0 224 88 395t249.5 264.5t372.5 93.5q130 0 240 -34t188 -93.5t131 -134t81 -162.5q5 -14 -10 -19l-224 -71
q-14 -5 -19 9q-15 47 -43.5 91.5t-73.5 86.5t-114 67t-152 25q-203 0 -313 -134t-110 -383q0 -250 109.5 -384t312.5 -134q70 0 130 19.5t102 50.5t76 75.5t55 90.5t36 98zM694 1598l67 236q3 9 18 9h226q16 0 9 -18l-107 -237q-4 -8 -18 -8h-186q-14 0 -9 18z" />
    <glyph glyph-name="Nacute.loclPLK" horiz-adv-x="1622" 
d="M171 1428q0 16 15 16h311q12 0 18 -10l571 -920q20 -31 54.5 -21t34.5 47v888q0 16 15 16h245q16 0 16 -16v-1413q0 -15 -16 -15h-311q-12 0 -18 10l-570 920q-20 31 -54.5 21.5t-34.5 -46.5v-890q0 -15 -15 -15h-246q-15 0 -15 15v1413zM723 1598l67 236q3 9 18 9h225
q16 0 9 -18l-106 -237q-4 -8 -18 -8h-186q-14 0 -9 18z" />
    <glyph glyph-name="Oacute.loclPLK" horiz-adv-x="1629" 
d="M816 1475q323 0 521 -207t198 -546t-198 -546t-521 -207q-214 0 -378 93.5t-254 264.5t-90 395t90 395t254 264.5t378 93.5zM390 723q0 -249 110.5 -383.5t314.5 -134.5t314 134t110 384q0 249 -110 383t-314 134t-314.5 -134t-110.5 -383zM706 1598l66 236q3 9 19 9h225
q16 0 9 -18l-106 -237q-4 -8 -19 -8h-185q-14 0 -9 18z" />
    <glyph glyph-name="Sacute.loclPLK" horiz-adv-x="1346" 
d="M672 -31q-121 0 -221 30t-172 86t-122 129t-81 165q-5 14 9 19l225 68q17 4 21 -9q37 -116 125.5 -187t221.5 -71q125 0 211 54.5t86 152.5q0 130 -163 171l-338 80q-177 42 -268 147.5t-91 247.5q0 126 75 224t199.5 149t275.5 51q211 0 358.5 -100t204.5 -264
q5 -14 -10 -19l-218 -74q-14 -5 -19 10q-31 91 -108 154.5t-205 63.5q-116 0 -192.5 -52.5t-76.5 -134.5q0 -59 43 -99.5t116 -58.5l343 -82q160 -38 259.5 -138.5t99.5 -258.5q0 -105 -46 -191.5t-126 -143.5t-187 -88t-229 -31zM554 1598l67 236q3 9 18 9h225q16 0 9 -18
l-106 -237q-4 -8 -18 -8h-186q-14 0 -9 18z" />
    <glyph glyph-name="Zacute.loclPLK" horiz-adv-x="1299" 
d="M1217 15q0 -15 -16 -15h-1105q-15 0 -15 15v185q0 13 9 27l648 862q33 43 14.5 80.5t-70.5 37.5h-559q-15 0 -15 16v205q0 16 15 16h1057q15 0 15 -16v-188q0 -15 -10 -28l-643 -857q-32 -43 -13 -80.5t70 -37.5h602q16 0 16 -16v-206zM539 1598l66 236q3 9 19 9h225
q16 0 9 -18l-106 -237q-4 -8 -19 -8h-185q-14 0 -9 18z" />
    <glyph glyph-name="A.ss03" horiz-adv-x="1472" 
d="M906 1444q14 0 18 -12l520 -1415q5 -17 -12 -17h-263q-13 0 -17 12l-88 252q-24 75 -106 75h-443q-81 0 -105 -75l-88 -252q-4 -12 -19 -12h-261q-19 0 -12 17l519 1415q4 12 18 12h339zM567 769q0 -70 50 -119.5t120 -49.5q69 0 118.5 49.5t49.5 119.5q0 69 -49.5 119
t-118.5 50q-70 0 -120 -50t-50 -119z" />
    <glyph glyph-name="Aacute.ss03" horiz-adv-x="1472" 
d="M906 1444q14 0 18 -12l520 -1415q5 -17 -12 -17h-263q-13 0 -17 12l-88 252q-24 75 -106 75h-443q-81 0 -105 -75l-88 -252q-4 -12 -19 -12h-261q-19 0 -12 17l519 1415q4 12 18 12h339zM567 769q0 -70 50 -119.5t120 -49.5q69 0 118.5 49.5t49.5 119.5q0 69 -49.5 119
t-118.5 50q-70 0 -120 -50t-50 -119zM607 1596l169 238q5 9 19 9h294q10 0 12.5 -5.5t-4.5 -12.5l-236 -240q-7 -7 -19 -7h-226q-9 0 -11.5 5t2.5 13z" />
    <glyph glyph-name="Abreve.ss03" horiz-adv-x="1472" 
d="M906 1444q14 0 18 -12l520 -1415q5 -17 -12 -17h-263q-13 0 -17 12l-88 252q-24 75 -106 75h-443q-81 0 -105 -75l-88 -252q-4 -12 -19 -12h-261q-19 0 -12 17l519 1415q4 12 18 12h339zM421 1828q0 15 15 15h158q16 0 16 -15q0 -44 34.5 -74t89.5 -30t92.5 30t37.5 74
q0 15 17 15h156q16 0 16 -12q0 -117 -91 -193t-226 -76q-131 0 -223 75t-92 191zM567 769q0 -70 50 -119.5t120 -49.5q69 0 118.5 49.5t49.5 119.5q0 69 -49.5 119t-118.5 50q-70 0 -120 -50t-50 -119z" />
    <glyph glyph-name="Acircumflex.ss03" horiz-adv-x="1472" 
d="M906 1444q14 0 18 -12l520 -1415q5 -17 -12 -17h-263q-13 0 -17 12l-88 252q-24 75 -106 75h-443q-81 0 -105 -75l-88 -252q-4 -12 -19 -12h-261q-19 0 -12 17l519 1415q4 12 18 12h339zM567 769q0 -70 50 -119.5t120 -49.5q69 0 118.5 49.5t49.5 119.5q0 69 -49.5 119
t-118.5 50q-70 0 -120 -50t-50 -119z" />
    <glyph glyph-name="Adieresis.ss03" horiz-adv-x="1472" 
d="M906 1444q14 0 18 -12l520 -1415q5 -17 -12 -17h-263q-13 0 -17 12l-88 252q-24 75 -106 75h-443q-81 0 -105 -75l-88 -252q-4 -12 -19 -12h-261q-19 0 -12 17l519 1415q4 12 18 12h339zM413 1587v221q0 16 15 16h223q16 0 16 -16v-221q0 -15 -16 -15h-223q-15 0 -15 15z
M567 769q0 -70 50 -119.5t120 -49.5q69 0 118.5 49.5t49.5 119.5q0 69 -49.5 119t-118.5 50q-70 0 -120 -50t-50 -119zM806 1587v221q0 16 15 16h223q16 0 16 -16v-221q0 -15 -16 -15h-223q-15 0 -15 15z" />
    <glyph glyph-name="Agrave.ss03" horiz-adv-x="1472" 
d="M906 1444q14 0 18 -12l520 -1415q5 -17 -12 -17h-263q-13 0 -17 12l-88 252q-24 75 -106 75h-443q-81 0 -105 -75l-88 -252q-4 -12 -19 -12h-261q-19 0 -12 17l519 1415q4 12 18 12h339zM376 1825q-7 7 -4.5 12.5t12.5 5.5h294q13 0 18 -9l169 -238q5 -8 2.5 -13
t-11.5 -5h-225q-13 0 -20 7zM567 769q0 -70 50 -119.5t120 -49.5q69 0 118.5 49.5t49.5 119.5q0 69 -49.5 119t-118.5 50q-70 0 -120 -50t-50 -119z" />
    <glyph glyph-name="Amacron.ss03" horiz-adv-x="1472" 
d="M906 1444q14 0 18 -12l520 -1415q5 -17 -12 -17h-263q-13 0 -17 12l-88 252q-24 75 -106 75h-443q-81 0 -105 -75l-88 -252q-4 -12 -19 -12h-261q-19 0 -12 17l519 1415q4 12 18 12h339zM463 1663v144q0 6 4.5 11t10.5 5h524q6 0 11 -5t5 -11v-144q0 -6 -5 -10.5
t-11 -4.5h-524q-6 0 -10.5 4.5t-4.5 10.5zM567 769q0 -70 50 -119.5t120 -49.5q69 0 118.5 49.5t49.5 119.5q0 69 -49.5 119t-118.5 50q-70 0 -120 -50t-50 -119z" />
    <glyph glyph-name="Aogonek.ss03" horiz-adv-x="1472" 
d="M906 1444q14 0 18 -12l519 -1415q5 -13 -8 -16q-125 -34 -172.5 -84.5t-47.5 -113.5q0 -45 33.5 -69.5t85.5 -24.5h12.5h15.5h13q16 0 16 -15l-1 -136q0 -14 -14 -17q-62 -12 -125 -12q-110 0 -180 59t-70 164q0 56 25 106t53.5 79t47.5 60.5t10 57.5l-82 225
q-17 52 -74 52h-489q-57 0 -74 -52l-96 -268q-4 -12 -19 -12h-261q-19 0 -12 17l519 1415q4 12 18 12h339zM567 769q0 -70 50 -119.5t120 -49.5q69 0 118.5 49.5t49.5 119.5q0 69 -49.5 119t-118.5 50q-70 0 -120 -50t-50 -119z" />
    <glyph glyph-name="Aring.ss03" horiz-adv-x="1472" 
d="M906 1444q14 0 18 -12l520 -1415q5 -17 -12 -17h-263q-13 0 -17 12l-88 252q-24 75 -106 75h-443q-81 0 -105 -75l-88 -252q-4 -12 -19 -12h-261q-19 0 -12 17l519 1415q4 12 18 12h339zM522 1749q0 87 61.5 145.5t151.5 58.5q91 0 153 -58.5t62 -145.5q0 -88 -62 -147
t-153 -59q-90 0 -151.5 59t-61.5 147zM567 769q0 -70 50 -119.5t120 -49.5q69 0 118.5 49.5t49.5 119.5q0 69 -49.5 119t-118.5 50q-70 0 -120 -50t-50 -119zM663 1748q0 -31 21 -52.5t51 -21.5q33 0 54 21t21 53t-22 53.5t-53 21.5q-30 0 -51 -21.5t-21 -53.5z" />
    <glyph glyph-name="Atilde.ss03" horiz-adv-x="1472" 
d="M906 1444q14 0 18 -12l520 -1415q5 -17 -12 -17h-263q-13 0 -17 12l-88 252q-24 75 -106 75h-443q-81 0 -105 -75l-88 -252q-4 -12 -19 -12h-261q-19 0 -12 17l519 1415q4 12 18 12h339zM360 1627q0 106 62 172t157 66q83 0 165 -56l44 -29q39 -26 55 -34t37 -8
q64 0 64 77q0 15 15 15h139q15 0 15 -15q0 -103 -62 -170t-165 -67q-86 0 -174 62l-42 29q-4 2 -15 10t-15.5 10.5t-12.5 7t-14.5 6t-13.5 1.5q-32 0 -51 -22.5t-19 -54.5q0 -15 -16 -15h-137q-16 0 -16 15zM567 769q0 -70 50 -119.5t120 -49.5q69 0 118.5 49.5t49.5 119.5
q0 69 -49.5 119t-118.5 50q-70 0 -120 -50t-50 -119z" />
    <glyph glyph-name="B.ss03" horiz-adv-x="1417" 
d="M1212 871q-13 -18 -35 -42t-33.5 -39.5t-11.5 -28.5q0 -14 14 -30.5t41.5 -40.5t42.5 -41q89 -97 89 -232q0 -205 -137.5 -311t-370.5 -106l-625 1q-15 0 -15 15v1412q0 6 4.5 11t10.5 5h618q218 0 343.5 -99t125.5 -287q0 -105 -61 -187zM624 1032q0 -74 54.5 -128.5
t129.5 -54.5q74 0 128.5 54.5t54.5 128.5q0 75 -54.5 130t-128.5 55q-75 0 -129.5 -55t-54.5 -130zM627 435q0 -84 60.5 -144.5t143.5 -60.5t143.5 60.5t60.5 144.5q0 83 -60.5 143.5t-143.5 60.5t-143.5 -60.5t-60.5 -143.5z" />
    <glyph glyph-name="D.ss03" horiz-adv-x="1538" 
d="M186 0q-6 0 -10.5 4.5t-4.5 10.5v1413q0 6 4.5 11t10.5 5h546q336 0 523 -190t187 -527q0 -336 -188.5 -531.5t-517.5 -195.5h-550zM453 721q0 -141 103.5 -244t244.5 -103t245 103t104 244q0 142 -104 245.5t-245 103.5t-244.5 -103.5t-103.5 -245.5z" />
    <glyph glyph-name="Eth.ss03" horiz-adv-x="1625" 
d="M268 0q-6 0 -10.5 4.5t-4.5 10.5v530q0 30 -20.5 48t-51.5 18h-87q-15 0 -15 16v199q0 16 15 16h87q32 0 52 17.5t20 48.5v520q0 6 4.5 11t10.5 5h551q336 0 523 -190t187 -527q0 -336 -188.5 -531.5t-517.5 -195.5h-555zM535 316q0 -31 20.5 -50t52.5 -19h204
q210 0 317.5 124.5t107.5 355.5q0 471 -439 471h-190q-32 0 -52.5 -19.5t-20.5 -50.5v-232q0 -24 16 -39t43 -15h282q6 0 10.5 -5t4.5 -11v-199q0 -7 -4.5 -11.5t-10.5 -4.5h-282q-27 0 -43 -15.5t-16 -39.5v-240z" />
    <glyph glyph-name="Dcaron.ss03" horiz-adv-x="1538" 
d="M186 0q-6 0 -10.5 4.5t-4.5 10.5v1413q0 6 4.5 11t10.5 5h546q336 0 523 -190t187 -527q0 -336 -188.5 -531.5t-517.5 -195.5h-550zM364 1824q-5 8 -2 13t12 5h206q12 0 18 -9l58 -73q21 -27 48.5 -27t48.5 28l56 72q6 9 18 9h207q9 0 11.5 -5t-2.5 -13l-174 -238
q-6 -9 -18 -9h-295q-13 0 -18 9zM453 721q0 -141 103.5 -244t244.5 -103t245 103t104 244q0 142 -104 245.5t-245 103.5t-244.5 -103.5t-103.5 -245.5z" />
    <glyph glyph-name="Dcroat.ss03" horiz-adv-x="1625" 
d="M268 0q-6 0 -10.5 4.5t-4.5 10.5v530q0 30 -20.5 48t-51.5 18h-87q-15 0 -15 16v199q0 16 15 16h87q32 0 52 17.5t20 48.5v520q0 6 4.5 11t10.5 5h551q336 0 523 -190t187 -527q0 -336 -188.5 -531.5t-517.5 -195.5h-555zM535 316q0 -31 20.5 -50t52.5 -19h204
q210 0 317.5 124.5t107.5 355.5q0 471 -439 471h-190q-32 0 -52.5 -19.5t-20.5 -50.5v-232q0 -24 16 -39t43 -15h282q6 0 10.5 -5t4.5 -11v-199q0 -7 -4.5 -11.5t-10.5 -4.5h-282q-27 0 -43 -15.5t-16 -39.5v-240z" />
    <glyph glyph-name="E.ss03" horiz-adv-x="1313" 
d="M561 627q-45 0 -74.5 -29.5t-29.5 -74.5v-183q0 -44 29.5 -73.5t74.5 -29.5h637q15 0 15 -16v-206q0 -15 -15 -15h-1012q-6 0 -10.5 4.5t-4.5 10.5v1413q0 7 4.5 11.5t10.5 4.5h995q6 0 10.5 -4.5t4.5 -11.5v-205q0 -7 -4.5 -11.5t-10.5 -4.5h-635q-40 0 -66.5 -26.5
t-26.5 -66.5v-162q0 -40 26.5 -66t66.5 -26h557q15 0 15 -15v-205q0 -13 -15 -13h-542z" />
    <glyph glyph-name="Eacute.ss03" horiz-adv-x="1313" 
d="M561 627q-45 0 -74.5 -29.5t-29.5 -74.5v-183q0 -44 29.5 -73.5t74.5 -29.5h637q15 0 15 -16v-206q0 -15 -15 -15h-1012q-6 0 -10.5 4.5t-4.5 10.5v1413q0 7 4.5 11.5t10.5 4.5h995q6 0 10.5 -4.5t4.5 -11.5v-205q0 -7 -4.5 -11.5t-10.5 -4.5h-635q-40 0 -66.5 -26.5
t-26.5 -66.5v-162q0 -40 26.5 -66t66.5 -26h557q15 0 15 -15v-205q0 -13 -15 -13h-542zM556 1596l169 238q5 9 18 9h294q10 0 13 -5.5t-4 -12.5l-236 -240q-7 -7 -19 -7h-226q-9 0 -11.5 5t2.5 13z" />
    <glyph glyph-name="Ecaron.ss03" horiz-adv-x="1313" 
d="M561 627q-45 0 -74.5 -29.5t-29.5 -74.5v-183q0 -44 29.5 -73.5t74.5 -29.5h637q15 0 15 -16v-206q0 -15 -15 -15h-1012q-6 0 -10.5 4.5t-4.5 10.5v1413q0 7 4.5 11.5t10.5 4.5h995q6 0 10.5 -4.5t4.5 -11.5v-205q0 -7 -4.5 -11.5t-10.5 -4.5h-635q-40 0 -66.5 -26.5
t-26.5 -66.5v-162q0 -40 26.5 -66t66.5 -26h557q15 0 15 -15v-205q0 -13 -15 -13h-542zM345 1824q-5 8 -2 13t12 5h206q13 0 19 -9l58 -73q21 -27 48 -27t48 28l57 72q6 9 18 9h207q9 0 11.5 -5t-2.5 -13l-174 -238q-6 -9 -18 -9h-295q-14 0 -19 9z" />
    <glyph glyph-name="Ecircumflex.ss03" horiz-adv-x="1313" 
d="M561 627q-45 0 -74.5 -29.5t-29.5 -74.5v-183q0 -44 29.5 -73.5t74.5 -29.5h637q15 0 15 -16v-206q0 -15 -15 -15h-1012q-6 0 -10.5 4.5t-4.5 10.5v1413q0 7 4.5 11.5t10.5 4.5h995q6 0 10.5 -4.5t4.5 -11.5v-205q0 -7 -4.5 -11.5t-10.5 -4.5h-635q-40 0 -66.5 -26.5
t-26.5 -66.5v-162q0 -40 26.5 -66t66.5 -26h557q15 0 15 -15v-205q0 -13 -15 -13h-542z" />
    <glyph glyph-name="Edieresis.ss03" horiz-adv-x="1313" 
d="M561 627q-45 0 -74.5 -29.5t-29.5 -74.5v-183q0 -44 29.5 -73.5t74.5 -29.5h637q15 0 15 -16v-206q0 -15 -15 -15h-1012q-6 0 -10.5 4.5t-4.5 10.5v1413q0 7 4.5 11.5t10.5 4.5h995q6 0 10.5 -4.5t4.5 -11.5v-205q0 -7 -4.5 -11.5t-10.5 -4.5h-635q-40 0 -66.5 -26.5
t-26.5 -66.5v-162q0 -40 26.5 -66t66.5 -26h557q15 0 15 -15v-205q0 -13 -15 -13h-542zM361 1587v221q0 16 16 16h223q15 0 15 -16v-221q0 -15 -15 -15h-223q-16 0 -16 15zM755 1587v221q0 16 15 16h223q16 0 16 -16v-221q0 -15 -16 -15h-223q-15 0 -15 15z" />
    <glyph glyph-name="Edotaccent.ss03" horiz-adv-x="1313" 
d="M561 627q-45 0 -74.5 -29.5t-29.5 -74.5v-183q0 -44 29.5 -73.5t74.5 -29.5h637q15 0 15 -16v-206q0 -15 -15 -15h-1012q-6 0 -10.5 4.5t-4.5 10.5v1413q0 7 4.5 11.5t10.5 4.5h995q6 0 10.5 -4.5t4.5 -11.5v-205q0 -7 -4.5 -11.5t-10.5 -4.5h-635q-40 0 -66.5 -26.5
t-26.5 -66.5v-162q0 -40 26.5 -66t66.5 -26h557q15 0 15 -15v-205q0 -13 -15 -13h-542zM558 1587v221q0 16 15 16h224q15 0 15 -16v-221q0 -15 -15 -15h-224q-15 0 -15 15z" />
    <glyph glyph-name="Egrave.ss03" horiz-adv-x="1313" 
d="M561 627q-45 0 -74.5 -29.5t-29.5 -74.5v-183q0 -44 29.5 -73.5t74.5 -29.5h637q15 0 15 -16v-206q0 -15 -15 -15h-1012q-6 0 -10.5 4.5t-4.5 10.5v1413q0 7 4.5 11.5t10.5 4.5h995q6 0 10.5 -4.5t4.5 -11.5v-205q0 -7 -4.5 -11.5t-10.5 -4.5h-635q-40 0 -66.5 -26.5
t-26.5 -66.5v-162q0 -40 26.5 -66t66.5 -26h557q15 0 15 -15v-205q0 -13 -15 -13h-542zM325 1825q-7 7 -4.5 12.5t12.5 5.5h294q13 0 18 -9l169 -238q5 -8 2.5 -13t-11.5 -5h-225q-13 0 -20 7z" />
    <glyph glyph-name="Emacron.ss03" horiz-adv-x="1313" 
d="M561 627q-45 0 -74.5 -29.5t-29.5 -74.5v-183q0 -44 29.5 -73.5t74.5 -29.5h637q15 0 15 -16v-206q0 -15 -15 -15h-1012q-6 0 -10.5 4.5t-4.5 10.5v1413q0 7 4.5 11.5t10.5 4.5h995q6 0 10.5 -4.5t4.5 -11.5v-205q0 -7 -4.5 -11.5t-10.5 -4.5h-635q-40 0 -66.5 -26.5
t-26.5 -66.5v-162q0 -40 26.5 -66t66.5 -26h557q15 0 15 -15v-205q0 -13 -15 -13h-542zM412 1663v144q0 6 4.5 11t10.5 5h524q6 0 11 -5t5 -11v-144q0 -6 -5 -10.5t-11 -4.5h-524q-6 0 -10.5 4.5t-4.5 10.5z" />
    <glyph glyph-name="Eogonek.ss03" horiz-adv-x="1313" 
d="M561 627q-45 0 -74.5 -29.5t-29.5 -74.5v-183q0 -44 29.5 -73.5t74.5 -29.5h637q15 0 15 -16v-206q0 -9 -10 -14q-182 -92 -182 -205q0 -43 30 -64.5t82 -21.5h41q15 0 15 -15v-136q0 -14 -14 -17q-60 -12 -124 -12q-110 0 -179.5 57.5t-69.5 162.5q0 43 16 80.5t36 58
t36 40.5t16 32q0 39 -49 39h-671q-6 0 -10.5 4.5t-4.5 10.5v1413q0 7 4.5 11.5t10.5 4.5h995q6 0 10.5 -4.5t4.5 -11.5v-205q0 -7 -4.5 -11.5t-10.5 -4.5h-635q-40 0 -66.5 -26.5t-26.5 -66.5v-162q0 -40 26.5 -66t66.5 -26h557q15 0 15 -15v-205q0 -13 -15 -13h-542z" />
    <glyph glyph-name="F.ss03" horiz-adv-x="1231" 
d="M559 601q-46 0 -76 -29.5t-30 -75.5v-481q0 -6 -5 -10.5t-11 -4.5h-251q-6 0 -10.5 4.5t-4.5 10.5v1413q0 7 4.5 11.5t10.5 4.5h967q6 0 10.5 -4.5t4.5 -11.5v-205q0 -7 -4.5 -11.5t-10.5 -4.5h-601q-43 0 -71 -28t-28 -70v-176q0 -42 28 -70t71 -28h523q7 0 11.5 -5
t4.5 -11v-203q0 -6 -4.5 -10.5t-11.5 -4.5h-516z" />
    <glyph glyph-name="G.ss03" horiz-adv-x="1594" 
d="M777 0q-147 0 -273 51t-216.5 144t-141.5 230.5t-51 303.5q0 336 196 541t518 205q129 0 237.5 -34t184 -92.5t126.5 -123.5t84 -140q6 -14 -9 -21l-219 -83q-14 -5 -20 9q-20 45 -49.5 85.5t-74.5 79.5t-112.5 62t-147.5 23q-191 0 -306.5 -135.5t-115.5 -375.5
q0 -248 111.5 -379t331.5 -130q142 0 229.5 60.5t87.5 156.5q0 57 -38.5 95.5t-97.5 38.5h-233q-15 0 -15 16v181q0 15 15 15h676q15 0 15 -15v-753q0 -15 -15 -15h-184h-227h-266z" />
    <glyph glyph-name="Gbreve.ss03" horiz-adv-x="1594" 
d="M777 0q-147 0 -273 51t-216.5 144t-141.5 230.5t-51 303.5q0 336 196 541t518 205q129 0 237.5 -34t184 -92.5t126.5 -123.5t84 -140q6 -14 -9 -21l-219 -83q-14 -5 -20 9q-20 45 -49.5 85.5t-74.5 79.5t-112.5 62t-147.5 23q-191 0 -306.5 -135.5t-115.5 -375.5
q0 -248 111.5 -379t331.5 -130q142 0 229.5 60.5t87.5 156.5q0 57 -38.5 95.5t-97.5 38.5h-233q-15 0 -15 16v181q0 15 15 15h676q15 0 15 -15v-753q0 -15 -15 -15h-184h-227h-266zM496 1828q0 15 15 15h158q16 0 16 -15q0 -44 34.5 -74t89.5 -30t92.5 30t37.5 74
q0 15 16 15h157q15 0 15 -12q0 -117 -90.5 -193t-225.5 -76q-131 0 -223 75t-92 191z" />
    <glyph glyph-name="uni0122.ss03" horiz-adv-x="1594" 
d="M777 0q-147 0 -273 51t-216.5 144t-141.5 230.5t-51 303.5q0 336 196 541t518 205q129 0 237.5 -34t184 -92.5t126.5 -123.5t84 -140q6 -14 -9 -21l-219 -83q-14 -5 -20 9q-20 45 -49.5 85.5t-74.5 79.5t-112.5 62t-147.5 23q-191 0 -306.5 -135.5t-115.5 -375.5
q0 -248 111.5 -379t331.5 -130q142 0 229.5 60.5t87.5 156.5q0 57 -38.5 95.5t-97.5 38.5h-233q-15 0 -15 16v181q0 15 15 15h676q15 0 15 -15v-753q0 -15 -15 -15h-184h-227h-266zM601 -366l64 274q3 14 16 14h224q8 0 12.5 -4.5t1.5 -12.5l-107 -274q-5 -13 -16 -13h-181
q-17 0 -14 16z" />
    <glyph glyph-name="Gdotaccent.ss03" horiz-adv-x="1594" 
d="M777 0q-147 0 -273 51t-216.5 144t-141.5 230.5t-51 303.5q0 336 196 541t518 205q129 0 237.5 -34t184 -92.5t126.5 -123.5t84 -140q6 -14 -9 -21l-219 -83q-14 -5 -20 9q-20 45 -49.5 85.5t-74.5 79.5t-112.5 62t-147.5 23q-191 0 -306.5 -135.5t-115.5 -375.5
q0 -248 111.5 -379t331.5 -130q142 0 229.5 60.5t87.5 156.5q0 57 -38.5 95.5t-97.5 38.5h-233q-15 0 -15 16v181q0 15 15 15h676q15 0 15 -15v-753q0 -15 -15 -15h-184h-227h-266zM684 1587v221q0 16 15 16h224q15 0 15 -16v-221q0 -15 -15 -15h-224q-15 0 -15 15z" />
    <glyph glyph-name="H.ss03" horiz-adv-x="1558" 
d="M939 863q72 0 119.5 47.5t47.5 119.5v398q0 6 4.5 11t10.5 5l251 1q6 0 11 -4.5t5 -10.5v-1415q0 -6 -5 -10.5t-11 -4.5h-251q-6 0 -10.5 4.5t-4.5 10.5v445q0 72 -47.5 119.5t-119.5 47.5h-319q-72 0 -119.5 -47.5t-47.5 -119.5v-445q0 -6 -5 -10.5t-11 -4.5h-251
q-6 0 -10.5 4.5t-4.5 10.5v1413q0 6 4.5 11t10.5 5h251q6 0 11 -5t5 -11v-398q0 -72 47.5 -119.5t119.5 -47.5h319z" />
    <glyph glyph-name="Hbar.ss03" horiz-adv-x="1675" 
d="M1101 850q27 0 45 13t18 37v87q0 21 -15.5 34.5t-37.5 13.5h-547q-22 0 -37.5 -13.5t-15.5 -34.5v-87q0 -24 18 -37t45 -13h527zM71 1051v179q0 6 4.5 10.5t10.5 4.5h93q22 0 36 14t14 36v133q0 6 5 11t11 5h251q6 0 10.5 -5t4.5 -11v-128q0 -24 16 -40t40 -16h541
q25 0 40.5 16t15.5 40v128q0 6 5 11t11 5l251 1q6 0 10.5 -4.5t4.5 -10.5v-135q0 -22 14 -36t36 -14h93q7 0 11.5 -4.5t4.5 -10.5v-179q0 -6 -4.5 -11t-11.5 -5h-93q-22 0 -36 -14t-14 -36v-970q0 -6 -4.5 -10.5t-10.5 -4.5h-251q-6 0 -11 4.5t-5 10.5v531q0 30 -20 50
t-50 20h-512q-30 0 -50.5 -20t-20.5 -50v-531q0 -6 -4.5 -10.5t-10.5 -4.5h-251q-6 0 -11 4.5t-5 10.5v970q0 22 -14 36t-36 14h-93q-6 0 -10.5 5t-4.5 11z" />
    <glyph glyph-name="K.ss03" horiz-adv-x="1415" 
d="M784 822q-35 -36 -34.5 -81.5t35.5 -80.5l640 -643q5 -5 3 -11t-9 -6h-348q-12 0 -19 8l-470 492q-39 40 -84 21.5t-45 -75.5v-431q0 -15 -16 -15h-251q-15 0 -15 15v1413q0 16 15 16h251q16 0 16 -16v-396q0 -58 46 -76t86 24l425 457q7 7 19 7h335q6 0 8 -5t-2 -9z" />
    <glyph glyph-name="uni0136.ss03" horiz-adv-x="1415" 
d="M784 822q-35 -36 -34.5 -81.5t35.5 -80.5l640 -643q5 -5 3 -11t-9 -6h-348q-12 0 -19 8l-470 492q-39 40 -84 21.5t-45 -75.5v-431q0 -15 -16 -15h-251q-15 0 -15 15v1413q0 16 15 16h251q16 0 16 -16v-396q0 -58 46 -76t86 24l425 457q7 7 19 7h335q6 0 8 -5t-2 -9z
M503 -366l63 274q3 14 17 14h224q19 0 13 -17l-106 -274q-5 -13 -17 -13h-180q-17 0 -14 16z" />
    <glyph glyph-name="L.ss03" horiz-adv-x="1199" 
d="M437 1444q16 0 16 -16v-1009q0 -79 51.5 -130.5t130.5 -51.5h510q15 0 15 -16v-206q0 -15 -15 -15h-959q-15 0 -15 15v1413q0 16 15 16h251z" />
    <glyph glyph-name="Lacute.ss03" horiz-adv-x="1199" 
d="M437 1444q16 0 16 -16v-1009q0 -79 51.5 -130.5t130.5 -51.5h510q15 0 15 -16v-206q0 -15 -15 -15h-959q-15 0 -15 15v1413q0 16 15 16h251zM189 1596l169 238q5 9 19 9h294q10 0 12.5 -5.5t-4.5 -12.5l-236 -240q-7 -7 -19 -7h-225q-9 0 -12 5t2 13z" />
    <glyph glyph-name="Lcaron.ss03" horiz-adv-x="1214" 
d="M437 1444q16 0 16 -16v-1009q0 -79 51.5 -130.5t130.5 -51.5h510q15 0 15 -16v-206q0 -15 -15 -15h-959q-15 0 -15 15v1413q0 16 15 16h251zM554 935l76 496q1 13 16 13h244q16 0 13 -17l-140 -495q-3 -12 -17 -12h-179q-15 0 -13 15z" />
    <glyph glyph-name="uni013B.ss03" horiz-adv-x="1199" 
d="M437 1444q16 0 16 -16v-1009q0 -79 51.5 -130.5t130.5 -51.5h510q15 0 15 -16v-206q0 -15 -15 -15h-959q-15 0 -15 15v1413q0 16 15 16h251zM472 -366l64 274q3 14 16 14h224q8 0 12.5 -4.5t1.5 -12.5l-107 -274q-5 -13 -16 -13h-181q-17 0 -14 16z" />
    <glyph glyph-name="Lslash.ss03" horiz-adv-x="1308" 
d="M544 1444q15 0 15 -16v-450q0 -41 28.5 -59t61.5 0l341 171q7 4 13 0t6 -12v-207q0 -10 -12 -17l-394 -198q-44 -22 -44 -71v-276q0 -31 20.5 -51.5t52.5 -20.5h618q16 0 16 -16v-206q0 -15 -16 -15h-957q-15 0 -15 15v382q0 37 -27.5 53.5t-60.5 0.5l-95 -48
q-7 -4 -12.5 -0.5t-5.5 12.5v206q0 12 11 18l138 69q52 26 52 82v638q0 16 15 16h251z" />
    </font>
</defs>
</svg>
